SplineFontDB: 3.0
FontName: NewsCycle
FullName: News Cycle
FamilyName: News Cycle
Weight: Medium
Copyright: Created by Nathan Willis,,, with FontForge 2.0 (http://fontforge.sf.net)
Version: 0.2
ItalicAngle: 0
UnderlinePosition: -204
UnderlineWidth: 102
Ascent: 1638
Descent: 410
sfntRevision: 0x00000083
LayerCount: 2
Layer: 0 1 "Back"  1
Layer: 1 1 "Fore"  0
XUID: [1021 378 1762401257 3470612]
FSType: 0
OS2Version: 2
OS2_WeightWidthSlopeOnly: 0
OS2_UseTypoMetrics: 1
CreationTime: 1277926515
ModificationTime: 1303147040
PfmFamily: 17
TTFWeight: 500
TTFWidth: 5
LineGap: 0
VLineGap: 0
Panose: 2 0 5 3 0 0 0 0 0 0
OS2TypoAscent: 872
OS2TypoAOffset: 1
OS2TypoDescent: -128
OS2TypoDOffset: 1
OS2TypoLinegap: 0
OS2WinAscent: 0
OS2WinAOffset: 1
OS2WinDescent: 1
OS2WinDOffset: 1
HheadAscent: 0
HheadAOffset: 1
HheadDescent: -1
HheadDOffset: 1
OS2SubXSize: 1331
OS2SubYSize: 1433
OS2SubXOff: 0
OS2SubYOff: 286
OS2SupXSize: 1331
OS2SupYSize: 1433
OS2SupXOff: 0
OS2SupYOff: 983
OS2StrikeYSize: 102
OS2StrikeYPos: 530
OS2FamilyClass: 2054
OS2Vendor: 'PfEd'
OS2CodePages: 80000093.00000000
OS2UnicodeRanges: a0000063.00000002.00000000.00000000
Lookup: 258 0 0 "'kern' Horizontal Kerning in Latin lookup 0"  {"'kern' Horizontal Kerning in Latin lookup 0 per glyph data 0"  "'kern' Horizontal Kerning in Latin lookup 0 kerning class 1"  } ['kern' ('latn' <'dflt' > ) ]
MarkAttachClasses: 1
DEI: 91125
KernClass2: 75+ 60 "'kern' Horizontal Kerning in Latin lookup 0 kerning class 1" 
 5 space
 261 H I M N Igrave Iacute Icircumflex Idieresis Ntilde Hcircumflex Hbar Itilde Imacron Ibreve Iogonek Idotaccent Nacute Ncommaaccent Ncaron Eng uni01CF afii10056 afii10026 afii10027 uni04E2 uni04E4 uni1E40 uni1ECA uni1FCA uni1FCB uni1FDA uni1FDB afii10030 afii10031
 28 R Racute Rcommaaccent Rcaron
 77 Y Yacute Ycircumflex Ydieresis uni0232 Ygrave uni1FE8 uni1FE9 uni1FEA uni1FEB
 12 kgreenlandic
 9 ampersand
 4 zero
 4 four
 5 seven
 4 nine
 10 exclamdown
 10 registered
 9 trademark

StartChar: .notdef
Encoding: 65536 -1 0
Width: 748
Flags: W
LayerCount: 2
Fore
SplineSet
68 0 m 1,0,-1
 68 1365 l 1,1,-1
 612 1365 l 1,2,-1
 612 0 l 1,3,-1
 68 0 l 1,0,-1
136 68 m 1,4,-1
 544 68 l 1,5,-1
 544 1297 l 1,6,-1
 136 1297 l 1,7,-1
 136 68 l 1,4,-1
EndSplineSet
EndChar

StartChar: exclam
Encoding: 33 33 4
Width: 410
Flags: W
LayerCount: 2
Fore
SplineSet
130 1446 m 1,0,-1
 280 1446 l 1,1,-1
 257 300 l 1,2,-1
 153 300 l 1,3,-1
 130 1446 l 1,0,-1
130 0 m 1,4,-1
 130 150 l 1,5,-1
 280 150 l 1,6,-1
 280 0 l 1,7,-1
 130 0 l 1,4,-1
EndSplineSet
EndChar

StartChar: numbersign
Encoding: 35 35 6
Width: 1164
Flags: W
LayerCount: 2
Fore
SplineSet
436 612 m 1,0,-1
 718 612 l 1,1,-1
 718 931 l 1,2,-1
 436 931 l 1,3,-1
 436 612 l 1,0,-1
67 488 m 1,4,-1
 67 612 l 1,5,-1
 304 612 l 1,6,-1
 304 931 l 1,7,-1
 67 931 l 1,8,-1
 67 1055 l 1,9,-1
 304 1055 l 1,10,-1
 304 1517 l 1,11,-1
 436 1517 l 1,12,-1
 436 1055 l 1,13,-1
 718 1055 l 1,14,-1
 718 1517 l 1,15,-1
 850 1517 l 1,16,-1
 850 1055 l 1,17,-1
 1096 1055 l 1,18,-1
 1096 931 l 1,19,-1
 850 931 l 1,20,-1
 850 612 l 1,21,-1
 1096 612 l 1,22,-1
 1096 488 l 1,23,-1
 850 488 l 1,24,-1
 850 0 l 1,25,-1
 718 0 l 1,26,-1
 718 488 l 1,27,-1
 436 488 l 1,28,-1
 436 0 l 1,29,-1
 304 0 l 1,30,-1
 304 488 l 1,31,-1
 67 488 l 1,4,-1
EndSplineSet
EndChar

StartChar: dollar
Encoding: 36 36 7
Width: 1043
Flags: W
LayerCount: 2
Fore
SplineSet
566 114 m 1,0,1
 700 116 700 116 767.5 191 c 128,-1,2
 835 266 835 266 835 376.5 c 128,-1,3
 835 487 835 487 791.5 551.5 c 128,-1,4
 748 616 748 616 639 661 c 1,5,-1
 566 689 l 1,6,-1
 566 114 l 1,0,1
217 1161 m 0,7,8
 216 1080 216 1080 232 1036 c 0,9,10
 248 990 248 990 280 962 c 0,11,12
 328 920 328 920 418 887 c 1,13,-1
 418 1391 l 1,14,15
 325 1372 325 1372 271 1307 c 128,-1,16
 217 1242 217 1242 217 1161 c 0,7,8
69 1150 m 0,17,18
 69 1226 69 1226 110 1304.5 c 128,-1,19
 151 1383 151 1383 232 1442 c 128,-1,20
 313 1501 313 1501 418 1517 c 1,21,-1
 418 1564 l 1,22,-1
 566 1564 l 1,23,-1
 566 1519 l 1,24,25
 776 1496 776 1496 874 1326 c 0,26,27
 882 1313 882 1313 891 1295.5 c 128,-1,28
 900 1278 900 1278 902 1275 c 1,29,-1
 782 1211 l 1,30,31
 766 1262 766 1262 730 1302 c 0,32,33
 663 1376 663 1376 566 1393 c 1,34,-1
 566 838 l 1,35,-1
 646 812 l 1,36,37
 786 764 786 764 876 676 c 0,38,39
 984 570 984 570 983 385 c 0,40,41
 983 292 983 292 942.5 216.5 c 128,-1,42
 902 141 902 141 857.5 96 c 128,-1,43
 813 51 813 51 737 20.5 c 128,-1,44
 661 -10 661 -10 566 -10 c 1,45,-1
 566 -213 l 1,46,-1
 418 -213 l 1,47,-1
 418 3 l 1,48,49
 246 38 246 38 130 161 c 0,50,51
 104 189 104 189 90 207 c 2,52,-1
 77 225 l 1,53,-1
 195 303 l 2,54,55
 196 303 196 303 202.5 289.5 c 128,-1,56
 209 276 209 276 224 255 c 128,-1,57
 239 234 239 234 262 211 c 0,58,59
 317 156 317 156 418 130 c 1,60,-1
 418 740 l 1,61,62
 218 818 218 818 140 918 c 0,63,64
 68 1010 68 1010 69 1150 c 0,17,18
EndSplineSet
EndChar

StartChar: percent
Encoding: 37 37 8
Width: 1082
Flags: W
LayerCount: 2
Fore
SplineSet
61 66 m 1,0,-1
 898 1515 l 1,1,-1
 1012 1449 l 1,2,-1
 176 0 l 1,3,-1
 61 66 l 1,0,-1
648 378 m 0,4,5
 602 332 602 332 602 267 c 128,-1,6
 602 202 602 202 648.5 155.5 c 128,-1,7
 695 109 695 109 760 109 c 128,-1,8
 825 109 825 109 871.5 155.5 c 128,-1,9
 918 202 918 202 918 267 c 128,-1,10
 918 332 918 332 871.5 378.5 c 128,-1,11
 825 425 825 425 760 425 c 128,-1,12
 695 425 695 425 648 378 c 0,4,5
580 86 m 1,13,14
 506 161 506 161 506 267 c 128,-1,15
 506 373 506 373 580.5 447.5 c 128,-1,16
 655 522 655 522 761 522 c 128,-1,17
 867 522 867 522 941.5 447.5 c 128,-1,18
 1016 373 1016 373 1016 267 c 128,-1,19
 1016 161 1016 161 941.5 86.5 c 128,-1,20
 867 12 867 12 761 12 c 128,-1,21
 655 12 655 12 580 86 c 1,13,14
217 1353 m 0,22,23
 171 1307 171 1307 171 1242 c 128,-1,24
 171 1177 171 1177 217.5 1130.5 c 128,-1,25
 264 1084 264 1084 329 1084 c 128,-1,26
 394 1084 394 1084 440.5 1130.5 c 128,-1,27
 487 1177 487 1177 487 1242 c 128,-1,28
 487 1307 487 1307 440.5 1353.5 c 128,-1,29
 394 1400 394 1400 329 1400 c 128,-1,30
 264 1400 264 1400 217 1353 c 0,22,23
149 1061 m 1,31,32
 75 1136 75 1136 75 1242 c 128,-1,33
 75 1348 75 1348 149.5 1422.5 c 128,-1,34
 224 1497 224 1497 330 1497 c 128,-1,35
 436 1497 436 1497 510.5 1422.5 c 128,-1,36
 585 1348 585 1348 585 1242 c 128,-1,37
 585 1136 585 1136 510.5 1061.5 c 128,-1,38
 436 987 436 987 330 987 c 128,-1,39
 224 987 224 987 149 1061 c 1,31,32
EndSplineSet
EndChar

StartChar: ampersand
Encoding: 38 38 9
Width: 1237
Flags: W
LayerCount: 2
Fore
SplineSet
452 942 m 1,0,-1
 582 1016 l 1,1,2
 655 1060 655 1060 677 1091 c 0,3,4
 724 1158 724 1158 724 1231.5 c 128,-1,5
 724 1305 724 1305 676 1363.5 c 128,-1,6
 628 1422 628 1422 552 1422 c 128,-1,7
 476 1422 476 1422 426 1358.5 c 128,-1,8
 376 1295 376 1295 376 1197 c 128,-1,9
 376 1099 376 1099 452 942 c 1,0,-1
166 416 m 0,10,11
 166 289 166 289 258.5 201 c 128,-1,12
 351 113 351 113 479 113 c 0,13,14
 643 113 643 113 788 260 c 1,15,16
 548 524 548 524 405 761 c 1,17,-1
 328 702 l 1,18,19
 244 636 244 636 219 592 c 1,20,21
 166 503 166 503 166 416 c 0,10,11
158 715 m 0,22,23
 223 781 223 781 345 870 c 1,24,25
 244 1072 244 1072 244 1209.5 c 128,-1,26
 244 1347 244 1347 331 1441.5 c 128,-1,27
 418 1536 418 1536 549 1536 c 128,-1,28
 680 1536 680 1536 761.5 1444.5 c 128,-1,29
 843 1353 843 1353 843 1220 c 0,30,31
 842 1070 842 1070 714 966 c 0,32,33
 624 893 624 893 512 832 c 1,34,35
 649 604 649 604 874 362 c 1,36,37
 953 471 953 471 975 550 c 128,-1,38
 997 629 997 629 997 712 c 1,39,-1
 1129 712 l 1,40,41
 1129 572 1129 572 1082 465 c 128,-1,42
 1035 358 1035 358 969 263 c 1,43,44
 1069 166 1069 166 1139 151 c 0,45,46
 1172 144 1172 144 1221 144 c 1,47,-1
 1221 0 l 1,48,-1
 1139 0 l 2,49,50
 1090 0 1090 0 1037 29.5 c 128,-1,51
 984 59 984 59 884 159 c 1,52,53
 717 -11 717 -11 475 -11 c 0,54,55
 291 -11 291 -11 162.5 111.5 c 128,-1,56
 34 234 34 234 34 411.5 c 128,-1,57
 34 589 34 589 158 715 c 0,22,23
EndSplineSet
EndChar

StartChar: parenleft
Encoding: 40 40 11
Width: 539
Flags: W
LayerCount: 2
Fore
SplineSet
131 1117 m 1,0,1
 157 1206 157 1206 195 1296 c 128,-1,2
 233 1386 233 1386 263 1442 c 0,3,4
 325 1557 325 1557 375 1626 c 1,5,-1
 394 1653 l 1,6,-1
 510 1575 l 1,7,8
 466 1512 466 1512 410 1404.5 c 128,-1,9
 354 1297 354 1297 316 1199.5 c 128,-1,10
 278 1102 278 1102 246.5 962 c 128,-1,11
 215 822 215 822 215 694 c 128,-1,12
 215 566 215 566 244.5 427.5 c 128,-1,13
 274 289 274 289 311 188 c 0,14,15
 383 -6 383 -6 467 -148 c 1,16,-1
 505 -210 l 1,17,-1
 389 -288 l 1,18,-1
 353 -232 l 2,19,20
 331 -197 331 -197 275.5 -87 c 128,-1,21
 220 23 220 23 178 133 c 128,-1,22
 136 243 136 243 101.5 398 c 128,-1,23
 67 553 67 553 67 678 c 128,-1,24
 67 803 67 803 85.5 916 c 128,-1,25
 104 1029 104 1029 131 1117 c 1,0,1
EndSplineSet
EndChar

StartChar: parenright
Encoding: 41 41 12
Width: 529
Flags: W
LayerCount: 2
Fore
SplineSet
20 1575 m 1,0,-1
 136 1653 l 1,1,-1
 156 1626 l 1,2,3
 248 1500 248 1500 310 1352 c 1,4,5
 374 1204 374 1204 400 1117 c 0,6,7
 464 906 464 906 463 729.5 c 128,-1,8
 462 553 462 553 428 398 c 128,-1,9
 394 243 394 243 352 133 c 128,-1,10
 310 23 310 23 254 -87 c 128,-1,11
 198 -197 198 -197 176 -232 c 2,12,-1
 141 -288 l 1,13,-1
 25 -210 l 1,14,15
 139 -31 139 -31 227 212 c 128,-1,16
 315 455 315 455 315 693 c 0,17,18
 315 822 315 822 283.5 962 c 128,-1,19
 252 1102 252 1102 214 1199.5 c 128,-1,20
 176 1297 176 1297 126 1394 c 0,21,22
 64 1512 64 1512 20 1575 c 1,0,-1
EndSplineSet
EndChar

StartChar: asterisk
Encoding: 42 42 13
Width: 668
Flags: W
LayerCount: 2
Fore
SplineSet
80 712 m 1,0,-1
 109 800 l 1,1,-1
 288 742 l 1,2,-1
 288 930 l 1,3,-1
 380 930 l 1,4,-1
 380 742 l 1,5,-1
 559 800 l 1,6,-1
 588 712 l 1,7,-1
 409 654 l 1,8,-1
 520 501 l 1,9,-1
 445 446 l 1,10,-1
 334 599 l 1,11,-1
 223 446 l 1,12,-1
 148 501 l 1,13,-1
 259 654 l 1,14,-1
 80 712 l 1,0,-1
EndSplineSet
EndChar

StartChar: plus
Encoding: 43 43 14
AltUni2: 00207a.ffffffff.0
Width: 675
Flags: W
LayerCount: 2
Fore
SplineSet
74 694 m 1,0,-1
 74 786 l 1,1,-1
 292 786 l 1,2,-1
 292 1004 l 1,3,-1
 384 1004 l 1,4,-1
 384 786 l 1,5,-1
 601 786 l 1,6,-1
 601 694 l 1,7,-1
 384 694 l 1,8,-1
 384 476 l 1,9,-1
 292 476 l 1,10,-1
 292 694 l 1,11,-1
 74 694 l 1,0,-1
EndSplineSet
EndChar

StartChar: comma
Encoding: 44 44 15
Width: 370
Flags: W
LayerCount: 2
Fore
SplineSet
88 -250 m 1,0,-1
 175 0 l 1,1,-1
 110 0 l 1,2,-1
 110 150 l 1,3,-1
 260 150 l 1,4,-1
 260 0 l 1,5,6
 233 -57 233 -57 184 -152 c 128,-1,7
 135 -247 135 -247 132 -250 c 1,8,-1
 88 -250 l 1,0,-1
EndSplineSet
EndChar

StartChar: hyphen
Encoding: 45 45 16
Width: 748
Flags: W
LayerCount: 2
Fore
SplineSet
112 694 m 1,0,-1
 112 786 l 1,1,-1
 636 786 l 1,2,-1
 636 694 l 1,3,-1
 112 694 l 1,0,-1
EndSplineSet
EndChar

StartChar: period
Encoding: 46 46 17
AltUni2: 002024.ffffffff.0
Width: 370
Flags: W
LayerCount: 2
Fore
SplineSet
110 0 m 1,0,-1
 110 150 l 1,1,-1
 260 150 l 1,2,-1
 260 0 l 1,3,-1
 110 0 l 1,0,-1
EndSplineSet
EndChar

StartChar: slash
Encoding: 47 47 18
Width: 933
Flags: W
LayerCount: 2
Fore
SplineSet
42 -12 m 1,0,-1
 786 1579 l 1,1,-1
 894 1528 l 1,2,-1
 151 -63 l 1,3,-1
 42 -12 l 1,0,-1
EndSplineSet
EndChar

StartChar: zero
Encoding: 48 48 19
AltUni2: 002070.ffffffff.0
Width: 1203
Flags: W
LayerCount: 2
Fore
SplineSet
261 739 m 0,0,1
 261 388 261 388 367 236 c 0,2,3
 452 114 452 114 612 114 c 0,4,5
 789 114 789 114 863 249 c 0,6,7
 910 335 910 335 922 432 c 0,8,9
 940 577 940 577 940 703 c 128,-1,10
 940 829 940 829 935 904 c 128,-1,11
 930 979 930 979 917.5 1057 c 128,-1,12
 905 1135 905 1135 881 1194 c 0,13,14
 857 1252 857 1252 821 1300 c 0,15,16
 749 1398 749 1398 612 1398 c 0,17,18
 261 1398 261 1398 261 739 c 0,0,1
939 1352 m 1,19,20
 993 1276 993 1276 1027 1172 c 0,21,22
 1089 986 1089 986 1088 739 c 1,23,24
 1088 182 1088 182 805 34 c 0,25,26
 720 -10 720 -10 610.5 -10.5 c 128,-1,27
 501 -11 501 -11 413.5 34 c 128,-1,28
 326 79 326 79 270.5 151.5 c 128,-1,29
 215 224 215 224 178.5 324 c 128,-1,30
 142 424 142 424 127.5 526 c 128,-1,31
 113 628 113 628 113 741.5 c 128,-1,32
 113 855 113 855 127 960.5 c 128,-1,33
 141 1066 141 1066 177 1170.5 c 128,-1,34
 213 1275 213 1275 267.5 1351 c 128,-1,35
 322 1427 322 1427 410.5 1474.5 c 128,-1,36
 499 1522 499 1522 609 1522 c 128,-1,37
 719 1522 719 1522 803 1475 c 128,-1,38
 887 1428 887 1428 939 1352 c 1,19,20
EndSplineSet
EndChar

StartChar: one
Encoding: 49 49 20
Width: 759
Flags: W
LayerCount: 2
Fore
SplineSet
62 1400 m 1,0,-1
 389 1515 l 1,1,-1
 495 1515 l 1,2,-1
 495 142 l 1,3,-1
 715 142 l 1,4,-1
 715 0 l 1,5,-1
 103 0 l 1,6,-1
 103 142 l 1,7,-1
 347 142 l 1,8,-1
 347 1352 l 1,9,-1
 110 1283 l 1,10,-1
 62 1400 l 1,0,-1
EndSplineSet
EndChar

StartChar: two
Encoding: 50 50 21
Width: 1136
Flags: W
LayerCount: 2
Fore
SplineSet
78 0 m 1,0,1
 79 123 79 123 96 187 c 0,2,3
 138 338 138 338 326 512 c 0,4,5
 418 597 418 597 552 696 c 1,6,-1
 680 788 l 2,7,8
 752 840 752 840 779.5 868.5 c 128,-1,9
 807 897 807 897 829 925 c 0,10,11
 850 952 850 952 862 980 c 0,12,13
 890 1046 890 1046 890 1116 c 0,14,15
 890 1243 890 1243 817 1319 c 128,-1,16
 744 1395 744 1395 594 1395 c 0,17,18
 511 1395 511 1395 446 1364.5 c 128,-1,19
 381 1334 381 1334 345 1286 c 0,20,21
 273 1190 273 1190 269 1088 c 1,22,-1
 121 1088 l 1,23,24
 121 1213 121 1213 190.5 1315 c 128,-1,25
 260 1417 260 1417 372 1472 c 128,-1,26
 484 1527 484 1527 605 1527 c 128,-1,27
 726 1527 726 1527 824 1473 c 128,-1,28
 922 1419 922 1419 980 1324 c 128,-1,29
 1038 1229 1038 1229 1038 1116 c 0,30,31
 1038 1004 1038 1004 988 920 c 0,32,33
 936 831 936 831 880 781.5 c 128,-1,34
 824 732 824 732 794 708 c 2,35,-1
 632 582 l 1,36,37
 256 279 256 279 240 142 c 1,38,-1
 1017 142 l 1,39,-1
 1017 0 l 1,40,-1
 78 0 l 1,0,1
EndSplineSet
EndChar

StartChar: three
Encoding: 51 51 22
Width: 1139
Flags: W
LayerCount: 2
Fore
SplineSet
62 237 m 1,0,-1
 163 324 l 1,1,2
 245 240 245 240 280 213 c 0,3,4
 386 132 386 132 543 132 c 0,5,6
 744 132 744 132 840 253 c 0,7,8
 890 317 890 317 891 407 c 1,9,10
 891 552 891 552 803 636.5 c 128,-1,11
 715 721 715 721 571 721 c 2,12,-1
 358 721 l 1,13,-1
 358 862 l 1,14,-1
 571 862 l 2,15,16
 704 862 704 862 773.5 940.5 c 128,-1,17
 843 1019 843 1019 843 1137 c 128,-1,18
 843 1255 843 1255 752.5 1319.5 c 128,-1,19
 662 1384 662 1384 550 1384 c 128,-1,20
 438 1384 438 1384 342 1339 c 128,-1,21
 246 1294 246 1294 199 1233 c 1,22,-1
 103 1326 l 1,23,24
 176 1410 176 1410 291 1468.5 c 128,-1,25
 406 1527 406 1527 537.5 1527 c 128,-1,26
 669 1527 669 1527 767 1476 c 128,-1,27
 865 1425 865 1425 924.5 1337.5 c 128,-1,28
 984 1250 984 1250 984 1149 c 0,29,30
 984 990 984 990 885 873 c 0,31,32
 841 821 841 821 796 792 c 1,33,34
 918 718 918 718 976 626 c 0,35,36
 1032 536 1032 536 1033 417 c 1,37,38
 1033 209 1033 209 899 99 c 128,-1,39
 765 -11 765 -11 543 -11 c 0,40,41
 257 -11 257 -11 62 237 c 1,0,-1
EndSplineSet
EndChar

StartChar: four
Encoding: 52 52 23
AltUni2: 002074.ffffffff.0
Width: 1153
Flags: W
LayerCount: 2
Fore
SplineSet
191 514 m 1,0,-1
 726 514 l 1,1,-1
 726 1340 l 1,2,-1
 191 514 l 1,0,-1
40 390 m 1,3,-1
 40 510 l 1,4,-1
 696 1515 l 1,5,-1
 874 1515 l 1,6,-1
 874 514 l 1,7,-1
 1105 514 l 1,8,-1
 1105 390 l 1,9,-1
 874 390 l 1,10,-1
 874 0 l 1,11,-1
 726 0 l 1,12,-1
 726 390 l 1,13,-1
 40 390 l 1,3,-1
EndSplineSet
EndChar

StartChar: five
Encoding: 53 53 24
AltUni2: 002075.ffffffff.0
Width: 1085
Flags: W
LayerCount: 2
Fore
SplineSet
300 931 m 1,0,1
 396 1023 396 1023 544 1022 c 1,2,3
 741 1022 741 1022 869 886.5 c 128,-1,4
 997 751 997 751 997 521.5 c 128,-1,5
 997 292 997 292 865 140.5 c 128,-1,6
 733 -11 733 -11 523 -11 c 1,7,8
 335 -10 335 -10 194 136 c 0,9,10
 122 211 122 211 104 276 c 1,11,-1
 202 351 l 1,12,13
 222 292 222 292 280 234 c 0,14,15
 395 119 395 119 518 119 c 1,16,17
 631 120 631 120 727 206 c 0,18,19
 849 316 849 316 849 532 c 0,20,21
 849 774 849 774 698 858 c 0,22,23
 625 898 625 898 537 898.5 c 128,-1,24
 449 899 449 899 372 835 c 128,-1,25
 295 771 295 771 288 722 c 1,26,-1
 152 722 l 1,27,-1
 152 1512 l 1,28,-1
 914 1512 l 1,29,-1
 914 1381 l 1,30,-1
 300 1381 l 1,31,-1
 300 931 l 1,0,1
EndSplineSet
EndChar

StartChar: seven
Encoding: 55 55 26
AltUni2: 002077.ffffffff.0
Width: 947
Flags: W
LayerCount: 2
Fore
SplineSet
42 1376 m 1,0,-1
 42 1515 l 1,1,-1
 915 1515 l 1,2,-1
 915 1374 l 1,3,-1
 322 0 l 1,4,-1
 158 0 l 1,5,-1
 765 1376 l 1,6,-1
 42 1376 l 1,0,-1
EndSplineSet
EndChar

StartChar: eight
Encoding: 56 56 27
AltUni2: 002078.ffffffff.0
Width: 1180
Flags: W
LayerCount: 2
Fore
SplineSet
494 901 m 2,0,-1
 575 862 l 1,1,2
 728 924 728 924 775 953 c 0,3,4
 894 1025 894 1025 894 1144 c 128,-1,5
 894 1263 894 1263 805 1332 c 128,-1,6
 716 1401 716 1401 617 1401 c 128,-1,7
 518 1401 518 1401 448.5 1370 c 128,-1,8
 379 1339 379 1339 334.5 1279.5 c 128,-1,9
 290 1220 290 1220 290 1136.5 c 128,-1,10
 290 1053 290 1053 352.5 995.5 c 128,-1,11
 415 938 415 938 494 901 c 2,0,-1
283 550 m 0,12,13
 229 477 229 477 229 393.5 c 128,-1,14
 229 310 229 310 285 243 c 0,15,16
 393 113 393 113 606 113 c 0,17,18
 690 113 690 113 757 144 c 0,19,20
 823 175 823 175 861 207 c 0,21,22
 949 282 949 282 949 403 c 0,23,24
 949 522 949 522 860 598 c 0,25,26
 785 662 785 662 661 713 c 2,27,-1
 585 744 l 1,28,29
 389 693 389 693 283 550 c 0,12,13
97 400 m 0,30,31
 97 578 97 578 261 707 c 0,32,33
 341 770 341 770 433 805 c 1,34,35
 312 847 312 847 235 935 c 128,-1,36
 158 1023 158 1023 158 1139 c 128,-1,37
 158 1255 158 1255 218 1343 c 128,-1,38
 278 1431 278 1431 378 1478 c 128,-1,39
 478 1525 478 1525 597 1525 c 0,40,41
 777 1525 777 1525 901.5 1418.5 c 128,-1,42
 1026 1312 1026 1312 1026 1154 c 0,43,44
 1026 1035 1026 1035 942 943 c 128,-1,45
 858 851 858 851 734 797 c 1,46,47
 900 726 900 726 965 662 c 0,48,49
 1044 585 1044 585 1062.5 520.5 c 128,-1,50
 1081 456 1081 456 1081 399 c 0,51,52
 1081 281 1081 281 1013.5 185.5 c 128,-1,53
 946 90 946 90 839 39.5 c 128,-1,54
 732 -11 732 -11 603.5 -11 c 128,-1,55
 475 -11 475 -11 359.5 37.5 c 128,-1,56
 244 86 244 86 170.5 181.5 c 128,-1,57
 97 277 97 277 97 400 c 0,30,31
EndSplineSet
EndChar

StartChar: nine
Encoding: 57 57 28
AltUni2: 002079.ffffffff.0
Width: 1129
Flags: W
LayerCount: 2
Fore
SplineSet
222 1025 m 1,0,1
 222 869 222 869 309.5 778 c 128,-1,2
 397 687 397 687 539 687 c 0,3,4
 678 687 678 687 770 780 c 0,5,6
 838 849 838 849 870 972 c 0,7,8
 885 1027 885 1027 853 1123.5 c 128,-1,9
 821 1220 821 1220 788.5 1264 c 128,-1,10
 756 1308 756 1308 713 1337 c 0,11,12
 636 1389 636 1389 561 1389 c 128,-1,13
 486 1389 486 1389 434 1369 c 128,-1,14
 382 1349 382 1349 334 1308 c 0,15,16
 230 1218 230 1218 222 1025 c 1,0,1
84 1025 m 1,17,18
 88 1170 88 1170 158 1292 c 0,19,20
 236 1430 236 1430 374 1484 c 0,21,22
 450 1514 450 1514 540 1514 c 0,23,24
 763 1514 763 1514 889.5 1333 c 128,-1,25
 1016 1152 1016 1152 1016 825 c 0,26,27
 1016 427 1016 427 860.5 208 c 128,-1,28
 705 -11 705 -11 427 -11 c 0,29,30
 357 -11 357 -11 275 21 c 128,-1,31
 193 53 193 53 163 90 c 1,32,-1
 221 197 l 1,33,34
 327 121 327 121 427.5 121 c 128,-1,35
 528 121 528 121 601.5 161 c 128,-1,36
 675 201 675 201 735 278 c 0,37,38
 864 443 864 443 886 759 c 1,39,40
 885 758 885 758 873.5 741 c 128,-1,41
 862 724 862 724 853.5 713 c 128,-1,42
 845 702 845 702 826.5 682 c 128,-1,43
 808 662 808 662 790 647.5 c 128,-1,44
 772 633 772 633 744 616 c 0,45,46
 716 598 716 598 688 588 c 0,47,48
 618 562 618 562 539 563 c 1,49,50
 336 563 336 563 210 689.5 c 128,-1,51
 84 816 84 816 84 1025 c 1,17,18
EndSplineSet
EndChar

StartChar: colon
Encoding: 58 58 29
Width: 374
Flags: W
LayerCount: 2
Fore
SplineSet
112 905 m 1,0,-1
 112 1055 l 1,1,-1
 262 1055 l 1,2,-1
 262 905 l 1,3,-1
 112 905 l 1,0,-1
112 0 m 1,4,-1
 112 150 l 1,5,-1
 262 150 l 1,6,-1
 262 0 l 1,7,-1
 112 0 l 1,4,-1
EndSplineSet
EndChar

StartChar: semicolon
Encoding: 59 59 30
AltUni2: 00037e.ffffffff.0
Width: 407
Flags: W
LayerCount: 2
Fore
SplineSet
134 905 m 1,0,-1
 134 1055 l 1,1,-1
 284 1055 l 1,2,-1
 284 905 l 1,3,-1
 134 905 l 1,0,-1
112 -250 m 1,4,-1
 199 0 l 1,5,-1
 134 0 l 1,6,-1
 134 150 l 1,7,-1
 284 150 l 1,8,-1
 284 0 l 1,9,10
 257 -57 257 -57 208 -152 c 128,-1,11
 159 -247 159 -247 156 -250 c 1,12,-1
 112 -250 l 1,4,-1
EndSplineSet
EndChar

StartChar: less
Encoding: 60 60 31
AltUni2: 002039.ffffffff.0
Width: 962
Flags: W
LayerCount: 2
Fore
SplineSet
42 744 m 1,0,-1
 804 1384 l 1,1,-1
 872 1299 l 1,2,-1
 210 744 l 1,3,-1
 872 189 l 1,4,-1
 804 104 l 1,5,-1
 42 744 l 1,0,-1
EndSplineSet
EndChar

StartChar: equal
Encoding: 61 61 32
Width: 855
Flags: W
LayerCount: 2
Fore
SplineSet
119 808 m 1,0,-1
 119 900 l 1,1,-1
 736 900 l 1,2,-1
 736 808 l 1,3,-1
 119 808 l 1,0,-1
119 542 m 1,4,-1
 119 634 l 1,5,-1
 736 634 l 1,6,-1
 736 542 l 1,7,-1
 119 542 l 1,4,-1
EndSplineSet
EndChar

StartChar: greater
Encoding: 62 62 33
AltUni2: 00203a.ffffffff.0
Width: 962
Flags: W
LayerCount: 2
Fore
SplineSet
90 189 m 1,0,-1
 752 744 l 1,1,-1
 90 1299 l 1,2,-1
 158 1384 l 1,3,-1
 920 744 l 1,4,-1
 158 104 l 1,5,-1
 90 189 l 1,0,-1
EndSplineSet
EndChar

StartChar: question
Encoding: 63 63 34
Width: 795
Flags: W
LayerCount: 2
Fore
SplineSet
231 0 m 1,0,-1
 231 150 l 1,1,-1
 381 150 l 1,2,-1
 381 0 l 1,3,-1
 231 0 l 1,0,-1
51 1314 m 1,4,5
 132 1467 132 1467 264 1501 c 0,6,7
 316 1515 316 1515 400 1515 c 128,-1,8
 484 1515 484 1515 564.5 1460 c 128,-1,9
 645 1405 645 1405 687.5 1317 c 128,-1,10
 730 1229 730 1229 730 1138 c 0,11,12
 730 978 730 978 606 826 c 1,13,-1
 502 704 l 1,14,15
 378 563 378 563 378 469 c 2,16,-1
 378 320 l 1,17,-1
 246 320 l 1,18,-1
 246 469 l 2,19,20
 246 592 246 592 369 738 c 2,21,-1
 471 859 l 2,22,23
 594 1004 594 1004 594 1120 c 128,-1,24
 594 1236 594 1236 525 1311 c 128,-1,25
 456 1386 456 1386 385.5 1386 c 128,-1,26
 315 1386 315 1386 273 1370.5 c 128,-1,27
 231 1355 231 1355 208 1329 c 128,-1,28
 185 1303 185 1303 151 1246 c 1,29,-1
 51 1314 l 1,4,5
EndSplineSet
EndChar

StartChar: at
Encoding: 64 64 35
Width: 1576
Flags: W
LayerCount: 2
Fore
SplineSet
740 361 m 0,0,1
 855 361 855 361 978 504 c 1,2,-1
 978 810 l 1,3,4
 902 866 902 866 827.5 866 c 128,-1,5
 753 866 753 866 694 825.5 c 128,-1,6
 635 785 635 785 601 717 c 128,-1,7
 567 649 567 649 567.5 568 c 128,-1,8
 568 487 568 487 616 424 c 128,-1,9
 664 361 664 361 740 361 c 0,0,1
511 1280 m 0,10,11
 800 1391 800 1391 1071 1280 c 0,12,13
 1338 1171 1338 1171 1454 920 c 0,14,15
 1513 794 1513 794 1513 656 c 0,16,17
 1513 246 1513 246 1297 170 c 0,18,19
 1252 154 1252 154 1196.5 154 c 128,-1,20
 1141 154 1141 154 1098 175 c 128,-1,21
 1055 196 1055 196 1030 232 c 0,22,23
 978 305 978 305 978 407 c 1,24,25
 977 407 977 407 967 388 c 128,-1,26
 957 369 957 369 939 347.5 c 128,-1,27
 921 326 921 326 893 303 c 0,28,29
 829 249 829 249 741 249 c 128,-1,30
 653 249 653 249 600.5 271.5 c 128,-1,31
 548 294 548 294 517.5 327.5 c 128,-1,32
 487 361 487 361 468 406 c 0,33,34
 436 481 436 481 435.5 563 c 128,-1,35
 435 645 435 645 467.5 722.5 c 128,-1,36
 500 800 500 800 552 857 c 128,-1,37
 604 914 604 914 672.5 949.5 c 128,-1,38
 741 985 741 985 821.5 985 c 128,-1,39
 902 985 902 985 978 922 c 1,40,-1
 999 998 l 1,41,-1
 1109 998 l 1,42,-1
 1109 375 l 2,43,44
 1109 324 1109 324 1146.5 295 c 128,-1,45
 1184 266 1184 266 1226 266 c 128,-1,46
 1268 266 1268 266 1302 302.5 c 128,-1,47
 1336 339 1336 339 1356 397 c 0,48,49
 1396 516 1396 516 1396 645.5 c 128,-1,50
 1396 775 1396 775 1349.5 881.5 c 128,-1,51
 1303 988 1303 988 1224 1065 c 128,-1,52
 1145 1142 1145 1142 1035.5 1187 c 128,-1,53
 926 1232 926 1232 805 1232 c 0,54,55
 632 1232 632 1232 474 1147 c 0,56,57
 270 1037 270 1037 207 799 c 0,58,59
 183 709 183 709 183 610.5 c 128,-1,60
 183 512 183 512 210.5 425 c 128,-1,61
 238 338 238 338 292 262 c 128,-1,62
 346 186 346 186 420 128 c 0,63,64
 580 3 580 3 808 3 c 0,65,66
 962 3 962 3 1051 69 c 1,67,-1
 1111 -21 l 1,68,69
 1116 -24 1116 -24 1079.5 -45 c 128,-1,70
 1043 -66 1043 -66 1019 -76 c 128,-1,71
 995 -86 995 -86 968 -93 c 0,72,73
 907 -111 907 -111 814 -111 c 128,-1,74
 721 -111 721 -111 620.5 -88.5 c 128,-1,75
 520 -66 520 -66 443 -26.5 c 128,-1,76
 366 13 366 13 302.5 68 c 128,-1,77
 239 123 239 123 195 187 c 128,-1,78
 151 251 151 251 121 323 c 128,-1,79
 91 395 91 395 77.5 468 c 128,-1,80
 64 541 64 541 64 631 c 128,-1,81
 64 721 64 721 87.5 815 c 128,-1,82
 111 909 111 909 152.5 980.5 c 128,-1,83
 194 1052 194 1052 251 1111.5 c 128,-1,84
 308 1171 308 1171 373 1211.5 c 128,-1,85
 438 1252 438 1252 511 1280 c 0,10,11
EndSplineSet
EndChar

StartChar: A
Encoding: 65 65 36
AltUni2: 000410.ffffffff.0 000391.ffffffff.0
Width: 1126
Flags: W
LayerCount: 2
Fore
SplineSet
344 602 m 1,0,-1
 784 602 l 1,1,-1
 563 1389 l 1,2,-1
 344 602 l 1,0,-1
23 0 m 1,3,-1
 455 1515 l 1,4,-1
 671 1515 l 1,5,-1
 1103 0 l 1,6,-1
 949 0 l 1,7,-1
 819 478 l 1,8,-1
 310 478 l 1,9,-1
 177 0 l 1,10,-1
 23 0 l 1,3,-1
EndSplineSet
EndChar

StartChar: B
Encoding: 66 66 37
AltUni2: 000412.ffffffff.0 000392.ffffffff.0
Width: 1147
Flags: W
LayerCount: 2
Fore
SplineSet
292 850 m 1,0,-1
 617 853 l 2,1,2
 759 854 759 854 829 924 c 0,3,4
 859 954 859 954 881.5 1012.5 c 128,-1,5
 904 1071 904 1071 904 1152 c 0,6,7
 904 1269 904 1269 830.5 1330 c 128,-1,8
 757 1391 757 1391 617 1391 c 2,9,-1
 292 1391 l 1,10,-1
 292 850 l 1,0,-1
292 124 m 1,11,-1
 617 124 l 2,12,13
 779 124 779 124 855 192 c 0,14,15
 887 220 887 220 910 276.5 c 128,-1,16
 933 333 933 333 933 410 c 0,17,18
 933 552 933 552 846 639 c 128,-1,19
 759 726 759 726 617 726 c 2,20,-1
 292 726 l 1,21,-1
 292 124 l 1,11,-1
144 0 m 1,22,-1
 144 1515 l 1,23,-1
 617 1515 l 2,24,25
 800 1515 800 1515 919 1410.5 c 128,-1,26
 1038 1306 1038 1306 1038 1152 c 0,27,28
 1038 898 1038 898 860 826 c 0,29,30
 829 814 829 814 783 800 c 1,31,32
 947 758 947 758 1029 603 c 0,33,34
 1073 518 1073 518 1073 410 c 0,35,36
 1073 223 1073 223 956 111.5 c 128,-1,37
 839 0 839 0 617 0 c 2,38,-1
 144 0 l 1,22,-1
EndSplineSet
EndChar

StartChar: C
Encoding: 67 67 38
AltUni2: 000421.ffffffff.0
Width: 1162
Flags: W
LayerCount: 2
Fore
SplineSet
1026 1262 m 0,0,1
 1071 1162 1071 1162 1083 1112 c 2,2,-1
 1089 1088 l 1,3,-1
 1089 1087 l 1,4,-1
 937 1046 l 1,5,6
 921 1160 921 1160 896.5 1212.5 c 128,-1,7
 872 1265 872 1265 847.5 1298.5 c 128,-1,8
 823 1332 823 1332 793 1355 c 0,9,10
 723 1408 723 1408 623 1408 c 0,11,12
 233 1408 233 1408 233 759 c 0,13,14
 233 481 233 481 315 305 c 0,15,16
 359 212 359 212 437 160 c 128,-1,17
 515 108 515 108 608 108 c 128,-1,18
 701 108 701 108 763 135.5 c 128,-1,19
 825 163 825 163 861 202.5 c 128,-1,20
 897 242 897 242 921 294 c 0,21,22
 962 381 962 381 965 463 c 1,23,-1
 1111 440 l 1,24,25
 1107 429 1107 429 1092.5 386 c 128,-1,26
 1078 343 1078 343 1068 316 c 128,-1,27
 1058 289 1058 289 1035.5 242.5 c 128,-1,28
 1013 196 1013 196 990.5 165 c 128,-1,29
 968 134 968 134 930.5 96.5 c 128,-1,30
 893 59 893 59 851 37 c 0,31,32
 750 -16 750 -16 644 -16 c 128,-1,33
 538 -16 538 -16 465.5 8 c 128,-1,34
 393 32 393 32 339 73.5 c 128,-1,35
 285 115 285 115 241.5 173.5 c 128,-1,36
 198 232 198 232 169 299.5 c 128,-1,37
 140 367 140 367 121 444.5 c 128,-1,38
 102 522 102 522 93.5 600 c 128,-1,39
 85 678 85 678 85 775.5 c 128,-1,40
 85 873 85 873 102.5 980.5 c 128,-1,41
 120 1088 120 1088 161 1189.5 c 128,-1,42
 202 1291 202 1291 263 1366 c 128,-1,43
 324 1441 324 1441 416.5 1486.5 c 128,-1,44
 509 1532 509 1532 605 1532 c 128,-1,45
 701 1532 701 1532 768.5 1507.5 c 128,-1,46
 836 1483 836 1483 882 1444 c 128,-1,47
 928 1405 928 1405 966 1357.5 c 128,-1,48
 1004 1310 1004 1310 1026 1262 c 0,0,1
EndSplineSet
EndChar

StartChar: D
Encoding: 68 68 39
Width: 1237
Flags: W
LayerCount: 2
Fore
SplineSet
292 124 m 1,0,-1
 505 124 l 2,1,2
 833 124 833 124 949 403 c 0,3,4
 1007 543 1007 543 1007 745 c 0,5,6
 1007 1104 1007 1104 869 1257 c 0,7,8
 815 1316 815 1316 722.5 1353.5 c 128,-1,9
 630 1391 630 1391 505 1391 c 2,10,-1
 292 1391 l 1,11,-1
 292 124 l 1,0,-1
144 0 m 1,12,-1
 144 1515 l 1,13,-1
 505 1515 l 2,14,15
 1007 1515 1007 1515 1119 1069 c 0,16,17
 1155 925 1155 925 1155 775 c 128,-1,18
 1155 625 1155 625 1134 519 c 0,19,20
 1113 412 1113 412 1065 316 c 128,-1,21
 1017 220 1017 220 943 151 c 0,22,23
 782 0 782 0 505 0 c 2,24,-1
 144 0 l 1,12,-1
EndSplineSet
EndChar

StartChar: E
Encoding: 69 69 40
AltUni2: 000415.ffffffff.0 000395.ffffffff.0
Width: 1048
Flags: W
LayerCount: 2
Fore
SplineSet
144 0 m 1,0,-1
 144 1515 l 1,1,-1
 965 1515 l 1,2,-1
 965 1391 l 1,3,-1
 292 1391 l 1,4,-1
 292 858 l 1,5,-1
 775 858 l 1,6,-1
 775 734 l 1,7,-1
 292 734 l 1,8,-1
 292 133 l 1,9,-1
 1003 133 l 1,10,-1
 1003 0 l 1,11,-1
 144 0 l 1,0,-1
EndSplineSet
EndChar

StartChar: F
Encoding: 70 70 41
Width: 997
Flags: W
LayerCount: 2
Fore
SplineSet
144 0 m 1,0,-1
 144 1515 l 1,1,-1
 965 1515 l 1,2,-1
 965 1391 l 1,3,-1
 292 1391 l 1,4,-1
 292 858 l 1,5,-1
 775 858 l 1,6,-1
 775 734 l 1,7,-1
 292 734 l 1,8,-1
 292 0 l 1,9,-1
 144 0 l 1,0,-1
EndSplineSet
EndChar

StartChar: G
Encoding: 71 71 42
Width: 1227
Flags: W
LayerCount: 2
Fore
SplineSet
213 1288 m 1,0,1
 259 1362 259 1362 319 1416 c 0,2,3
 446 1532 446 1532 639 1532 c 0,4,5
 780 1532 780 1532 904 1447 c 0,6,7
 1049 1348 1049 1348 1115 1099 c 1,8,-1
 970 1063 l 1,9,10
 969 1070 969 1070 967.5 1082.5 c 128,-1,11
 966 1095 966 1095 956.5 1131 c 128,-1,12
 947 1167 947 1167 934 1199.5 c 128,-1,13
 921 1232 921 1232 895 1272 c 1,14,15
 867 1312 867 1312 835 1340 c 0,16,17
 759 1408 759 1408 643 1408 c 128,-1,18
 527 1408 527 1408 445 1354 c 128,-1,19
 363 1300 363 1300 318 1206 c 0,20,21
 231 1025 231 1025 231 768 c 0,22,23
 231 460 231 460 311 308 c 0,24,25
 416 108 416 108 642 108 c 0,26,27
 923 108 923 108 967 432 c 0,28,29
 977 502 977 502 976 591 c 1,30,-1
 639 591 l 1,31,-1
 639 715 l 1,32,-1
 1121 715 l 1,33,-1
 1121 0 l 1,34,-1
 1001 0 l 1,35,-1
 1001 192 l 1,36,37
 888 36 888 36 762 0 c 0,38,39
 706 -16 706 -16 614 -16 c 128,-1,40
 522 -16 522 -16 426.5 30 c 128,-1,41
 331 76 331 76 268 152 c 128,-1,42
 205 228 205 228 162.5 330.5 c 128,-1,43
 120 433 120 433 101.5 542 c 128,-1,44
 83 651 83 651 83 756.5 c 128,-1,45
 83 862 83 862 97 953 c 128,-1,46
 111 1044 111 1044 139 1130 c 128,-1,47
 167 1216 167 1216 213 1288 c 1,0,1
EndSplineSet
EndChar

StartChar: H
Encoding: 72 72 43
AltUni2: 00041d.ffffffff.0 000397.ffffffff.0
Width: 1272
Flags: W
LayerCount: 2
Fore
SplineSet
144 0 m 1,0,-1
 144 1515 l 1,1,-1
 292 1515 l 1,2,-1
 292 858 l 1,3,-1
 980 858 l 1,4,-1
 980 1515 l 1,5,-1
 1128 1515 l 1,6,-1
 1128 0 l 1,7,-1
 980 0 l 1,8,-1
 980 734 l 1,9,-1
 292 734 l 1,10,-1
 292 0 l 1,11,-1
 144 0 l 1,0,-1
EndSplineSet
EndChar

StartChar: I
Encoding: 73 73 44
AltUni2: 0004c0.ffffffff.0 000406.ffffffff.0 000399.ffffffff.0
Width: 436
Flags: W
LayerCount: 2
Fore
SplineSet
144 0 m 1,0,-1
 144 1515 l 1,1,-1
 292 1515 l 1,2,-1
 292 0 l 1,3,-1
 144 0 l 1,0,-1
EndSplineSet
EndChar

StartChar: J
Encoding: 74 74 45
AltUni2: 000408.ffffffff.0
Width: 880
Flags: W
LayerCount: 2
Fore
SplineSet
7 244 m 1,0,-1
 110 297 l 1,1,-1
 124 268 l 1,2,3
 174 170 174 170 276 126 c 0,4,5
 320 108 320 108 368 108 c 0,6,7
 490 108 490 108 542.5 191.5 c 128,-1,8
 595 275 595 275 595 429 c 2,9,-1
 595 1515 l 1,10,-1
 743 1515 l 1,11,-1
 743 429 l 1,12,13
 744 102 744 102 526 12 c 0,14,15
 458 -16 458 -16 373.5 -16 c 128,-1,16
 289 -16 289 -16 223 10.5 c 128,-1,17
 157 37 157 37 120 70.5 c 128,-1,18
 83 104 83 104 55 147 c 0,19,20
 15 208 15 208 7 244 c 1,0,-1
EndSplineSet
EndChar

StartChar: K
Encoding: 75 75 46
AltUni2: 00041a.ffffffff.0 00039a.ffffffff.0
Width: 1111
Flags: W
LayerCount: 2
Fore
SplineSet
144 0 m 1,0,-1
 144 1515 l 1,1,-1
 293 1515 l 1,2,-1
 293 691 l 1,3,-1
 910 1515 l 1,4,-1
 1069 1515 l 1,5,-1
 635 946 l 1,6,-1
 1124 0 l 1,7,-1
 958 0 l 1,8,-1
 541 822 l 1,9,-1
 293 495 l 1,10,-1
 293 0 l 1,11,-1
 144 0 l 1,0,-1
EndSplineSet
EndChar

StartChar: L
Encoding: 76 76 47
Width: 989
Flags: W
LayerCount: 2
Fore
SplineSet
144 0 m 1,0,-1
 144 1515 l 1,1,-1
 292 1515 l 1,2,-1
 292 142 l 1,3,-1
 964 142 l 1,4,-1
 964 0 l 1,5,-1
 144 0 l 1,0,-1
EndSplineSet
EndChar

StartChar: M
Encoding: 77 77 48
AltUni2: 00041c.ffffffff.0 00039c.ffffffff.0
Width: 1482
Flags: W
LayerCount: 2
Fore
SplineSet
144 0 m 1,0,-1
 144 1515 l 1,1,-1
 412 1515 l 1,2,-1
 736 352 l 1,3,-1
 746 352 l 1,4,-1
 1070 1515 l 1,5,-1
 1338 1515 l 1,6,-1
 1338 0 l 1,7,-1
 1190 0 l 1,8,-1
 1190 1374 l 1,9,-1
 1180 1374 l 1,10,-1
 798 0 l 1,11,-1
 684 0 l 1,12,-1
 302 1374 l 1,13,-1
 292 1374 l 1,14,-1
 292 0 l 1,15,-1
 144 0 l 1,0,-1
EndSplineSet
EndChar

StartChar: N
Encoding: 78 78 49
AltUni2: 00039d.ffffffff.0
Width: 1283
Flags: W
LayerCount: 2
Fore
SplineSet
144 0 m 1,0,-1
 144 1515 l 1,1,-1
 380 1515 l 1,2,-1
 991 361 l 1,3,-1
 991 1515 l 1,4,-1
 1139 1515 l 1,5,-1
 1139 0 l 1,6,-1
 1012 0 l 1,7,-1
 292 1368 l 1,8,-1
 292 0 l 1,9,-1
 144 0 l 1,0,-1
EndSplineSet
EndChar

StartChar: O
Encoding: 79 79 50
AltUni2: 00041e.ffffffff.0 00039f.ffffffff.0
Width: 1269
Flags: W
LayerCount: 2
Fore
SplineSet
916 250 m 0,0,1
 959 314 959 314 987 400 c 0,2,3
 1037 554 1037 554 1037 752 c 0,4,5
 1037 1080 1037 1080 916 1262 c 0,6,7
 873 1326 873 1326 803 1367 c 128,-1,8
 733 1408 733 1408 643 1408 c 128,-1,9
 553 1408 553 1408 481.5 1372 c 128,-1,10
 410 1336 410 1336 363.5 1275.5 c 128,-1,11
 317 1215 317 1215 286.5 1130 c 128,-1,12
 256 1045 256 1045 243 951.5 c 128,-1,13
 230 858 230 858 230 739 c 128,-1,14
 230 620 230 620 253.5 507.5 c 128,-1,15
 277 395 277 395 324.5 304 c 128,-1,16
 372 213 372 213 453.5 160.5 c 128,-1,17
 535 108 535 108 633.5 108 c 128,-1,18
 732 108 732 108 802.5 147.5 c 128,-1,19
 873 187 873 187 916 250 c 0,0,1
1106 1184 m 0,20,21
 1185 992 1185 992 1185 752 c 0,22,23
 1184 313 1184 313 958 100 c 0,24,25
 835 -16 835 -16 643 -16 c 0,26,27
 532 -16 532 -16 438 28.5 c 128,-1,28
 344 73 344 73 279.5 147.5 c 128,-1,29
 215 222 215 222 169.5 321.5 c 128,-1,30
 124 421 124 421 103 529.5 c 128,-1,31
 82 638 82 638 82 753 c 128,-1,32
 82 868 82 868 101 977 c 128,-1,33
 120 1086 120 1086 163 1188 c 128,-1,34
 206 1290 206 1290 269.5 1365.5 c 128,-1,35
 333 1441 333 1441 429 1486.5 c 128,-1,36
 525 1532 525 1532 640.5 1532 c 128,-1,37
 756 1532 756 1532 848.5 1485.5 c 128,-1,38
 941 1439 941 1439 1002.5 1362.5 c 128,-1,39
 1064 1286 1064 1286 1106 1184 c 0,20,21
EndSplineSet
EndChar

StartChar: P
Encoding: 80 80 51
AltUni2: 000420.ffffffff.0 0003a1.ffffffff.0
Width: 1121
Flags: W
LayerCount: 2
Fore
SplineSet
292 816 m 1,0,-1
 572 816 l 2,1,2
 734 816 734 816 831.5 887 c 128,-1,3
 929 958 929 958 929 1104 c 128,-1,4
 929 1250 929 1250 831 1320.5 c 128,-1,5
 733 1391 733 1391 572 1391 c 2,6,-1
 292 1391 l 1,7,-1
 292 816 l 1,0,-1
144 0 m 1,8,-1
 144 1515 l 1,9,-1
 673 1515 l 2,10,11
 909 1515 909 1515 1019 1329 c 0,12,13
 1077 1231 1077 1231 1077 1133.5 c 128,-1,14
 1077 1036 1077 1036 1055 963.5 c 128,-1,15
 1033 891 1033 891 987.5 828.5 c 128,-1,16
 942 766 942 766 861 729 c 128,-1,17
 780 692 780 692 673 692 c 2,18,-1
 292 692 l 1,19,-1
 292 0 l 1,20,-1
 144 0 l 1,8,-1
EndSplineSet
EndChar

StartChar: Q
Encoding: 81 81 52
Width: 1268
Flags: W
LayerCount: 2
Fore
SplineSet
916 250 m 0,0,1
 959 314 959 314 987 400 c 0,2,3
 1037 554 1037 554 1037 752 c 0,4,5
 1037 1080 1037 1080 916 1262 c 0,6,7
 873 1326 873 1326 803 1367 c 128,-1,8
 733 1408 733 1408 643 1408 c 128,-1,9
 553 1408 553 1408 481.5 1372 c 128,-1,10
 410 1336 410 1336 363.5 1275.5 c 128,-1,11
 317 1215 317 1215 286.5 1130 c 128,-1,12
 256 1045 256 1045 243 951.5 c 128,-1,13
 230 858 230 858 230 739 c 128,-1,14
 230 620 230 620 253.5 507.5 c 128,-1,15
 277 395 277 395 324.5 304 c 128,-1,16
 372 213 372 213 453.5 160.5 c 128,-1,17
 535 108 535 108 633.5 108 c 128,-1,18
 732 108 732 108 802.5 147.5 c 128,-1,19
 873 187 873 187 916 250 c 0,0,1
1106 1184 m 0,20,21
 1185 992 1185 992 1185 752 c 0,22,23
 1185 486 1185 486 1078 270 c 0,24,25
 1025 164 1025 164 936 89 c 128,-1,26
 847 14 847 14 732 -9 c 1,27,28
 734 -98 734 -98 760.5 -122.5 c 128,-1,29
 787 -147 787 -147 857 -147 c 2,30,-1
 1121 -147 l 1,31,-1
 1121 -271 l 1,32,-1
 992 -272 l 1,33,34
 722 -272 722 -272 656 -230 c 0,35,36
 600 -194 600 -194 589 -114 c 0,37,38
 584 -74 584 -74 584 -12 c 1,39,40
 464 5 464 5 366 78 c 128,-1,41
 268 151 268 151 207.5 258 c 128,-1,42
 147 365 147 365 114.5 492 c 128,-1,43
 82 619 82 619 82 743.5 c 128,-1,44
 82 868 82 868 101 977 c 128,-1,45
 120 1086 120 1086 163 1188 c 128,-1,46
 206 1290 206 1290 269.5 1365.5 c 128,-1,47
 333 1441 333 1441 429 1486.5 c 128,-1,48
 525 1532 525 1532 640.5 1532 c 128,-1,49
 756 1532 756 1532 848.5 1485.5 c 128,-1,50
 941 1439 941 1439 1002.5 1362.5 c 128,-1,51
 1064 1286 1064 1286 1106 1184 c 0,20,21
EndSplineSet
EndChar

StartChar: R
Encoding: 82 82 53
Width: 1144
Flags: W
LayerCount: 2
Fore
SplineSet
292 816 m 1,0,-1
 668 816 l 2,1,2
 773 816 773 816 847 882 c 0,3,4
 929 955 929 955 929 1110 c 0,5,6
 929 1316 929 1316 707 1374 c 0,7,8
 641 1391 641 1391 563 1391 c 2,9,-1
 292 1391 l 1,10,-1
 292 816 l 1,0,-1
144 0 m 1,11,-1
 144 1515 l 1,12,-1
 654 1515 l 2,13,14
 893 1515 893 1515 1012 1329 c 0,15,16
 1077 1228 1077 1228 1077 1117 c 0,17,18
 1077 982 1077 982 1013 872 c 0,19,20
 943 750 943 750 785 716 c 1,21,-1
 1071 0 l 1,22,-1
 909 0 l 1,23,-1
 633 692 l 1,24,-1
 292 692 l 1,25,-1
 292 0 l 1,26,-1
 144 0 l 1,11,-1
EndSplineSet
EndChar

StartChar: S
Encoding: 83 83 54
AltUni2: 000405.ffffffff.0
Width: 1067
Flags: W
LayerCount: 2
Fore
SplineSet
58 368 m 1,0,-1
 195 416 l 2,1,2
 196 416 196 416 199.5 399 c 128,-1,3
 203 382 203 382 212.5 355 c 128,-1,4
 222 328 222 328 238 295 c 128,-1,5
 254 262 254 262 284 229 c 128,-1,6
 314 196 314 196 352 169 c 0,7,8
 439 108 439 108 579.5 108 c 128,-1,9
 720 108 720 108 789 185 c 128,-1,10
 858 262 858 262 858 374.5 c 128,-1,11
 858 487 858 487 814.5 551.5 c 128,-1,12
 771 616 771 616 662 661 c 0,13,14
 630 674 630 674 578 692 c 2,15,-1
 483 725 l 1,16,17
 236 807 236 807 151 935 c 0,18,19
 92 1023 92 1023 92 1143 c 0,20,21
 92 1284 92 1284 204 1406 c 0,22,23
 256 1462 256 1462 338.5 1497 c 128,-1,24
 421 1532 421 1532 511.5 1532 c 128,-1,25
 602 1532 602 1532 672 1508 c 128,-1,26
 742 1484 742 1484 784 1447 c 0,27,28
 872 1372 872 1372 909 1280 c 2,29,-1
 938 1206 l 2,30,31
 952 1170 952 1170 954 1165 c 1,32,-1
 824 1115 l 1,33,34
 822 1120 822 1120 814.5 1146.5 c 128,-1,35
 807 1173 807 1173 801.5 1190 c 128,-1,36
 796 1207 796 1207 782.5 1237 c 128,-1,37
 769 1267 769 1267 754.5 1287.5 c 128,-1,38
 740 1308 740 1308 716 1332 c 1,39,40
 694 1356 694 1356 666 1372 c 0,41,42
 600 1408 600 1408 517 1408 c 0,43,44
 394 1408 394 1408 317 1335.5 c 128,-1,45
 240 1263 240 1263 240 1143 c 0,46,47
 240 1012 240 1012 308 959 c 0,48,49
 345 930 345 930 370.5 917 c 128,-1,50
 396 904 396 904 430 892 c 1,51,52
 464 878 464 878 481 872 c 128,-1,53
 498 866 498 866 544 852 c 2,54,-1
 628 826 l 1,55,56
 860 756 860 756 947 615 c 0,57,58
 1006 520 1006 520 1006 385 c 0,59,60
 1006 288 1006 288 944 180 c 0,61,62
 866 44 866 44 710 0 c 0,63,64
 650 -16 650 -16 572 -16 c 128,-1,65
 494 -16 494 -16 418 5 c 128,-1,66
 342 26 342 26 290.5 60 c 128,-1,67
 239 94 239 94 197.5 135 c 128,-1,68
 156 176 156 176 131 217 c 0,69,70
 86 292 86 292 66 347 c 2,71,-1
 58 368 l 1,0,-1
EndSplineSet
EndChar

StartChar: T
Encoding: 84 84 55
AltUni2: 000422.ffffffff.0 0003a4.ffffffff.0
Width: 1074
Flags: W
LayerCount: 2
Fore
SplineSet
31 1391 m 1,0,-1
 31 1515 l 1,1,-1
 1043 1515 l 1,2,-1
 1043 1391 l 1,3,-1
 611 1391 l 1,4,-1
 611 0 l 1,5,-1
 463 0 l 1,6,-1
 463 1391 l 1,7,-1
 31 1391 l 1,0,-1
EndSplineSet
EndChar

StartChar: U
Encoding: 85 85 56
Width: 1223
Flags: W
LayerCount: 2
Fore
SplineSet
137 455 m 1,0,-1
 137 1515 l 1,1,-1
 285 1515 l 1,2,-1
 285 455 l 2,3,4
 285 320 285 320 351 226 c 0,5,6
 434 108 434 108 611 108 c 0,7,8
 698 108 698 108 762 136 c 128,-1,9
 826 164 826 164 858 202 c 128,-1,10
 890 240 890 240 910 294 c 0,11,12
 938 371 938 371 939 455 c 1,13,-1
 933 1515 l 1,14,-1
 1087 1515 l 1,15,-1
 1087 455 l 1,16,17
 1086 292 1086 292 998 162 c 0,18,19
 877 -16 877 -16 611 -16 c 0,20,21
 292 -16 292 -16 182 238 c 0,22,23
 136 344 136 344 137 455 c 1,0,-1
EndSplineSet
EndChar

StartChar: V
Encoding: 86 86 57
Width: 1088
Flags: W
LayerCount: 2
Fore
SplineSet
17 1515 m 1,0,-1
 171 1515 l 1,1,-1
 544 259 l 1,2,-1
 917 1515 l 1,3,-1
 1071 1515 l 1,4,-1
 621 0 l 1,5,-1
 467 0 l 1,6,-1
 17 1515 l 1,0,-1
EndSplineSet
EndChar

StartChar: W
Encoding: 87 87 58
Width: 1622
Flags: W
LayerCount: 2
Fore
SplineSet
29 1515 m 1,0,-1
 183 1515 l 1,1,-1
 442 317 l 1,2,-1
 452 317 l 1,3,-1
 726 1515 l 1,4,-1
 896 1515 l 1,5,-1
 1170 317 l 1,6,-1
 1180 317 l 1,7,-1
 1439 1515 l 1,8,-1
 1593 1515 l 1,9,-1
 1242 0 l 1,10,-1
 1090 0 l 1,11,-1
 816 1198 l 1,12,-1
 806 1198 l 1,13,-1
 532 0 l 1,14,-1
 380 0 l 1,15,-1
 29 1515 l 1,0,-1
EndSplineSet
EndChar

StartChar: X
Encoding: 88 88 59
AltUni2: 000425.ffffffff.0 0003a7.ffffffff.0
Width: 1050
Flags: W
LayerCount: 2
Fore
SplineSet
5 0 m 1,0,-1
 442 773 l 1,1,-1
 23 1515 l 1,2,-1
 177 1515 l 1,3,-1
 536 881 l 1,4,-1
 884 1515 l 1,5,-1
 1038 1515 l 1,6,-1
 610 750 l 1,7,-1
 1035 0 l 1,8,-1
 879 0 l 1,9,-1
 520 636 l 1,10,-1
 161 0 l 1,11,-1
 5 0 l 1,0,-1
EndSplineSet
EndChar

StartChar: Y
Encoding: 89 89 60
AltUni2: 0004ae.ffffffff.0 0003d2.ffffffff.0 0003a5.ffffffff.0
Width: 1066
Flags: W
LayerCount: 2
Fore
SplineSet
-3 1515 m 1,0,-1
 151 1515 l 1,1,-1
 533 802 l 1,2,-1
 915 1515 l 1,3,-1
 1069 1515 l 1,4,-1
 607 660 l 1,5,-1
 607 0 l 1,6,-1
 459 0 l 1,7,-1
 459 660 l 1,8,-1
 -3 1515 l 1,0,-1
EndSplineSet
EndChar

StartChar: Z
Encoding: 90 90 61
AltUni2: 000396.ffffffff.0
Width: 1104
Flags: W
LayerCount: 2
Fore
SplineSet
36 0 m 1,0,-1
 36 107 l 1,1,-1
 861 1387 l 1,2,-1
 90 1387 l 1,3,-1
 90 1519 l 1,4,-1
 1042 1515 l 1,5,-1
 1042 1392 l 1,6,-1
 248 142 l 1,7,-1
 1036 142 l 1,8,-1
 1036 0 l 1,9,-1
 36 0 l 1,0,-1
EndSplineSet
EndChar

StartChar: bracketleft
Encoding: 91 91 62
Width: 601
Flags: W
LayerCount: 2
Fore
SplineSet
130 -285 m 1,0,-1
 130 1638 l 1,1,-1
 567 1638 l 1,2,-1
 567 1546 l 1,3,-1
 278 1546 l 1,4,-1
 278 -193 l 1,5,-1
 567 -193 l 1,6,-1
 567 -285 l 1,7,-1
 130 -285 l 1,0,-1
EndSplineSet
EndChar

StartChar: backslash
Encoding: 92 92 63
Width: 933
Flags: W
LayerCount: 2
Fore
SplineSet
39 1528 m 1,0,-1
 147 1579 l 1,1,-1
 891 -12 l 1,2,-1
 782 -63 l 1,3,-1
 39 1528 l 1,0,-1
EndSplineSet
EndChar

StartChar: bracketright
Encoding: 93 93 64
Width: 591
Flags: W
LayerCount: 2
Fore
SplineSet
24 -193 m 1,0,-1
 313 -193 l 1,1,-1
 313 1546 l 1,2,-1
 24 1546 l 1,3,-1
 24 1638 l 1,4,-1
 461 1638 l 1,5,-1
 461 -285 l 1,6,-1
 24 -285 l 1,7,-1
 24 -193 l 1,0,-1
EndSplineSet
EndChar

StartChar: asciicircum
Encoding: 94 94 65
AltUni2: 000302.ffffffff.0 0002c6.ffffffff.0 0002c4.ffffffff.0
Width: 624
Flags: W
LayerCount: 2
Fore
SplineSet
90 1197 m 1,0,-1
 312 1419 l 1,1,-1
 534 1197 l 1,2,-1
 468 1133 l 1,3,-1
 312 1289 l 1,4,-1
 155 1132 l 1,5,-1
 90 1197 l 1,0,-1
EndSplineSet
EndChar

StartChar: underscore
Encoding: 95 95 66
Width: 1112
Flags: W
LayerCount: 2
Fore
SplineSet
92 0 m 1,0,-1
 92 92 l 1,1,-1
 1020 92 l 1,2,-1
 1020 0 l 1,3,-1
 92 0 l 1,0,-1
EndSplineSet
EndChar

StartChar: grave
Encoding: 96 96 67
AltUni2: 002035.ffffffff.0 002018.ffffffff.0 001fef.ffffffff.0
Width: 683
Flags: W
LayerCount: 2
Fore
SplineSet
179 1368 m 1,0,-1
 266 1455 l 1,1,-1
 561 1160 l 1,2,-1
 495 1095 l 1,3,-1
 179 1368 l 1,0,-1
EndSplineSet
EndChar

StartChar: a
Encoding: 97 97 68
AltUni2: 000430.ffffffff.0
Width: 925
Flags: W
LayerCount: 2
Fore
SplineSet
223 374 m 0,0,1
 198 328 198 328 198 254 c 128,-1,2
 198 180 198 180 250 140.5 c 128,-1,3
 302 101 302 101 365.5 101 c 128,-1,4
 429 101 429 101 477.5 120 c 128,-1,5
 526 139 526 139 566 169 c 0,6,7
 639 224 639 224 675 267 c 1,8,-1
 675 584 l 1,9,10
 485 535 485 535 450 524 c 0,11,12
 274 467 274 467 223 374 c 0,0,1
350 611 m 0,13,14
 483 658 483 658 675 696 c 1,15,16
 675 854 675 854 614 907 c 0,17,18
 560 954 560 954 457 954 c 0,19,20
 332 954 332 954 240 858 c 0,21,22
 202 818 202 818 186 788 c 1,23,-1
 91 851 l 1,24,25
 203 1066 203 1066 472 1066 c 0,26,27
 713 1066 713 1066 780 881 c 0,28,29
 807 806 807 806 807 699 c 2,30,-1
 807 150 l 2,31,32
 807 121 807 121 818 71 c 128,-1,33
 829 21 829 21 838 2 c 1,34,-1
 705 2 l 1,35,36
 675 17 675 17 675 170 c 1,37,38
 534 -11 534 -11 364 -11 c 0,39,40
 176 -11 176 -11 103 121 c 0,41,42
 66 188 66 188 66 259.5 c 128,-1,43
 66 331 66 331 84 384.5 c 128,-1,44
 102 438 102 438 140.5 479.5 c 128,-1,45
 179 521 179 521 228 553 c 128,-1,46
 277 585 277 585 350 611 c 0,13,14
EndSplineSet
EndChar

StartChar: b
Encoding: 98 98 69
Width: 995
Flags: W
LayerCount: 2
Fore
SplineSet
253 278 m 1,0,1
 354 140 354 140 431 114 c 0,2,3
 469 102 469 102 528 101 c 128,-1,4
 587 100 587 100 641 132 c 1,5,6
 693 164 693 164 725 220 c 0,7,8
 787 332 787 332 788 510 c 1,9,10
 788 954 788 954 490 954 c 0,11,12
 359 954 359 954 253 803 c 1,13,-1
 253 278 l 1,0,1
253 166 m 1,14,15
 253 12 253 12 228 0 c 1,16,-1
 95 0 l 1,17,18
 121 55 121 55 121 146 c 2,19,-1
 121 1515 l 1,20,-1
 253 1515 l 1,21,-1
 253 917 l 1,22,23
 272 958 272 958 352 1012 c 128,-1,24
 432 1066 432 1066 524 1066 c 0,25,26
 704 1066 704 1066 812 911.5 c 128,-1,27
 920 757 920 757 920 510 c 1,28,29
 919 364 919 364 863 234 c 0,30,31
 761 -6 761 -6 537 -11 c 1,32,33
 390 -8 390 -8 287 118 c 0,34,35
 267 142 267 142 253 166 c 1,14,15
EndSplineSet
EndChar

StartChar: c
Encoding: 99 99 70
AltUni2: 001d9c.ffffffff.0 000441.ffffffff.0
Width: 895
Flags: W
LayerCount: 2
Fore
SplineSet
78 520 m 0,0,1
 78 1066 78 1066 503 1066 c 0,2,3
 608 1066 608 1066 680 1016 c 0,4,5
 751 966 751 966 774 926 c 0,6,7
 814 858 814 858 829 813 c 1,8,-1
 723 765 l 1,9,10
 721 785 721 785 701.5 824 c 128,-1,11
 682 863 682 863 660 888 c 128,-1,12
 638 913 638 913 596.5 933.5 c 128,-1,13
 555 954 555 954 503 954 c 0,14,15
 210 954 210 954 210 529 c 0,16,17
 210 323 210 323 287.5 212 c 128,-1,18
 365 101 365 101 503 101 c 1,19,20
 597 100 597 100 661 174 c 0,21,22
 715 236 715 236 735 286 c 2,23,-1
 744 308 l 1,24,-1
 848 258 l 1,25,26
 848 237 848 237 809.5 179.5 c 128,-1,27
 771 122 771 122 733.5 83.5 c 128,-1,28
 696 45 696 45 634.5 17 c 128,-1,29
 573 -11 573 -11 503 -11 c 0,30,31
 285 -11 285 -11 181.5 128.5 c 128,-1,32
 78 268 78 268 78 520 c 0,0,1
EndSplineSet
EndChar

StartChar: d
Encoding: 100 100 71
Width: 994
Flags: W
LayerCount: 2
Fore
SplineSet
206 510 m 1,0,1
 207 332 207 332 269 220 c 0,2,3
 336 100 336 100 478 101 c 0,4,5
 573 101 573 101 634 155 c 0,6,7
 683 198 683 198 741 278 c 1,8,-1
 741 803 l 1,9,10
 635 954 635 954 504 954 c 0,11,12
 206 954 206 954 206 510 c 1,0,1
741 166 m 1,13,14
 639 -11 639 -11 457 -11 c 0,15,16
 366 -11 366 -11 291 34.5 c 128,-1,17
 216 80 216 80 170 155 c 0,18,19
 74 312 74 312 74 510 c 0,20,21
 74 657 74 657 121.5 783 c 128,-1,22
 169 909 169 909 261 987.5 c 128,-1,23
 353 1066 353 1066 457.5 1066 c 128,-1,24
 562 1066 562 1066 642 1012 c 128,-1,25
 722 958 722 958 741 917 c 1,26,-1
 741 1515 l 1,27,-1
 873 1515 l 1,28,-1
 873 146 l 2,29,30
 873 116 873 116 881.5 67.5 c 128,-1,31
 890 19 890 19 899 0 c 1,32,-1
 766 0 l 1,33,34
 741 12 741 12 741 166 c 1,13,14
EndSplineSet
EndChar

StartChar: e
Encoding: 101 101 72
AltUni2: 000435.ffffffff.0
Width: 918
Flags: W
LayerCount: 2
Fore
SplineSet
214 625 m 1,0,-1
 710 625 l 1,1,2
 708 732 708 732 664 832 c 0,3,4
 640 886 640 886 591.5 920 c 128,-1,5
 543 954 543 954 477.5 954 c 128,-1,6
 412 954 412 954 363.5 930.5 c 128,-1,7
 315 907 315 907 288 873.5 c 128,-1,8
 261 840 261 840 244 792 c 0,9,10
 216 714 216 714 214 625 c 1,0,-1
251 992 m 0,11,12
 287 1019 287 1019 327 1036 c 0,13,14
 398 1066 398 1066 462 1066 c 128,-1,15
 526 1066 526 1066 571 1054.5 c 128,-1,16
 616 1043 616 1043 667.5 1007.5 c 128,-1,17
 719 972 719 972 756 914 c 0,18,19
 842 778 842 778 842 513 c 1,20,-1
 208 513 l 1,21,22
 207 248 207 248 343 150 c 0,23,24
 410 102 410 102 492 101 c 1,25,26
 646 101 646 101 754 292 c 1,27,-1
 845 229 l 1,28,29
 806 157 806 157 743 99 c 0,30,31
 623 -11 623 -11 506 -11 c 128,-1,32
 389 -11 389 -11 307 32 c 128,-1,33
 225 75 225 75 176 148 c 128,-1,34
 127 221 127 221 101.5 311 c 128,-1,35
 76 401 76 401 76 500 c 128,-1,36
 76 599 76 599 90 680.5 c 128,-1,37
 104 762 104 762 127 819 c 128,-1,38
 150 876 150 876 183 920.5 c 128,-1,39
 216 965 216 965 251 992 c 0,11,12
EndSplineSet
EndChar

StartChar: f
Encoding: 102 102 73
AltUni2: 001da0.ffffffff.0
Width: 606
Flags: W
LayerCount: 2
Fore
SplineSet
579 1515 m 1,0,-1
 579 1404 l 1,1,-1
 490 1404 l 2,2,3
 340 1404 340 1404 340 1278 c 2,4,-1
 340 1055 l 1,5,-1
 579 1055 l 1,6,-1
 579 943 l 1,7,-1
 340 943 l 1,8,-1
 340 0 l 1,9,-1
 208 0 l 1,10,-1
 208 943 l 1,11,-1
 35 943 l 1,12,-1
 35 1055 l 1,13,-1
 208 1055 l 1,14,-1
 208 1278 l 2,15,16
 208 1442 208 1442 349 1498 c 0,17,18
 415 1524 415 1524 492.5 1524 c 128,-1,19
 570 1524 570 1524 579 1515 c 1,0,-1
EndSplineSet
EndChar

StartChar: g
Encoding: 103 103 74
Width: 984
Flags: W
LayerCount: 2
Fore
SplineSet
308 880 m 0,0,1
 234 806 234 806 234 689 c 128,-1,2
 234 572 234 572 304 494.5 c 128,-1,3
 374 417 374 417 494.5 417 c 128,-1,4
 615 417 615 417 677.5 496 c 128,-1,5
 740 575 740 575 740 688 c 128,-1,6
 740 801 740 801 678.5 877.5 c 128,-1,7
 617 954 617 954 500 954 c 128,-1,8
 383 954 383 954 308 880 c 0,0,1
170 -169 m 0,9,10
 170 -266 170 -266 276 -302 c 0,11,12
 367 -332 367 -332 446.5 -333 c 128,-1,13
 526 -334 526 -334 552 -333 c 128,-1,14
 578 -332 578 -332 619 -328.5 c 128,-1,15
 660 -325 660 -325 686 -318.5 c 128,-1,16
 712 -312 712 -312 743 -299 c 128,-1,17
 774 -286 774 -286 792 -268 c 0,18,19
 834 -226 834 -226 834 -166 c 128,-1,20
 834 -106 834 -106 794 -70.5 c 128,-1,21
 754 -35 754 -35 692.5 -20 c 128,-1,22
 631 -5 631 -5 571 1.5 c 128,-1,23
 511 8 511 8 456.5 10.5 c 128,-1,24
 402 13 402 13 391 16 c 1,25,26
 284 -24 284 -24 252 -43 c 0,27,28
 170 -91 170 -91 170 -169 c 0,9,10
260 47 m 1,29,30
 178 64 178 64 136 107 c 128,-1,31
 94 150 94 150 94 185.5 c 128,-1,32
 94 221 94 221 108 250 c 0,33,34
 122 280 122 280 148 304 c 0,35,36
 187 339 187 339 253 381 c 1,37,38
 193 432 193 432 147.5 514.5 c 128,-1,39
 102 597 102 597 102 695.5 c 128,-1,40
 102 794 102 794 156.5 881 c 128,-1,41
 211 968 211 968 302.5 1017 c 128,-1,42
 394 1066 394 1066 480 1066 c 128,-1,43
 566 1066 566 1066 618.5 1045 c 128,-1,44
 671 1024 671 1024 731 983 c 1,45,46
 807 1045 807 1045 855 1054 c 0,47,48
 916 1066 916 1066 969 1068 c 1,49,-1
 969 948 l 1,50,-1
 967 948 l 2,51,52
 796 948 796 948 796 917 c 1,53,54
 847 823 847 823 859.5 778.5 c 128,-1,55
 872 734 872 734 872 689 c 0,56,57
 872 528 872 528 768.5 416.5 c 128,-1,58
 665 305 665 305 500 305 c 0,59,60
 413 305 413 305 322 343 c 1,61,62
 314 336 314 336 286 316 c 0,63,64
 226 274 226 274 226 232 c 0,65,66
 226 186 226 186 268 169 c 0,67,68
 300 156 300 156 348 149 c 0,69,70
 394 142 394 142 414 140 c 1,71,72
 434 136 434 136 480 136 c 0,73,74
 590 135 590 135 746 98 c 0,75,76
 843 75 843 75 904.5 6 c 128,-1,77
 966 -63 966 -63 966 -159 c 0,78,79
 966 -445 966 -445 487 -445 c 0,80,81
 318 -445 318 -445 186 -384 c 0,82,83
 119 -353 119 -353 78.5 -297.5 c 128,-1,84
 38 -242 38 -242 38 -188 c 128,-1,85
 38 -134 38 -134 53 -104 c 128,-1,86
 68 -74 68 -74 98.5 -50 c 128,-1,87
 129 -26 129 -26 151.5 -11.5 c 128,-1,88
 174 3 174 3 213 22.5 c 128,-1,89
 252 42 252 42 260 47 c 1,29,30
EndSplineSet
EndChar

StartChar: h
Encoding: 104 104 75
AltUni2: 0002b0.ffffffff.0
Width: 976
Flags: W
LayerCount: 2
Fore
SplineSet
120 0 m 1,0,-1
 120 1515 l 1,1,-1
 252 1515 l 1,2,-1
 252 882 l 1,3,4
 399 1024 399 1024 495 1052 c 0,5,6
 543 1066 543 1066 597 1066 c 0,7,8
 712 1066 712 1066 786 996 c 128,-1,9
 860 926 860 926 860 786 c 2,10,-1
 860 0 l 1,11,-1
 728 0 l 1,12,-1
 728 786 l 2,13,14
 728 861 728 861 674.5 907.5 c 128,-1,15
 621 954 621 954 559 954 c 0,16,17
 411 954 411 954 252 781 c 1,18,-1
 252 0 l 1,19,-1
 120 0 l 1,0,-1
EndSplineSet
EndChar

StartChar: k
Encoding: 107 107 78
Width: 884
Flags: W
LayerCount: 2
Fore
SplineSet
120 0 m 1,0,-1
 120 1515 l 1,1,-1
 261 1515 l 1,2,-1
 261 544 l 1,3,-1
 656 1055 l 1,4,-1
 814 1055 l 1,5,-1
 538 696 l 1,6,-1
 876 0 l 1,7,-1
 730 0 l 1,8,-1
 448 582 l 1,9,-1
 261 350 l 1,10,-1
 261 0 l 1,11,-1
 120 0 l 1,0,-1
EndSplineSet
EndChar

StartChar: l
Encoding: 108 108 79
AltUni2: 0002e1.ffffffff.0
Width: 386
Flags: W
LayerCount: 2
Fore
SplineSet
127 -2 m 1,0,-1
 127 1515 l 1,1,-1
 259 1515 l 1,2,-1
 259 -2 l 1,3,-1
 127 -2 l 1,0,-1
EndSplineSet
EndChar

StartChar: m
Encoding: 109 109 80
Width: 1583
Flags: W
LayerCount: 2
Fore
SplineSet
120 0 m 1,0,-1
 120 1055 l 1,1,-1
 252 1055 l 1,2,-1
 252 881 l 1,3,4
 390 1019 390 1019 495 1051 c 0,5,6
 544 1066 544 1066 618 1066 c 128,-1,7
 692 1066 692 1066 760.5 1018 c 128,-1,8
 829 970 829 970 851 873 c 1,9,10
 996 1018 996 1018 1100 1050 c 0,11,12
 1150 1066 1150 1066 1204 1066 c 0,13,14
 1319 1066 1319 1066 1393 996 c 128,-1,15
 1467 926 1467 926 1467 786 c 2,16,-1
 1467 0 l 1,17,-1
 1335 0 l 1,18,-1
 1335 786 l 2,19,20
 1335 861 1335 861 1281.5 907.5 c 128,-1,21
 1228 954 1228 954 1166 954 c 0,22,23
 1019 954 1019 954 860 781 c 1,24,-1
 860 0 l 1,25,-1
 728 0 l 1,26,-1
 728 786 l 2,27,28
 728 861 728 861 674.5 907.5 c 128,-1,29
 621 954 621 954 559 954 c 0,30,31
 411 954 411 954 252 781 c 1,32,-1
 252 0 l 1,33,-1
 120 0 l 1,0,-1
EndSplineSet
EndChar

StartChar: n
Encoding: 110 110 81
Width: 976
Flags: W
LayerCount: 2
Fore
SplineSet
120 0 m 1,0,-1
 120 1055 l 1,1,-1
 252 1055 l 1,2,-1
 252 882 l 1,3,4
 340 969 340 969 419 1017.5 c 128,-1,5
 498 1066 498 1066 605 1066 c 128,-1,6
 712 1066 712 1066 786 996 c 128,-1,7
 860 926 860 926 860 786 c 2,8,-1
 860 0 l 1,9,-1
 728 0 l 1,10,-1
 728 786 l 2,11,12
 728 861 728 861 674.5 907.5 c 128,-1,13
 621 954 621 954 559 954 c 0,14,15
 411 954 411 954 252 781 c 1,16,-1
 252 0 l 1,17,-1
 120 0 l 1,0,-1
EndSplineSet
EndChar

StartChar: o
Encoding: 111 111 82
AltUni2: 00043e.ffffffff.0 0003bf.ffffffff.0
Width: 975
Flags: W
LayerCount: 2
Fore
SplineSet
208 528 m 1,0,1
 209 211 209 211 373 126 c 0,2,3
 423 100 423 100 488 100 c 128,-1,4
 553 100 553 100 603.5 126 c 128,-1,5
 654 152 654 152 684 193 c 128,-1,6
 714 234 714 234 733 292 c 0,7,8
 766 393 766 393 766 527 c 0,9,10
 766 954 766 954 487 954 c 128,-1,11
 208 954 208 954 208 528 c 1,0,1
488 -12 m 0,12,13
 291 -12 291 -12 182 142 c 0,14,15
 76 293 76 293 76 534.5 c 128,-1,16
 76 776 76 776 184.5 921 c 128,-1,17
 293 1066 293 1066 488 1066 c 128,-1,18
 683 1066 683 1066 790.5 920 c 128,-1,19
 898 774 898 774 898 530 c 128,-1,20
 898 286 898 286 789.5 137 c 128,-1,21
 681 -12 681 -12 488 -12 c 0,12,13
EndSplineSet
EndChar

StartChar: p
Encoding: 112 112 83
AltUni2: 000440.ffffffff.0 0003f1.ffffffff.0 0003c1.ffffffff.0
Width: 1006
Flags: W
LayerCount: 2
Fore
SplineSet
252 254 m 1,0,1
 298 188 298 188 364 144.5 c 128,-1,2
 430 101 430 101 489.5 101 c 128,-1,3
 549 101 549 101 589.5 112.5 c 128,-1,4
 630 124 630 124 669.5 154.5 c 128,-1,5
 709 185 709 185 737 234 c 0,6,7
 799 342 799 342 799 547 c 0,8,9
 799 797 799 797 683 899 c 0,10,11
 621 954 621 954 527 954 c 0,12,13
 401 954 401 954 307 848 c 0,14,15
 283 820 283 820 252 779 c 1,16,-1
 252 254 l 1,0,1
120 -411 m 1,17,-1
 120 1055 l 1,18,-1
 252 1055 l 1,19,-1
 252 891 l 1,20,21
 276 936 276 936 331 981 c 0,22,23
 434 1066 434 1066 548 1066 c 0,24,25
 758 1066 758 1066 868 836 c 0,26,27
 931 704 931 704 931 547 c 0,28,29
 931 272 931 272 796 108 c 0,30,31
 698 -11 698 -11 535 -11 c 0,32,33
 443 -11 443 -11 357 44.5 c 128,-1,34
 271 100 271 100 252 140 c 1,35,-1
 252 -411 l 1,36,-1
 120 -411 l 1,17,-1
EndSplineSet
EndChar

StartChar: q
Encoding: 113 113 84
Width: 1005
Flags: W
LayerCount: 2
Fore
SplineSet
268 234 m 1,0,1
 295 184 295 184 335 154 c 0,2,3
 404 101 404 101 490 101 c 0,4,5
 646 101 646 101 753 254 c 1,6,-1
 753 779 l 1,7,8
 693 861 693 861 649 894 c 1,9,10
 572 954 572 954 478 954 c 128,-1,11
 384 954 384 954 321.5 899 c 128,-1,12
 259 844 259 844 232.5 755 c 128,-1,13
 206 666 206 666 206 554.5 c 128,-1,14
 206 443 206 443 223 363 c 128,-1,15
 240 283 240 283 268 234 c 1,0,1
213 954 m 0,16,17
 311 1066 311 1066 457 1066 c 0,18,19
 600 1066 600 1066 717 939 c 0,20,21
 741 913 741 913 753 891 c 1,22,-1
 770 1055 l 1,23,-1
 885 1055 l 1,24,-1
 885 -411 l 1,25,-1
 753 -411 l 1,26,-1
 753 140 l 1,27,28
 734 100 734 100 648 44.5 c 128,-1,29
 562 -11 562 -11 475.5 -11 c 128,-1,30
 389 -11 389 -11 321.5 21 c 128,-1,31
 254 53 254 53 209 107.5 c 128,-1,32
 164 162 164 162 133 234.5 c 128,-1,33
 102 307 102 307 88 385.5 c 128,-1,34
 74 464 74 464 74 543 c 128,-1,35
 74 622 74 622 89.5 695.5 c 128,-1,36
 105 769 105 769 137 836 c 128,-1,37
 169 903 169 903 213 954 c 0,16,17
EndSplineSet
EndChar

StartChar: r
Encoding: 114 114 85
AltUni2: 0002b3.ffffffff.0
Width: 631
Flags: W
LayerCount: 2
Fore
SplineSet
120 0 m 1,0,-1
 120 1055 l 1,1,-1
 252 1055 l 1,2,-1
 252 771 l 1,3,4
 299 875 299 875 324 914 c 0,5,6
 422 1066 422 1066 578 1066 c 0,7,8
 590 1066 590 1066 614 1064 c 1,9,-1
 614 952 l 1,10,11
 546 943 546 943 501 926.5 c 128,-1,12
 456 910 456 910 413 874 c 0,13,14
 338 812 338 812 252 627 c 1,15,-1
 252 0 l 1,16,-1
 120 0 l 1,0,-1
EndSplineSet
EndChar

StartChar: s
Encoding: 115 115 86
AltUni2: 000455.ffffffff.0 0002e2.ffffffff.0
Width: 838
Flags: W
LayerCount: 2
Fore
SplineSet
62 200 m 1,0,-1
 161 264 l 1,1,2
 214 182 214 182 279 141.5 c 128,-1,3
 344 101 344 101 438 101 c 0,4,5
 536 101 536 101 597 154 c 0,6,7
 648 198 648 198 648 262 c 128,-1,8
 648 326 648 326 626 364 c 128,-1,9
 604 402 604 402 564 426 c 0,10,11
 497 465 497 465 424.5 482 c 128,-1,12
 352 499 352 499 310.5 513.5 c 128,-1,13
 269 528 269 528 225 553 c 128,-1,14
 181 578 181 578 149 609 c 0,15,16
 76 680 76 680 76 796.5 c 128,-1,17
 76 913 76 913 169.5 989.5 c 128,-1,18
 263 1066 263 1066 408 1066 c 0,19,20
 579 1066 579 1066 697 943 c 0,21,22
 719 920 719 920 734 898 c 1,23,-1
 643 830 l 1,24,25
 636 837 636 837 615 859.5 c 128,-1,26
 594 882 594 882 588 888 c 2,27,-1
 562 909 l 1,28,29
 544 926 544 926 532 930 c 2,30,-1
 498 942 l 2,31,32
 466 954 466 954 390 954 c 128,-1,33
 314 954 314 954 259 910.5 c 128,-1,34
 204 867 204 867 204 815 c 128,-1,35
 204 763 204 763 222 731.5 c 128,-1,36
 240 700 240 700 276 677 c 0,37,38
 333 641 333 641 417.5 615.5 c 128,-1,39
 502 590 502 590 518.5 584.5 c 128,-1,40
 535 579 535 579 576.5 562.5 c 128,-1,41
 618 546 618 546 641.5 531 c 128,-1,42
 665 516 665 516 695 492 c 128,-1,43
 725 468 725 468 741 440 c 0,44,45
 780 373 780 373 780 292 c 0,46,47
 780 159 780 159 679 74 c 128,-1,48
 578 -11 578 -11 445 -11 c 128,-1,49
 312 -11 312 -11 221.5 39.5 c 128,-1,50
 131 90 131 90 62 200 c 1,0,-1
EndSplineSet
EndChar

StartChar: t
Encoding: 116 116 87
Width: 618
Flags: W
LayerCount: 2
Fore
SplineSet
40 943 m 1,0,-1
 40 1055 l 1,1,-1
 218 1055 l 1,2,-1
 218 1440 l 1,3,-1
 350 1440 l 1,4,-1
 350 1055 l 1,5,-1
 592 1055 l 1,6,-1
 592 943 l 1,7,-1
 350 943 l 1,8,-1
 350 274 l 2,9,10
 350 173 350 173 381 136 c 128,-1,11
 412 99 412 99 483 99 c 0,12,13
 512 99 512 99 552 104 c 128,-1,14
 592 109 592 109 592 110 c 2,15,-1
 592 11 l 1,16,17
 526 -13 526 -13 463.5 -13 c 128,-1,18
 401 -13 401 -13 378 -10 c 128,-1,19
 355 -7 355 -7 322 9 c 0,20,21
 288 26 288 26 268 54 c 0,22,23
 218 124 218 124 218 274 c 2,24,-1
 218 943 l 1,25,-1
 40 943 l 1,0,-1
EndSplineSet
EndChar

StartChar: u
Encoding: 117 117 88
Width: 975
Flags: W
LayerCount: 2
Fore
SplineSet
115 269 m 2,0,-1
 115 1055 l 1,1,-1
 247 1055 l 1,2,-1
 247 269 l 2,3,4
 247 194 247 194 300.5 147.5 c 128,-1,5
 354 101 354 101 416 101 c 0,6,7
 564 101 564 101 723 274 c 1,8,-1
 723 1055 l 1,9,-1
 855 1055 l 1,10,-1
 855 0 l 1,11,-1
 723 0 l 1,12,-1
 723 174 l 1,13,14
 582 35 582 35 480 4 c 0,15,16
 432 -11 432 -11 378 -11 c 0,17,18
 263 -11 263 -11 189 59 c 128,-1,19
 115 129 115 129 115 269 c 2,0,-1
EndSplineSet
EndChar

StartChar: v
Encoding: 118 118 89
Width: 897
Flags: W
LayerCount: 2
Fore
SplineSet
23 1055 m 1,0,-1
 161 1055 l 1,1,-1
 439 146 l 1,2,-1
 458 146 l 1,3,-1
 736 1055 l 1,4,-1
 874 1055 l 1,5,-1
 550 0 l 1,6,-1
 347 0 l 1,7,-1
 23 1055 l 1,0,-1
EndSplineSet
EndChar

StartChar: w
Encoding: 119 119 90
AltUni2: 0002b7.ffffffff.0
Width: 1322
Flags: W
LayerCount: 2
Fore
SplineSet
29 1055 m 1,0,-1
 152 1055 l 1,1,-1
 384 260 l 1,2,-1
 592 1055 l 1,3,-1
 712 1055 l 1,4,-1
 938 255 l 1,5,-1
 1160 1055 l 1,6,-1
 1295 1055 l 1,7,-1
 994 0 l 1,8,-1
 876 0 l 1,9,-1
 652 809 l 1,10,-1
 451 0 l 1,11,-1
 316 0 l 1,12,-1
 29 1055 l 1,0,-1
EndSplineSet
EndChar

StartChar: x
Encoding: 120 120 91
AltUni2: 000445.ffffffff.0 0003c7.ffffffff.0 0002e3.ffffffff.0
Width: 856
Flags: W
LayerCount: 2
Fore
SplineSet
20 0 m 1,0,-1
 350 544 l 1,1,-1
 30 1055 l 1,2,-1
 178 1055 l 1,3,-1
 423 665 l 1,4,-1
 679 1055 l 1,5,-1
 827 1055 l 1,6,-1
 495 550 l 1,7,-1
 840 0 l 1,8,-1
 692 0 l 1,9,-1
 425 425 l 1,10,-1
 168 0 l 1,11,-1
 20 0 l 1,0,-1
EndSplineSet
EndChar

StartChar: y
Encoding: 121 121 92
AltUni2: 000443.ffffffff.0 0002b8.ffffffff.0
Width: 893
Flags: W
LayerCount: 2
Fore
SplineSet
19 -385 m 1,0,-1
 29 -264 l 1,1,2
 65 -281 65 -281 125 -281 c 128,-1,3
 185 -281 185 -281 224 -265.5 c 128,-1,4
 263 -250 263 -250 288 -225.5 c 128,-1,5
 313 -201 313 -201 333.5 -171.5 c 128,-1,6
 354 -142 354 -142 366 -112 c 0,7,8
 388 -56 388 -56 396 -3 c 1,9,-1
 17 1055 l 1,10,-1
 159 1055 l 1,11,-1
 458 196 l 1,12,-1
 738 1055 l 1,13,-1
 872 1055 l 1,14,-1
 504 -64 l 2,15,16
 448 -235 448 -235 390 -296 c 0,17,18
 328 -362 328 -362 266.5 -377.5 c 128,-1,19
 205 -393 205 -393 142 -393 c 128,-1,20
 79 -393 79 -393 19 -385 c 1,0,-1
EndSplineSet
EndChar

StartChar: z
Encoding: 122 122 93
AltUni2: 001dbb.ffffffff.0
Width: 829
Flags: W
LayerCount: 2
Fore
SplineSet
39 0 m 1,0,-1
 39 85 l 1,1,-1
 599 943 l 1,2,-1
 92 943 l 1,3,-1
 92 1055 l 1,4,-1
 768 1055 l 1,5,-1
 768 981 l 1,6,-1
 200 120 l 1,7,-1
 768 120 l 1,8,-1
 768 0 l 1,9,-1
 39 0 l 1,0,-1
EndSplineSet
EndChar

StartChar: braceleft
Encoding: 123 123 94
Width: 583
Flags: W
LayerCount: 2
Fore
SplineSet
27 614 m 1,0,-1
 27 736 l 1,1,2
 220 736 220 736 220 981 c 0,3,4
 220 1017 220 1017 205 1054 c 0,5,6
 160 1165 160 1165 160 1266 c 0,7,8
 160 1634 160 1634 541 1638 c 1,9,-1
 541 1533 l 1,10,11
 475 1533 475 1533 421 1508 c 0,12,13
 367 1482 367 1482 337 1444 c 0,14,15
 273 1364 273 1364 274 1283 c 0,16,17
 274 1262 274 1262 304 1159.5 c 128,-1,18
 334 1057 334 1057 334 951.5 c 128,-1,19
 334 846 334 846 292 777.5 c 128,-1,20
 250 709 250 709 154 675 c 1,21,22
 250 641 250 641 292 572.5 c 128,-1,23
 334 504 334 504 334 398.5 c 128,-1,24
 334 293 334 293 304 190.5 c 128,-1,25
 274 88 274 88 274 58 c 128,-1,26
 274 28 274 28 290.5 -14 c 128,-1,27
 307 -56 307 -56 337.5 -94.5 c 128,-1,28
 368 -133 368 -133 421.5 -158 c 128,-1,29
 475 -183 475 -183 541 -183 c 1,30,-1
 541 -288 l 1,31,32
 160 -284 160 -284 160 84 c 0,33,34
 160 185 160 185 205 296 c 0,35,36
 220 333 220 333 220 369 c 0,37,38
 220 614 220 614 27 614 c 1,0,-1
EndSplineSet
EndChar

StartChar: bar
Encoding: 124 124 95
AltUni2: 0001c0.ffffffff.0
Width: 410
Flags: W
LayerCount: 2
Fore
SplineSet
131 -132 m 1,0,-1
 131 1563 l 1,1,-1
 279 1563 l 1,2,-1
 279 -132 l 1,3,-1
 131 -132 l 1,0,-1
EndSplineSet
EndChar

StartChar: braceright
Encoding: 125 125 96
Width: 573
Flags: W
LayerCount: 2
Fore
SplineSet
32 -183 m 1,0,1
 98 -183 98 -183 152 -158 c 0,2,3
 206 -132 206 -132 236 -94 c 0,4,5
 300 -14 300 -14 299 67 c 0,6,7
 299 88 299 88 269 190.5 c 128,-1,8
 239 293 239 293 239 398.5 c 128,-1,9
 239 504 239 504 281 572.5 c 128,-1,10
 323 641 323 641 419 675 c 1,11,12
 323 709 323 709 281 777.5 c 128,-1,13
 239 846 239 846 239 951.5 c 128,-1,14
 239 1057 239 1057 269 1159.5 c 128,-1,15
 299 1262 299 1262 299 1292 c 128,-1,16
 299 1322 299 1322 282.5 1364 c 128,-1,17
 266 1406 266 1406 235.5 1444.5 c 128,-1,18
 205 1483 205 1483 151.5 1508 c 128,-1,19
 98 1533 98 1533 32 1533 c 1,20,-1
 32 1638 l 1,21,22
 413 1634 413 1634 413 1266 c 0,23,24
 413 1165 413 1165 368 1054 c 0,25,26
 353 1017 353 1017 353 981 c 0,27,28
 353 736 353 736 546 736 c 1,29,-1
 546 614 l 1,30,31
 353 614 353 614 353 369 c 0,32,33
 353 333 353 333 368 296 c 0,34,35
 413 185 413 185 413 84 c 0,36,37
 413 -284 413 -284 32 -288 c 1,38,-1
 32 -183 l 1,0,1
EndSplineSet
EndChar

StartChar: asciitilde
Encoding: 126 126 97
AltUni2: 000303.ffffffff.0
Width: 789
Flags: W
LayerCount: 2
Fore
SplineSet
92 1182 m 1,0,1
 153 1312 153 1312 267 1312 c 0,2,3
 349 1312 349 1312 407 1255.5 c 128,-1,4
 465 1199 465 1199 528 1199 c 128,-1,5
 591 1199 591 1199 628 1285 c 1,6,-1
 697 1245 l 1,7,8
 635 1115 635 1115 522 1115 c 0,9,10
 442 1115 442 1115 382.5 1171.5 c 128,-1,11
 323 1228 323 1228 260.5 1228 c 128,-1,12
 198 1228 198 1228 161 1142 c 1,13,-1
 92 1182 l 1,0,1
EndSplineSet
EndChar

StartChar: exclamdown
Encoding: 161 161 98
Width: 406
Flags: W
LayerCount: 2
Fore
SplineSet
128 1128 m 1,0,-1
 128 1278 l 1,1,-1
 278 1278 l 1,2,-1
 278 1128 l 1,3,-1
 128 1128 l 1,0,-1
128 -168 m 1,4,-1
 151 978 l 1,5,-1
 255 978 l 1,6,-1
 278 -168 l 1,7,-1
 128 -168 l 1,4,-1
EndSplineSet
EndChar

StartChar: cent
Encoding: 162 162 99
Width: 897
Flags: W
LayerCount: 2
Fore
SplineSet
200 529 m 0,0,1
 200 358 200 358 254.5 251.5 c 128,-1,2
 309 145 309 145 408 113 c 1,3,-1
 408 943 l 1,4,5
 200 890 200 890 200 529 c 0,0,1
408 -5 m 1,6,7
 68 50 68 50 68 529.5 c 128,-1,8
 68 1009 68 1009 408 1060 c 1,9,-1
 408 1281 l 1,10,-1
 540 1281 l 1,11,-1
 540 1063 l 1,12,13
 602 1055 602 1055 653.5 1026.5 c 128,-1,14
 705 998 705 998 734 963 c 0,15,16
 794 891 794 891 812 836 c 1,17,-1
 819 813 l 1,18,-1
 713 765 l 1,19,20
 698 860 698 860 614 918 c 0,21,22
 582 940 582 940 540 949 c 1,23,-1
 540 107 l 1,24,25
 667 140 667 140 734 308 c 1,26,-1
 838 258 l 1,27,28
 838 242 838 242 804 189 c 128,-1,29
 770 136 770 136 738 100 c 0,30,31
 658 10 658 10 540 -8 c 1,32,-1
 540 -236 l 1,33,-1
 408 -236 l 1,34,-1
 408 -5 l 1,6,7
EndSplineSet
EndChar

StartChar: sterling
Encoding: 163 163 100
Width: 1088
Flags: W
LayerCount: 2
Fore
SplineSet
1042 133 m 1,0,1
 981 0 981 0 654 0 c 2,2,-1
 187 0 l 1,3,-1
 187 138 l 1,4,5
 200 172 200 172 209.5 292.5 c 128,-1,6
 219 413 219 413 219 507 c 2,7,-1
 219 633 l 1,8,-1
 84 633 l 1,9,-1
 84 768 l 1,10,-1
 219 768 l 1,11,-1
 219 879 l 1,12,13
 218 1203 218 1203 298 1338 c 0,14,15
 373 1464 373 1464 501 1503 c 0,16,17
 574 1525 574 1525 636 1525 c 0,18,19
 788 1525 788 1525 792 1515 c 1,20,-1
 792 1403 l 1,21,22
 724 1405 724 1405 656 1405 c 128,-1,23
 588 1405 588 1405 524 1376.5 c 128,-1,24
 460 1348 460 1348 423.5 1281.5 c 128,-1,25
 387 1215 387 1215 373 1121 c 128,-1,26
 359 1027 359 1027 359 879 c 2,27,-1
 359 768 l 1,28,-1
 684 768 l 1,29,-1
 684 633 l 1,30,-1
 359 633 l 1,31,-1
 359 507 l 2,32,33
 359 410 359 410 350.5 288 c 128,-1,34
 342 166 342 166 327 138 c 1,35,-1
 654 138 l 2,36,37
 892 138 892 138 954 204 c 0,38,39
 964 215 964 215 964 221 c 1,40,-1
 1042 133 l 1,0,1
EndSplineSet
EndChar

StartChar: currency
Encoding: 164 164 101
Width: 816
Flags: W
LayerCount: 2
Fore
SplineSet
517 857 m 0,0,1
 474 905 474 905 408 905 c 128,-1,2
 342 905 342 905 297 857.5 c 128,-1,3
 252 810 252 810 252 745 c 128,-1,4
 252 680 252 680 296 632 c 128,-1,5
 340 584 340 584 406 584 c 128,-1,6
 472 584 472 584 516.5 632.5 c 128,-1,7
 561 681 561 681 561 745 c 128,-1,8
 561 809 561 809 517 857 c 0,0,1
97 498 m 1,9,-1
 197 598 l 1,10,11
 152 662 152 662 152 744 c 128,-1,12
 152 826 152 826 196 892 c 1,13,-1
 97 991 l 1,14,-1
 162 1056 l 1,15,-1
 260 958 l 1,16,17
 324 1006 324 1006 408 1006 c 128,-1,18
 492 1006 492 1006 555 957 c 1,19,-1
 654 1056 l 1,20,-1
 719 991 l 1,21,-1
 619 891 l 1,22,23
 663 824 663 824 663 744 c 128,-1,24
 663 664 663 664 619 598 c 1,25,-1
 719 498 l 1,26,-1
 654 433 l 1,27,-1
 556 531 l 1,28,29
 490 483 490 483 408 483 c 128,-1,30
 326 483 326 483 260 531 c 1,31,-1
 162 433 l 1,32,-1
 97 498 l 1,9,-1
EndSplineSet
EndChar

StartChar: yen
Encoding: 165 165 102
Width: 1156
Flags: W
LayerCount: 2
Fore
SplineSet
41 1515 m 1,0,-1
 195 1515 l 1,1,-1
 577 802 l 1,2,-1
 959 1515 l 1,3,-1
 1113 1515 l 1,4,-1
 651 660 l 1,5,-1
 891 660 l 1,6,-1
 891 568 l 1,7,-1
 651 568 l 1,8,-1
 651 394 l 1,9,-1
 891 394 l 1,10,-1
 891 302 l 1,11,-1
 651 302 l 1,12,-1
 651 0 l 1,13,-1
 503 0 l 1,14,-1
 503 302 l 1,15,-1
 274 302 l 1,16,-1
 274 394 l 1,17,-1
 503 394 l 1,18,-1
 503 568 l 1,19,-1
 274 568 l 1,20,-1
 274 660 l 1,21,-1
 503 660 l 1,22,-1
 41 1515 l 1,0,-1
EndSplineSet
EndChar

StartChar: brokenbar
Encoding: 166 166 103
Width: 416
Flags: W
LayerCount: 2
Fore
SplineSet
134 778 m 1,0,-1
 134 1563 l 1,1,-1
 282 1563 l 1,2,-1
 282 778 l 1,3,-1
 134 778 l 1,0,-1
134 -132 m 1,4,-1
 134 646 l 1,5,-1
 282 646 l 1,6,-1
 282 -132 l 1,7,-1
 134 -132 l 1,4,-1
EndSplineSet
EndChar

StartChar: section
Encoding: 167 167 104
Width: 896
Flags: W
LayerCount: 2
Fore
SplineSet
240 854 m 1,0,1
 230 829 230 829 230 796 c 128,-1,2
 230 763 230 763 248 731.5 c 128,-1,3
 266 700 266 700 302 677 c 0,4,5
 359 641 359 641 484.5 603 c 128,-1,6
 610 565 610 565 670 529 c 1,7,8
 674 553 674 553 674 586.5 c 128,-1,9
 674 620 674 620 652 658 c 128,-1,10
 630 696 630 696 590 720 c 0,11,12
 523 759 523 759 419 783.5 c 128,-1,13
 315 808 315 808 240 854 c 1,0,1
88 200 m 1,14,-1
 187 264 l 1,15,16
 240 182 240 182 305 141.5 c 128,-1,17
 370 101 370 101 464 101 c 0,18,19
 562 101 562 101 623 154 c 0,20,21
 674 198 674 198 674 262 c 128,-1,22
 674 326 674 326 652 364 c 128,-1,23
 630 402 630 402 590 426 c 0,24,25
 523 465 523 465 450.5 482 c 128,-1,26
 378 499 378 499 336.5 513.5 c 128,-1,27
 295 528 295 528 251 553 c 128,-1,28
 207 578 207 578 175 609 c 0,29,30
 102 680 102 680 102 775 c 128,-1,31
 102 870 102 870 147 937 c 1,32,33
 102 1000 102 1000 102 1078 c 0,34,35
 102 1207 102 1207 195.5 1283.5 c 128,-1,36
 289 1360 289 1360 434 1360 c 0,37,38
 605 1360 605 1360 723 1237 c 0,39,40
 745 1214 745 1214 760 1192 c 1,41,-1
 669 1124 l 1,42,43
 662 1131 662 1131 641 1153.5 c 128,-1,44
 620 1176 620 1176 614 1182 c 2,45,-1
 588 1203 l 1,46,47
 570 1220 570 1220 558 1224 c 2,48,-1
 524 1236 l 2,49,50
 492 1248 492 1248 416 1248 c 128,-1,51
 340 1248 340 1248 285 1204.5 c 128,-1,52
 230 1161 230 1161 230 1109 c 128,-1,53
 230 1057 230 1057 248 1025.5 c 128,-1,54
 266 994 266 994 302 971 c 0,55,56
 359 935 359 935 443.5 909.5 c 128,-1,57
 528 884 528 884 544.5 878.5 c 128,-1,58
 561 873 561 873 602.5 856.5 c 128,-1,59
 644 840 644 840 667.5 825 c 128,-1,60
 691 810 691 810 721 786 c 128,-1,61
 751 762 751 762 767 734 c 0,62,63
 806 667 806 667 806 587 c 128,-1,64
 806 507 806 507 766 440 c 1,65,66
 806 377 806 377 806 292 c 0,67,68
 806 159 806 159 705 74 c 128,-1,69
 604 -11 604 -11 471 -11 c 128,-1,70
 338 -11 338 -11 247.5 39.5 c 128,-1,71
 157 90 157 90 88 200 c 1,14,-1
EndSplineSet
EndChar

StartChar: dieresis
Encoding: 168 168 105
AltUni2: 000308.ffffffff.0
Width: 653
Flags: W
LayerCount: 2
Fore
SplineSet
411 1203 m 1,0,-1
 411 1353 l 1,1,-1
 561 1353 l 1,2,-1
 561 1203 l 1,3,-1
 411 1203 l 1,0,-1
92 1203 m 1,4,-1
 92 1353 l 1,5,-1
 242 1353 l 1,6,-1
 242 1203 l 1,7,-1
 92 1203 l 1,4,-1
EndSplineSet
EndChar

StartChar: copyright
Encoding: 169 169 106
Width: 1144
Flags: W
LayerCount: 2
Fore
SplineSet
419 936 m 0,0,1
 472 1028 472 1028 574 1028 c 0,2,3
 670 1028 670 1028 727 919 c 0,4,5
 740 894 740 894 750 859 c 1,6,-1
 684 846 l 1,7,8
 667 912 667 912 649 928 c 0,9,10
 615 957 615 957 577.5 957 c 128,-1,11
 540 957 540 957 515 944.5 c 128,-1,12
 490 932 490 932 476 912 c 128,-1,13
 462 892 462 892 454 862 c 0,14,15
 442 816 442 816 442 753.5 c 128,-1,16
 442 691 442 691 448 654 c 128,-1,17
 454 617 454 617 468 586 c 0,18,19
 496 523 496 523 574 523 c 0,20,21
 673 523 673 523 692 634 c 1,22,-1
 758 626 l 1,23,24
 756 598 756 598 726 549 c 0,25,26
 668 453 668 453 574 453 c 0,27,28
 505 453 505 453 457.5 497.5 c 128,-1,29
 410 542 410 542 390.5 605 c 128,-1,30
 371 668 371 668 371 731 c 128,-1,31
 371 794 371 794 383 844 c 128,-1,32
 395 894 395 894 419 936 c 0,0,1
286 1029 m 0,33,34
 167 911 167 911 167 744 c 128,-1,35
 167 577 167 577 286 458.5 c 128,-1,36
 405 340 405 340 572 340 c 128,-1,37
 739 340 739 340 857.5 458.5 c 128,-1,38
 976 577 976 577 976 744 c 128,-1,39
 976 911 976 911 857.5 1029.5 c 128,-1,40
 739 1148 739 1148 572 1148 c 128,-1,41
 405 1148 405 1148 286 1029 c 0,33,34
240 412 m 256,42,43
 102 550 102 550 102 744 c 128,-1,44
 102 938 102 938 240 1076 c 128,-1,45
 378 1214 378 1214 572 1214 c 128,-1,46
 766 1214 766 1214 904 1076 c 128,-1,47
 1042 938 1042 938 1042 744 c 128,-1,48
 1042 550 1042 550 904 412 c 128,-1,49
 766 274 766 274 572 274 c 128,-1,50
 378 274 378 274 240 412 c 256,42,43
EndSplineSet
EndChar

StartChar: guillemotleft
Encoding: 171 171 108
Width: 698
Flags: W
LayerCount: 2
Fore
SplineSet
321 1276 m 1,0,-1
 543 1498 l 1,1,-1
 607 1432 l 1,2,-1
 451 1276 l 1,3,-1
 608 1119 l 1,4,-1
 543 1054 l 1,5,-1
 321 1276 l 1,0,-1
53 1276 m 1,6,-1
 275 1498 l 1,7,-1
 339 1432 l 1,8,-1
 183 1276 l 1,9,-1
 340 1119 l 1,10,-1
 275 1054 l 1,11,-1
 53 1276 l 1,6,-1
EndSplineSet
EndChar

StartChar: logicalnot
Encoding: 172 172 109
Width: 1170
Flags: W
LayerCount: 2
Fore
SplineSet
119 704 m 1,0,-1
 119 796 l 1,1,-1
 1047 795 l 1,2,-1
 1047 366 l 1,3,-1
 955 366 l 1,4,-1
 955 703 l 1,5,-1
 119 704 l 1,0,-1
EndSplineSet
EndChar

StartChar: uni00AD
Encoding: 173 173 110
Width: 1152
Flags: W
LayerCount: 2
Fore
SplineSet
112 694 m 1,0,-1
 112 786 l 1,1,-1
 1040 786 l 1,2,-1
 1040 694 l 1,3,-1
 112 694 l 1,0,-1
EndSplineSet
EndChar

StartChar: registered
Encoding: 174 174 111
Width: 1149
Flags: W
LayerCount: 2
Fore
SplineSet
484 765 m 1,0,-1
 606 765 l 2,1,2
 692 765 692 765 692 854 c 0,3,4
 692 898 692 898 661 913.5 c 128,-1,5
 630 929 630 929 573 929 c 2,6,-1
 484 929 l 1,7,-1
 484 765 l 1,0,-1
413 500 m 1,8,-1
 413 992 l 1,9,-1
 625 992 l 2,10,11
 690 992 690 992 726 947.5 c 128,-1,12
 762 903 762 903 762 854.5 c 128,-1,13
 762 806 762 806 739.5 764.5 c 128,-1,14
 717 723 717 723 668 713 c 1,15,-1
 761 500 l 1,16,-1
 685 500 l 1,17,-1
 595 702 l 1,18,-1
 484 702 l 1,19,-1
 484 500 l 1,20,-1
 413 500 l 1,8,-1
289 1023 m 256,21,22
 171 907 171 907 171 744 c 128,-1,23
 171 581 171 581 290 465 c 128,-1,24
 409 349 409 349 574.5 349 c 128,-1,25
 740 349 740 349 858.5 464.5 c 128,-1,26
 977 580 977 580 977 744.5 c 128,-1,27
 977 909 977 909 859 1024 c 128,-1,28
 741 1139 741 1139 574 1139 c 128,-1,29
 407 1139 407 1139 289 1023 c 256,21,22
103 744 m 0,30,31
 103 935 103 935 241 1070.5 c 128,-1,32
 379 1206 379 1206 574 1206 c 0,33,34
 771 1206 771 1206 907 1072 c 0,35,36
 970 1010 970 1010 1007.5 924.5 c 128,-1,37
 1045 839 1045 839 1045 728 c 128,-1,38
 1045 617 1045 617 981.5 510.5 c 128,-1,39
 918 404 918 404 809.5 343 c 128,-1,40
 701 282 701 282 574 282 c 128,-1,41
 447 282 447 282 338.5 344 c 128,-1,42
 230 406 230 406 166.5 512.5 c 128,-1,43
 103 619 103 619 103 744 c 0,30,31
EndSplineSet
EndChar

StartChar: macron
Encoding: 175 175 112
Width: 707
Flags: W
LayerCount: 2
Fore
SplineSet
90 1231 m 1,0,-1
 90 1323 l 1,1,-1
 617 1323 l 1,2,-1
 617 1231 l 1,3,-1
 90 1231 l 1,0,-1
EndSplineSet
EndChar

StartChar: degree
Encoding: 176 176 113
AltUni2: 00030a.ffffffff.0
Width: 646
Flags: W
LayerCount: 2
Fore
SplineSet
210 1353 m 0,0,1
 164 1307 164 1307 164 1242 c 128,-1,2
 164 1177 164 1177 210.5 1130.5 c 128,-1,3
 257 1084 257 1084 322 1084 c 128,-1,4
 387 1084 387 1084 433.5 1130.5 c 128,-1,5
 480 1177 480 1177 480 1242 c 128,-1,6
 480 1307 480 1307 433.5 1353.5 c 128,-1,7
 387 1400 387 1400 322 1400 c 128,-1,8
 257 1400 257 1400 210 1353 c 0,0,1
142 1061 m 1,9,10
 68 1136 68 1136 68 1242 c 128,-1,11
 68 1348 68 1348 142.5 1422.5 c 128,-1,12
 217 1497 217 1497 323 1497 c 128,-1,13
 429 1497 429 1497 503.5 1422.5 c 128,-1,14
 578 1348 578 1348 578 1242 c 128,-1,15
 578 1136 578 1136 503.5 1061.5 c 128,-1,16
 429 987 429 987 323 987 c 128,-1,17
 217 987 217 987 142 1061 c 1,9,10
EndSplineSet
EndChar

StartChar: plusminus
Encoding: 177 177 114
Width: 765
Flags: W
LayerCount: 2
Fore
SplineSet
119 817 m 1,0,-1
 119 909 l 1,1,-1
 337 909 l 1,2,-1
 337 1127 l 1,3,-1
 429 1127 l 1,4,-1
 429 909 l 1,5,-1
 646 909 l 1,6,-1
 646 817 l 1,7,-1
 429 817 l 1,8,-1
 429 599 l 1,9,-1
 337 599 l 1,10,-1
 337 817 l 1,11,-1
 119 817 l 1,0,-1
119 414 m 1,12,-1
 119 506 l 1,13,-1
 646 506 l 1,14,-1
 646 414 l 1,15,-1
 119 414 l 1,12,-1
EndSplineSet
EndChar

StartChar: acute
Encoding: 180 180 117
AltUni2: 001ffd.ffffffff.0 000341.ffffffff.0 000301.ffffffff.0
Width: 683
Flags: W
LayerCount: 2
Fore
SplineSet
122 1160 m 1,0,-1
 417 1455 l 1,1,-1
 504 1368 l 1,2,-1
 188 1095 l 1,3,-1
 122 1160 l 1,0,-1
EndSplineSet
EndChar

StartChar: uni00B5
Encoding: 181 181 118
Width: 965
Flags: W
LayerCount: 2
Fore
SplineSet
127 -411 m 1,0,-1
 127 1055 l 1,1,-1
 259 1055 l 1,2,-1
 259 269 l 2,3,4
 259 194 259 194 312.5 147.5 c 128,-1,5
 366 101 366 101 428 101 c 0,6,7
 576 101 576 101 735 274 c 1,8,-1
 735 1055 l 1,9,-1
 867 1055 l 1,10,-1
 867 0 l 1,11,-1
 735 0 l 1,12,-1
 735 174 l 1,13,14
 594 35 594 35 492 4 c 0,15,16
 444 -11 444 -11 382 -11 c 128,-1,17
 320 -11 320 -11 263 15 c 1,18,-1
 263 -411 l 1,19,-1
 127 -411 l 1,0,-1
EndSplineSet
EndChar

StartChar: paragraph
Encoding: 182 182 119
Width: 1125
Flags: W
LayerCount: 2
Fore
SplineSet
603 816 m 1,0,-1
 821 816 l 1,1,-1
 821 1391 l 1,2,-1
 603 1391 l 1,3,-1
 603 816 l 1,0,-1
455 825 m 1,4,-1
 455 1382 l 1,5,6
 339 1362 339 1362 272 1293.5 c 128,-1,7
 205 1225 205 1225 205 1105 c 128,-1,8
 205 985 205 985 271.5 915 c 128,-1,9
 338 845 338 845 455 825 c 1,4,-1
192 1423 m 0,10,11
 293 1515 293 1515 461 1515 c 2,12,-1
 969 1515 l 1,13,-1
 969 0 l 1,14,-1
 821 0 l 1,15,-1
 821 692 l 1,16,-1
 603 692 l 1,17,-1
 603 0 l 1,18,-1
 455 0 l 1,19,-1
 455 692 l 1,20,21
 348 692 348 692 268 729 c 128,-1,22
 188 766 188 766 143.5 828.5 c 128,-1,23
 99 891 99 891 78 963.5 c 128,-1,24
 57 1036 57 1036 57 1102.5 c 128,-1,25
 57 1169 57 1169 70.5 1222.5 c 128,-1,26
 84 1276 84 1276 115.5 1329 c 128,-1,27
 147 1382 147 1382 192 1423 c 0,10,11
EndSplineSet
EndChar

StartChar: periodcentered
Encoding: 183 183 120
AltUni2: 000387.ffffffff.0
Width: 375
Flags: W
LayerCount: 2
Fore
SplineSet
112 786 m 1,0,-1
 112 936 l 1,1,-1
 262 936 l 1,2,-1
 262 786 l 1,3,-1
 112 786 l 1,0,-1
EndSplineSet
EndChar

StartChar: cedilla
Encoding: 184 184 121
AltUni2: 000327.ffffffff.0
Width: 350
Flags: W
LayerCount: 2
Fore
SplineSet
254 -183 m 0,0,1
 254 -303 254 -303 40 -303 c 2,2,-1
 22 -303 l 1,3,-1
 22 -227 l 1,4,5
 175 -227 175 -227 175 -183 c 0,6,7
 175 -96 175 -96 96 0 c 1,8,-1
 186 0 l 1,9,10
 194 -14 194 -14 198 -18 c 0,11,12
 210 -33 210 -33 218 -49 c 2,13,-1
 229 -70 l 1,14,15
 254 -120 254 -120 254 -183 c 0,0,1
EndSplineSet
EndChar

StartChar: ordmasculine
Encoding: 186 186 123
Width: 504
Flags: W
LayerCount: 2
Fore
SplineSet
147 1286 m 0,0,1
 147 1120 147 1120 251.5 1120 c 128,-1,2
 356 1120 356 1120 356 1286 c 0,3,4
 356 1369 356 1369 332.5 1410.5 c 128,-1,5
 309 1452 309 1452 252 1452 c 128,-1,6
 195 1452 195 1452 171 1411 c 128,-1,7
 147 1370 147 1370 147 1286 c 0,0,1
252 1057 m 256,8,9
 170 1057 170 1057 123.5 1121 c 128,-1,10
 77 1185 77 1185 77 1288.5 c 128,-1,11
 77 1392 77 1392 123 1453.5 c 128,-1,12
 169 1515 169 1515 252 1515 c 128,-1,13
 335 1515 335 1515 380.5 1453 c 128,-1,14
 426 1391 426 1391 426 1287.5 c 128,-1,15
 426 1184 426 1184 380 1120.5 c 128,-1,16
 334 1057 334 1057 252 1057 c 256,8,9
EndSplineSet
EndChar

StartChar: guillemotright
Encoding: 187 187 124
Width: 698
Flags: W
LayerCount: 2
Fore
SplineSet
358 1119 m 1,0,-1
 515 1276 l 1,1,-1
 359 1432 l 1,2,-1
 423 1498 l 1,3,-1
 645 1276 l 1,4,-1
 423 1054 l 1,5,-1
 358 1119 l 1,0,-1
90 1119 m 1,6,-1
 247 1276 l 1,7,-1
 91 1432 l 1,8,-1
 155 1498 l 1,9,-1
 377 1276 l 1,10,-1
 155 1054 l 1,11,-1
 90 1119 l 1,6,-1
EndSplineSet
EndChar

StartChar: questiondown
Encoding: 191 191 128
Width: 796
Flags: W
LayerCount: 2
Fore
SplineSet
412 1347 m 1,0,-1
 412 1497 l 1,1,-1
 562 1497 l 1,2,-1
 562 1347 l 1,3,-1
 412 1347 l 1,0,-1
188 672 m 1,4,-1
 290 792 l 1,5,6
 414 933 414 933 415 1028 c 1,7,-1
 415 1177 l 1,8,-1
 547 1177 l 1,9,-1
 547 1028 l 2,10,11
 547 911 547 911 424 764 c 2,12,-1
 322 642 l 2,13,14
 199 494 199 494 199.5 377 c 128,-1,15
 200 260 200 260 261.5 187.5 c 128,-1,16
 323 115 323 115 395 115 c 0,17,18
 498 115 498 115 555.5 147.5 c 128,-1,19
 613 180 613 180 652 258 c 1,20,-1
 742 201 l 1,21,22
 692 108 692 108 601 54 c 128,-1,23
 510 0 510 0 395 0 c 0,24,25
 245 0 245 0 154 109 c 128,-1,26
 63 218 63 218 63.5 369.5 c 128,-1,27
 64 521 64 521 188 672 c 1,4,-1
EndSplineSet
EndChar

StartChar: AE
Encoding: 198 198 135
AltUni2: 0004d4.ffffffff.0
Width: 1575
Flags: W
LayerCount: 2
Fore
SplineSet
344 602 m 1,0,-1
 671 602 l 1,1,-1
 671 1389 l 1,2,-1
 563 1389 l 1,3,-1
 344 602 l 1,0,-1
23 0 m 1,4,-1
 455 1515 l 1,5,-1
 1492 1515 l 1,6,-1
 1492 1391 l 1,7,-1
 819 1391 l 1,8,-1
 819 858 l 1,9,-1
 1302 858 l 1,10,-1
 1302 734 l 1,11,-1
 819 734 l 1,12,-1
 819 133 l 1,13,-1
 1530 133 l 1,14,-1
 1530 0 l 1,15,-1
 671 0 l 1,16,-1
 671 478 l 1,17,-1
 310 478 l 1,18,-1
 177 0 l 1,19,-1
 23 0 l 1,4,-1
EndSplineSet
EndChar

StartChar: Eth
Encoding: 208 208 145
AltUni2: 000189.ffffffff.0
Width: 1251
Flags: W
LayerCount: 2
Fore
SplineSet
300 124 m 1,0,-1
 513 124 l 2,1,2
 769 124 769 124 899 296 c 0,3,4
 1023 461 1023 461 1023 745 c 0,5,6
 1023 1179 1023 1179 803 1319 c 0,7,8
 690 1391 690 1391 513 1391 c 2,9,-1
 300 1391 l 1,10,-1
 300 812 l 1,11,-1
 624 812 l 1,12,-1
 624 676 l 1,13,-1
 300 676 l 1,14,-1
 300 124 l 1,0,-1
24 676 m 1,15,-1
 24 812 l 1,16,-1
 152 812 l 1,17,-1
 152 1515 l 1,18,-1
 513 1515 l 2,19,20
 668 1515 668 1515 786 1472 c 128,-1,21
 904 1429 904 1429 976 1358.5 c 128,-1,22
 1048 1288 1048 1288 1093 1186 c 0,23,24
 1171 1008 1171 1008 1171 745 c 0,25,26
 1171 351 1171 351 953 150 c 0,27,28
 791 0 791 0 513 0 c 2,29,-1
 152 0 l 1,30,-1
 152 676 l 1,31,-1
 24 676 l 1,15,-1
EndSplineSet
EndChar

StartChar: multiply
Encoding: 215 215 152
Width: 727
Flags: W
LayerCount: 2
Fore
SplineSet
103 544 m 1,0,-1
 299 740 l 1,1,-1
 103 937 l 1,2,-1
 168 1002 l 1,3,-1
 364 805 l 1,4,-1
 559 1001 l 1,5,-1
 624 936 l 1,6,-1
 429 740 l 1,7,-1
 625 544 l 1,8,-1
 560 479 l 1,9,-1
 364 675 l 1,10,-1
 168 479 l 1,11,-1
 103 544 l 1,0,-1
EndSplineSet
EndChar

StartChar: Oslash
Encoding: 216 216 153
Width: 1275
Flags: W
LayerCount: 2
Fore
SplineSet
399 204 m 1,0,1
 500 108 500 108 643 108 c 0,2,3
 732 108 732 108 803 147.5 c 128,-1,4
 874 187 874 187 918 250 c 128,-1,5
 962 313 962 313 992 399 c 0,6,7
 1044 552 1044 552 1044.5 779.5 c 128,-1,8
 1045 1007 1045 1007 964 1183 c 1,9,-1
 399 204 l 1,0,1
315 322 m 1,10,-1
 883 1306 l 1,11,12
 786 1408 786 1408 643 1408 c 0,13,14
 386 1408 386 1408 286 1130 c 0,15,16
 230 973 230 973 230 732.5 c 128,-1,17
 230 492 230 492 315 322 c 1,10,-1
643 1532 m 0,18,19
 817 1532 817 1532 949 1420 c 1,20,-1
 1023 1549 l 1,21,-1
 1137 1483 l 1,22,-1
 1040 1316 l 1,23,24
 1115 1205 1115 1205 1154 1055.5 c 128,-1,25
 1193 906 1193 906 1192.5 771 c 128,-1,26
 1192 636 1192 636 1173.5 528 c 128,-1,27
 1155 420 1155 420 1112 320 c 128,-1,28
 1069 220 1069 220 1006.5 146 c 128,-1,29
 944 72 944 72 850.5 28 c 128,-1,30
 757 -16 757 -16 643 -16 c 0,31,32
 468 -16 468 -16 335 94 c 1,33,-1
 259 -38 l 1,34,-1
 144 28 l 1,35,-1
 241 196 l 1,36,37
 163 305 163 305 122.5 451.5 c 128,-1,38
 82 598 82 598 82 733 c 128,-1,39
 82 868 82 868 101 977 c 128,-1,40
 120 1086 120 1086 163 1188 c 128,-1,41
 206 1290 206 1290 269.5 1365.5 c 128,-1,42
 333 1441 333 1441 429 1486.5 c 128,-1,43
 525 1532 525 1532 643 1532 c 0,18,19
EndSplineSet
EndChar

StartChar: Thorn
Encoding: 222 222 159
Width: 1111
Flags: W
LayerCount: 2
Fore
SplineSet
292 481 m 1,0,-1
 572 481 l 2,1,2
 734 481 734 481 831.5 552 c 128,-1,3
 929 623 929 623 929 769 c 128,-1,4
 929 915 929 915 831 985.5 c 128,-1,5
 733 1056 733 1056 572 1056 c 2,6,-1
 292 1056 l 1,7,-1
 292 481 l 1,0,-1
144 0 m 1,8,-1
 144 1515 l 1,9,-1
 292 1515 l 1,10,-1
 292 1180 l 1,11,-1
 673 1180 l 2,12,13
 908 1180 908 1180 1018 994 c 0,14,15
 1076 896 1076 896 1077 798.5 c 128,-1,16
 1078 701 1078 701 1055.5 628.5 c 128,-1,17
 1033 556 1033 556 987.5 493.5 c 128,-1,18
 942 431 942 431 861 394 c 128,-1,19
 780 357 780 357 673 357 c 2,20,-1
 292 357 l 1,21,-1
 292 0 l 1,22,-1
 144 0 l 1,8,-1
EndSplineSet
EndChar

StartChar: germandbls
Encoding: 223 223 160
Width: 1126
Flags: W
LayerCount: 2
Fore
SplineSet
120 0 m 1,0,-1
 120 879 l 2,1,2
 120 1186 120 1186 156 1286 c 0,3,4
 203 1416 203 1416 278 1461 c 0,5,6
 382 1525 382 1525 537.5 1525 c 128,-1,7
 693 1525 693 1525 786.5 1440 c 128,-1,8
 880 1355 880 1355 880 1243.5 c 128,-1,9
 880 1132 880 1132 826 1058 c 128,-1,10
 772 984 772 984 692 953 c 0,11,12
 675 946 675 946 644.5 935 c 128,-1,13
 614 924 614 924 602 919 c 128,-1,14
 590 914 590 914 570 904 c 1,15,16
 550 896 550 896 542 888 c 1,17,18
 536 880 536 880 526 868 c 0,19,20
 510 848 510 848 510 805.5 c 128,-1,21
 510 763 510 763 528 731.5 c 128,-1,22
 546 700 546 700 582 677 c 0,23,24
 639 641 639 641 723.5 615.5 c 128,-1,25
 808 590 808 590 824.5 584.5 c 128,-1,26
 841 579 841 579 882.5 562.5 c 128,-1,27
 924 546 924 546 947.5 531 c 128,-1,28
 971 516 971 516 1001 492 c 128,-1,29
 1031 468 1031 468 1047 440 c 0,30,31
 1086 373 1086 373 1086 292 c 0,32,33
 1086 159 1086 159 985 74 c 128,-1,34
 884 -11 884 -11 755 -11 c 128,-1,35
 626 -11 626 -11 548 28 c 128,-1,36
 470 67 470 67 404 173 c 1,37,-1
 503 237 l 1,38,39
 555 156 555 156 602 128.5 c 128,-1,40
 649 101 649 101 744 101 c 0,41,42
 842 101 842 101 903 154 c 0,43,44
 954 198 954 198 954 262 c 128,-1,45
 954 326 954 326 932 364 c 128,-1,46
 910 402 910 402 870 426 c 0,47,48
 803 465 803 465 730.5 482 c 128,-1,49
 658 499 658 499 616.5 513.5 c 128,-1,50
 575 528 575 528 531 553 c 128,-1,51
 487 578 487 578 455 609 c 0,52,53
 382 680 382 680 382 784 c 0,54,55
 382 910 382 910 450 972 c 0,56,57
 511 1027 511 1027 632 1061 c 0,58,59
 726 1087 726 1087 746 1153 c 0,60,61
 756 1184 756 1184 755 1229 c 1,62,63
 755 1312 755 1312 691.5 1358.5 c 128,-1,64
 628 1405 628 1405 549 1405 c 128,-1,65
 470 1405 470 1405 421.5 1385.5 c 128,-1,66
 373 1366 373 1366 341 1328 c 0,67,68
 310 1290 310 1290 292 1225 c 0,69,70
 260 1106 260 1106 260 879 c 2,71,-1
 260 0 l 1,72,-1
 120 0 l 1,0,-1
EndSplineSet
EndChar

StartChar: ae
Encoding: 230 230 167
AltUni2: 0004d5.ffffffff.0
Width: 1513
Flags: W
LayerCount: 2
Fore
SplineSet
809 625 m 1,0,-1
 1305 625 l 1,1,2
 1303 732 1303 732 1259 832 c 0,3,4
 1235 886 1235 886 1186.5 920 c 128,-1,5
 1138 954 1138 954 1072.5 954 c 128,-1,6
 1007 954 1007 954 958.5 930.5 c 128,-1,7
 910 907 910 907 883 873.5 c 128,-1,8
 856 840 856 840 839 792 c 0,9,10
 811 714 811 714 809 625 c 1,0,-1
223 374 m 0,11,12
 198 328 198 328 198 254 c 128,-1,13
 198 180 198 180 250 140.5 c 128,-1,14
 302 101 302 101 363 101 c 128,-1,15
 424 101 424 101 468 117.5 c 128,-1,16
 512 134 512 134 546 156 c 128,-1,17
 580 178 580 178 614 208 c 0,18,19
 663 251 663 251 698 294 c 1,20,21
 672 363 672 363 672 474 c 0,22,23
 672 504 672 504 673.5 538 c 128,-1,24
 675 572 675 572 675 584 c 1,25,26
 485 535 485 535 450 524 c 0,27,28
 274 467 274 467 223 374 c 0,11,12
350 611 m 0,29,30
 483 658 483 658 675 696 c 1,31,32
 675 854 675 854 614 907 c 0,33,34
 560 954 560 954 457 954 c 0,35,36
 332 954 332 954 240 858 c 0,37,38
 202 818 202 818 186 788 c 1,39,-1
 91 851 l 1,40,41
 203 1066 203 1066 472 1066 c 0,42,43
 693 1066 693 1066 768 909 c 1,44,45
 872 1066 872 1066 1071 1066 c 0,46,47
 1255 1066 1255 1066 1351 914 c 0,48,49
 1437 778 1437 778 1437 513 c 1,50,-1
 803 513 l 1,51,52
 802 248 802 248 938 150 c 0,53,54
 1005 102 1005 102 1073 101.5 c 128,-1,55
 1141 101 1141 101 1189.5 123.5 c 128,-1,56
 1238 146 1238 146 1270 180 c 0,57,58
 1332 246 1332 246 1350 292 c 1,59,-1
 1440 229 l 1,60,61
 1403 155 1403 155 1339 97 c 0,62,63
 1220 -11 1220 -11 1091 -11 c 128,-1,64
 962 -11 962 -11 869 53.5 c 128,-1,65
 776 118 776 118 724 232 c 1,66,67
 561 -11 561 -11 364 -11 c 0,68,69
 176 -11 176 -11 103 121 c 0,70,71
 66 188 66 188 66 259.5 c 128,-1,72
 66 331 66 331 84 384.5 c 128,-1,73
 102 438 102 438 140.5 479.5 c 128,-1,74
 179 521 179 521 228 553 c 128,-1,75
 277 585 277 585 350 611 c 0,29,30
EndSplineSet
EndChar

StartChar: eth
Encoding: 240 240 177
AltUni2: 001d9e.ffffffff.0
Width: 993
Flags: W
LayerCount: 2
Fore
SplineSet
207 528 m 0,0,1
 207 212 207 212 371 127 c 0,2,3
 421 101 421 101 486.5 101 c 128,-1,4
 552 101 552 101 602.5 127 c 128,-1,5
 653 153 653 153 683 194 c 0,6,7
 713 234 713 234 732 292 c 0,8,9
 765 392 765 392 765 527 c 0,10,11
 765 954 765 954 486 954 c 128,-1,12
 207 954 207 954 207 528 c 0,0,1
532 1515 m 1,13,14
 582 1484 582 1484 657 1392 c 1,15,-1
 819 1486 l 1,16,-1
 865 1406 l 1,17,-1
 710 1316 l 1,18,19
 897 1015 897 1015 897 527 c 0,20,21
 897 198 897 198 709 58 c 0,22,23
 615 -12 615 -12 487 -11 c 1,24,25
 293 -11 293 -11 184 139.5 c 128,-1,26
 75 290 75 290 75 533 c 128,-1,27
 75 776 75 776 183.5 921 c 128,-1,28
 292 1066 292 1066 487 1066 c 0,29,30
 634 1066 634 1066 719 996 c 1,31,32
 640 1202 640 1202 621 1239 c 2,33,-1
 611 1258 l 1,34,-1
 408 1142 l 1,35,-1
 362 1222 l 1,36,-1
 561 1336 l 1,37,38
 504 1413 504 1413 449.5 1463 c 128,-1,39
 395 1513 395 1513 393 1515 c 1,40,-1
 532 1515 l 1,13,14
EndSplineSet
EndChar

StartChar: divide
Encoding: 247 247 184
Width: 747
Flags: W
LayerCount: 2
Fore
SplineSet
299 936 m 1,0,-1
 299 1086 l 1,1,-1
 449 1086 l 1,2,-1
 449 936 l 1,3,-1
 299 936 l 1,0,-1
299 394 m 1,4,-1
 299 544 l 1,5,-1
 449 544 l 1,6,-1
 449 394 l 1,7,-1
 299 394 l 1,4,-1
110 694 m 1,8,-1
 110 786 l 1,9,-1
 637 786 l 1,10,-1
 637 694 l 1,11,-1
 110 694 l 1,8,-1
EndSplineSet
EndChar

StartChar: oslash
Encoding: 248 248 185
Width: 975
Flags: W
LayerCount: 2
Fore
SplineSet
333 152 m 1,0,1
 398 100 398 100 475.5 100 c 128,-1,2
 553 100 553 100 603.5 126 c 128,-1,3
 654 152 654 152 684 193 c 128,-1,4
 714 234 714 234 733 292 c 0,5,6
 766 393 766 393 766 551 c 128,-1,7
 766 709 766 709 716 815 c 1,8,-1
 333 152 l 1,0,1
208 528 m 0,9,10
 208 376 208 376 249 271 c 1,11,-1
 624 920 l 1,12,13
 566 954 566 954 488 954 c 0,14,15
 208 954 208 954 208 528 c 0,9,10
178 148 m 1,16,17
 76 296 76 296 76 536 c 128,-1,18
 76 776 76 776 184.5 921 c 128,-1,19
 293 1066 293 1066 488 1066 c 0,20,21
 595 1066 595 1066 681 1018 c 1,22,-1
 729 1102 l 1,23,-1
 843 1036 l 1,24,-1
 783 930 l 1,25,26
 898 782 898 782 898 534 c 128,-1,27
 898 286 898 286 789.5 137 c 128,-1,28
 681 -12 681 -12 488 -12 c 0,29,30
 369 -12 369 -12 275 51 c 1,31,-1
 225 -36 l 1,32,-1
 110 30 l 1,33,-1
 178 148 l 1,16,17
EndSplineSet
EndChar

StartChar: thorn
Encoding: 254 254 191
Width: 1006
Flags: W
LayerCount: 2
Fore
SplineSet
252 254 m 1,0,1
 298 188 298 188 364 144.5 c 128,-1,2
 430 101 430 101 489.5 101 c 128,-1,3
 549 101 549 101 589.5 112.5 c 128,-1,4
 630 124 630 124 669.5 154.5 c 128,-1,5
 709 185 709 185 737 234 c 0,6,7
 799 342 799 342 799 547 c 0,8,9
 800 797 800 797 684 899 c 0,10,11
 622 954 622 954 527 954 c 0,12,13
 402 954 402 954 308 848 c 0,14,15
 284 820 284 820 252 779 c 1,16,-1
 252 254 l 1,0,1
120 -411 m 1,17,-1
 120 1515 l 1,18,-1
 252 1515 l 1,19,-1
 252 891 l 1,20,21
 276 936 276 936 331 981 c 0,22,23
 434 1066 434 1066 548 1066 c 0,24,25
 758 1066 758 1066 868 836 c 0,26,27
 931 704 931 704 931 547 c 0,28,29
 931 272 931 272 796 108 c 0,30,31
 698 -11 698 -11 535 -11 c 0,32,33
 443 -11 443 -11 357 44.5 c 128,-1,34
 271 100 271 100 252 140 c 1,35,-1
 252 -411 l 1,36,-1
 120 -411 l 1,17,-1
EndSplineSet
EndChar

StartChar: dotlessi
Encoding: 305 305 242
Width: 386
Flags: W
LayerCount: 2
Fore
SplineSet
127 -2 m 1,0,-1
 127 1055 l 1,1,-1
 259 1055 l 1,2,-1
 259 -2 l 1,3,-1
 127 -2 l 1,0,-1
EndSplineSet
EndChar

StartChar: kgreenlandic
Encoding: 312 312 249
AltUni2: 0003f0.ffffffff.0 0003ba.ffffffff.0
Width: 814
Flags: W
LayerCount: 2
Fore
SplineSet
120 2 m 1,0,-1
 120 1055 l 1,1,-1
 252 1055 l 1,2,-1
 252 549 l 1,3,-1
 634 1055 l 1,4,-1
 768 1055 l 1,5,-1
 464 657 l 1,6,-1
 806 2 l 1,7,-1
 664 0 l 1,8,-1
 384 553 l 1,9,-1
 252 377 l 1,10,-1
 252 2 l 1,11,-1
 120 2 l 1,0,-1
EndSplineSet
EndChar

StartChar: Eng
Encoding: 330 330 267
Width: 1283
Flags: W
LayerCount: 2
Fore
SplineSet
144 0 m 1,0,-1
 144 1515 l 1,1,-1
 380 1515 l 1,2,-1
 991 361 l 1,3,-1
 991 1515 l 1,4,-1
 1139 1515 l 1,5,-1
 1139 0 l 2,6,7
 1139 -164 1139 -164 1097 -236 c 0,8,9
 1065 -291 1065 -291 1036.5 -305 c 128,-1,10
 1008 -319 1008 -319 990 -325 c 0,11,12
 952 -338 952 -338 832 -338 c 1,13,-1
 824 -226 l 1,14,15
 921 -226 921 -226 964 -191 c 128,-1,16
 1007 -156 1007 -156 1007 -10 c 2,17,-1
 1007 9 l 1,18,-1
 292 1368 l 1,19,-1
 292 0 l 1,20,-1
 144 0 l 1,0,-1
EndSplineSet
EndChar

StartChar: eng
Encoding: 331 331 268
Width: 976
Flags: W
LayerCount: 2
Fore
SplineSet
120 0 m 1,0,-1
 120 1055 l 1,1,-1
 252 1055 l 1,2,-1
 252 882 l 1,3,4
 340 969 340 969 419 1017.5 c 128,-1,5
 498 1066 498 1066 605 1066 c 128,-1,6
 712 1066 712 1066 786 996 c 128,-1,7
 860 926 860 926 860 786 c 2,8,-1
 860 0 l 2,9,10
 860 -168 860 -168 818 -236 c 0,11,12
 785 -290 785 -290 757.5 -304 c 128,-1,13
 730 -318 730 -318 712 -324 c 0,14,15
 696 -330 696 -330 666 -333 c 0,16,17
 626 -337 626 -337 591.5 -337 c 128,-1,18
 557 -337 557 -337 553 -337 c 1,19,-1
 545 -225 l 1,20,21
 642 -225 642 -225 685 -191.5 c 128,-1,22
 728 -158 728 -158 728 0 c 2,23,-1
 728 786 l 2,24,25
 728 861 728 861 674.5 907.5 c 128,-1,26
 621 954 621 954 559 954 c 0,27,28
 411 954 411 954 252 781 c 1,29,-1
 252 0 l 1,30,-1
 120 0 l 1,0,-1
EndSplineSet
EndChar

StartChar: OE
Encoding: 338 338 275
Width: 1697
Flags: W
LayerCount: 2
Fore
SplineSet
230 752 m 0,0,1
 230 238 230 238 521 156 c 0,2,3
 603 133 603 133 730 133 c 0,4,5
 740 133 740 133 759.5 133 c 128,-1,6
 779 133 779 133 793 133 c 1,7,-1
 793 1391 l 1,8,9
 638 1390 638 1390 580 1381 c 0,10,11
 403 1352 403 1352 316.5 1204.5 c 128,-1,12
 230 1057 230 1057 230 752 c 0,0,1
643 1515 m 2,13,-1
 1614 1515 l 1,14,-1
 1614 1391 l 1,15,-1
 941 1391 l 1,16,-1
 941 858 l 1,17,-1
 1424 858 l 1,18,-1
 1424 734 l 1,19,-1
 941 734 l 1,20,-1
 941 133 l 1,21,-1
 1652 133 l 1,22,-1
 1652 0 l 1,23,-1
 643 0 l 2,24,25
 532 0 532 0 438 43 c 128,-1,26
 344 86 344 86 279.5 159 c 128,-1,27
 215 232 215 232 169.5 329 c 128,-1,28
 124 426 124 426 103 533 c 128,-1,29
 82 640 82 640 82 753.5 c 128,-1,30
 82 867 82 867 101 973.5 c 128,-1,31
 120 1080 120 1080 163 1179.5 c 128,-1,32
 206 1279 206 1279 269.5 1353 c 128,-1,33
 333 1427 333 1427 429 1471 c 128,-1,34
 525 1515 525 1515 643 1515 c 2,13,-1
EndSplineSet
EndChar

StartChar: oe
Encoding: 339 339 276
Width: 1607
Flags: W
LayerCount: 2
Fore
SplineSet
903 625 m 1,0,-1
 1399 625 l 1,1,2
 1397 732 1397 732 1353 832 c 0,3,4
 1329 886 1329 886 1280.5 920 c 128,-1,5
 1232 954 1232 954 1166.5 954 c 128,-1,6
 1101 954 1101 954 1052.5 930.5 c 128,-1,7
 1004 907 1004 907 977 873.5 c 128,-1,8
 950 840 950 840 933 792 c 0,9,10
 905 714 905 714 903 625 c 1,0,-1
207 528 m 1,11,12
 208 211 208 211 372 126 c 0,13,14
 422 100 422 100 487 100 c 128,-1,15
 552 100 552 100 602.5 126 c 128,-1,16
 653 152 653 152 683 193 c 128,-1,17
 713 234 713 234 732 292 c 0,18,19
 765 393 765 393 765 527 c 0,20,21
 765 954 765 954 486 954 c 128,-1,22
 207 954 207 954 207 528 c 1,11,12
487 1066 m 0,23,24
 604 1066 604 1066 692.5 1010 c 128,-1,25
 781 954 781 954 831 852 c 1,26,27
 909 1017 909 1017 1078 1056 c 0,28,29
 1121 1066 1121 1066 1168 1066 c 128,-1,30
 1215 1066 1215 1066 1260 1054.5 c 128,-1,31
 1305 1043 1305 1043 1356.5 1007.5 c 128,-1,32
 1408 972 1408 972 1445 914 c 0,33,34
 1531 778 1531 778 1531 513 c 1,35,-1
 897 513 l 1,36,37
 896 248 896 248 1032 150 c 0,38,39
 1099 102 1099 102 1181 101 c 1,40,41
 1335 101 1335 101 1443 292 c 1,42,-1
 1534 229 l 1,43,44
 1495 157 1495 157 1432 99 c 0,45,46
 1312 -11 1312 -11 1181 -11 c 0,47,48
 945 -11 945 -11 831 205 c 1,49,50
 779 102 779 102 691.5 45 c 128,-1,51
 604 -12 604 -12 496.5 -12 c 128,-1,52
 389 -12 389 -12 310.5 29 c 128,-1,53
 232 70 232 70 181 142 c 0,54,55
 75 293 75 293 75 534.5 c 128,-1,56
 75 776 75 776 183.5 921 c 128,-1,57
 292 1066 292 1066 487 1066 c 0,23,24
EndSplineSet
EndChar

StartChar: Tbar
Encoding: 358 358 295
Width: 1074
Flags: W
LayerCount: 2
Fore
SplineSet
31 1391 m 1,0,-1
 31 1515 l 1,1,-1
 1043 1515 l 1,2,-1
 1043 1391 l 1,3,-1
 611 1391 l 1,4,-1
 611 885 l 1,5,-1
 832 885 l 1,6,-1
 832 773 l 1,7,-1
 611 773 l 1,8,-1
 611 0 l 1,9,-1
 463 0 l 1,10,-1
 463 773 l 1,11,-1
 239 773 l 1,12,-1
 239 885 l 1,13,-1
 463 885 l 1,14,-1
 463 1391 l 1,15,-1
 31 1391 l 1,0,-1
EndSplineSet
EndChar

StartChar: longs
Encoding: 383 383 320
Width: 466
Flags: W
LayerCount: 2
Fore
SplineSet
35 943 m 1,0,-1
 35 1055 l 1,1,-1
 208 1055 l 1,2,3
 221 1336 221 1336 337 1438 c 0,4,5
 436 1524 436 1524 626 1525 c 1,6,-1
 626 1405 l 1,7,8
 492 1404 492 1404 427 1328 c 0,9,10
 346 1233 346 1233 346 879 c 2,11,-1
 346 0 l 1,12,-1
 207 0 l 1,13,-1
 207 943 l 1,14,-1
 35 943 l 1,0,-1
EndSplineSet
EndChar

StartChar: uni0181
Encoding: 385 385 322
Width: 1215
Flags: W
LayerCount: 2
Fore
SplineSet
360 850 m 1,0,-1
 685 853 l 2,1,2
 827 854 827 854 897 924 c 0,3,4
 927 954 927 954 949.5 1012.5 c 128,-1,5
 972 1071 972 1071 972 1152 c 0,6,7
 972 1269 972 1269 898.5 1330 c 128,-1,8
 825 1391 825 1391 685 1391 c 2,9,-1
 360 1391 l 1,10,-1
 360 850 l 1,0,-1
360 124 m 1,11,-1
 685 124 l 2,12,13
 847 124 847 124 923 192 c 0,14,15
 955 220 955 220 978 276.5 c 128,-1,16
 1001 333 1001 333 1001 410 c 0,17,18
 1001 552 1001 552 914 639 c 128,-1,19
 827 726 827 726 685 726 c 2,20,-1
 360 726 l 1,21,-1
 360 124 l 1,11,-1
19 1350 m 0,22,23
 19 1442 19 1442 67.5 1478.5 c 128,-1,24
 116 1515 116 1515 212 1515 c 2,25,-1
 685 1515 l 2,26,27
 868 1515 868 1515 987 1410.5 c 128,-1,28
 1106 1306 1106 1306 1106 1152 c 0,29,30
 1106 898 1106 898 928 826 c 0,31,32
 897 814 897 814 851 800 c 1,33,34
 1015 758 1015 758 1097 603 c 0,35,36
 1141 518 1141 518 1141 410 c 0,37,38
 1141 223 1141 223 1024 111.5 c 128,-1,39
 907 0 907 0 685 0 c 2,40,-1
 212 0 l 1,41,-1
 212 1419 l 1,42,43
 153 1419 153 1419 137 1405.5 c 128,-1,44
 121 1392 121 1392 121 1345.5 c 128,-1,45
 121 1299 121 1299 127 1277 c 1,46,-1
 25 1290 l 1,47,48
 19 1316 19 1316 19 1350 c 0,22,23
EndSplineSet
EndChar

StartChar: uni0182
Encoding: 386 386 323
Width: 1125
Flags: W
LayerCount: 2
Fore
SplineSet
292 124 m 1,0,-1
 617 124 l 2,1,2
 779 124 779 124 855 192 c 0,3,4
 887 220 887 220 910 276.5 c 128,-1,5
 933 333 933 333 933 410 c 0,6,7
 933 552 933 552 846 639 c 128,-1,8
 759 726 759 726 617 726 c 2,9,-1
 292 726 l 1,10,-1
 292 124 l 1,0,-1
144 0 m 1,11,-1
 144 1515 l 1,12,-1
 1050 1515 l 1,13,-1
 1050 1391 l 1,14,-1
 292 1391 l 1,15,-1
 292 850 l 1,16,-1
 617 853 l 2,17,18
 621 853 621 853 624 853 c 0,19,20
 809 853 809 853 936 750 c 0,21,22
 1073 639 1073 639 1073 410 c 0,23,24
 1073 223 1073 223 956 111.5 c 128,-1,25
 839 0 839 0 617 0 c 2,26,-1
 144 0 l 1,11,-1
EndSplineSet
EndChar

StartChar: uni0184
Encoding: 388 388 325
Width: 1107
Flags: W
LayerCount: 2
Fore
SplineSet
280 531 m 0,0,1
 276 516 276 516 279 470.5 c 128,-1,2
 282 425 282 425 305.5 354 c 128,-1,3
 329 283 329 283 361.5 239 c 128,-1,4
 394 195 394 195 437 166 c 0,5,6
 514 114 514 114 589 114 c 128,-1,7
 664 114 664 114 716 134 c 128,-1,8
 768 154 768 154 816 195 c 0,9,10
 920 285 920 285 928 478 c 1,11,12
 928 634 928 634 840.5 725 c 128,-1,13
 753 816 753 816 611 816 c 0,14,15
 472 816 472 816 380 723 c 0,16,17
 312 654 312 654 280 531 c 0,0,1
134 678 m 2,18,-1
 134 1515 l 1,19,-1
 264 1515 l 1,20,-1
 264 744 l 1,21,22
 265 745 265 745 276.5 762 c 128,-1,23
 288 779 288 779 296.5 790 c 128,-1,24
 305 801 305 801 323.5 821 c 128,-1,25
 342 841 342 841 360 855.5 c 128,-1,26
 378 870 378 870 405.5 887 c 128,-1,27
 433 904 433 904 462 914 c 0,28,29
 532 940 532 940 611 940 c 0,30,31
 814 940 814 940 940 813.5 c 128,-1,32
 1066 687 1066 687 1066 478 c 1,33,34
 1062 334 1062 334 992 212 c 0,35,36
 914 74 914 74 776 19 c 0,37,38
 700 -11 700 -11 610 -11 c 0,39,40
 387 -11 387 -11 260.5 170 c 128,-1,41
 134 351 134 351 134 678 c 2,18,-1
EndSplineSet
EndChar

StartChar: uni0185
Encoding: 389 389 326
Width: 1081
Flags: W
LayerCount: 2
Fore
SplineSet
246 447 m 0,0,1
 242 432 242 432 244 397 c 128,-1,2
 246 362 246 362 269 306.5 c 128,-1,3
 292 251 292 251 325 216 c 128,-1,4
 358 181 358 181 402 157 c 0,5,6
 480 114 480 114 551.5 114 c 128,-1,7
 623 114 623 114 661 119.5 c 128,-1,8
 699 125 699 125 743 144 c 0,9,10
 787 162 787 162 817 194 c 0,11,12
 888 269 888 269 894 417 c 1,13,14
 894 571 894 571 808 651.5 c 128,-1,15
 722 732 722 732 577 732 c 0,16,17
 438 732 438 732 346 639 c 0,18,19
 278 570 278 570 246 447 c 0,0,1
100 594 m 2,20,-1
 100 1515 l 1,21,-1
 230 1515 l 1,22,-1
 230 660 l 1,23,24
 242 703 242 703 282 741 c 1,25,26
 320 779 320 779 358 802 c 0,27,28
 446 856 446 856 577 856 c 0,29,30
 782 856 782 856 907 740 c 128,-1,31
 1032 624 1032 624 1032 417 c 1,32,33
 1025 198 1025 198 869 76 c 0,34,35
 757 -12 757 -12 576 -11 c 1,36,37
 344 -11 344 -11 222 133 c 128,-1,38
 100 277 100 277 100 594 c 2,20,-1
EndSplineSet
EndChar

StartChar: uni0187
Encoding: 391 391 328
Width: 1212
Flags: W
LayerCount: 2
Fore
SplineSet
1033 1243 m 1,0,1
 1020 1328 1020 1328 1045 1377 c 0,2,3
 1057 1401 1057 1401 1079 1413.5 c 128,-1,4
 1101 1426 1101 1426 1149 1414 c 128,-1,5
 1197 1402 1197 1402 1218 1390 c 1,6,-1
 1231 1491 l 1,7,8
 1198 1509 1198 1509 1142 1519.5 c 128,-1,9
 1086 1530 1086 1530 1047.5 1508 c 128,-1,10
 1009 1486 1009 1486 990.5 1449 c 128,-1,11
 972 1412 972 1412 968 1367 c 0,12,13
 962 1305 962 1305 965 1266 c 1,14,-1
 1033 1243 l 1,0,1
1027 1262 m 0,15,16
 1072 1162 1072 1162 1084 1112 c 2,17,-1
 1090 1088 l 1,18,-1
 1090 1087 l 1,19,-1
 938 1046 l 1,20,21
 922 1160 922 1160 897.5 1212.5 c 128,-1,22
 873 1265 873 1265 848.5 1298.5 c 128,-1,23
 824 1332 824 1332 794 1355 c 0,24,25
 724 1408 724 1408 624 1408 c 0,26,27
 234 1408 234 1408 234 759 c 0,28,29
 234 481 234 481 316 305 c 0,30,31
 360 212 360 212 438 160 c 128,-1,32
 516 108 516 108 609 108 c 128,-1,33
 702 108 702 108 764 135.5 c 128,-1,34
 826 163 826 163 862 202.5 c 128,-1,35
 898 242 898 242 922 294 c 0,36,37
 963 381 963 381 966 463 c 1,38,-1
 1112 440 l 1,39,40
 1108 429 1108 429 1093.5 386 c 128,-1,41
 1079 343 1079 343 1069 316 c 128,-1,42
 1059 289 1059 289 1036.5 242.5 c 128,-1,43
 1014 196 1014 196 991.5 165 c 128,-1,44
 969 134 969 134 931.5 96.5 c 128,-1,45
 894 59 894 59 852 37 c 0,46,47
 751 -16 751 -16 645 -16 c 128,-1,48
 539 -16 539 -16 466.5 8 c 128,-1,49
 394 32 394 32 340 73.5 c 128,-1,50
 286 115 286 115 242.5 173.5 c 128,-1,51
 199 232 199 232 170 299.5 c 128,-1,52
 141 367 141 367 122 444.5 c 128,-1,53
 103 522 103 522 94.5 600 c 128,-1,54
 86 678 86 678 86 775.5 c 128,-1,55
 86 873 86 873 103.5 980.5 c 128,-1,56
 121 1088 121 1088 162 1189.5 c 128,-1,57
 203 1291 203 1291 264 1366 c 128,-1,58
 325 1441 325 1441 417.5 1486.5 c 128,-1,59
 510 1532 510 1532 606 1532 c 128,-1,60
 702 1532 702 1532 769.5 1507.5 c 128,-1,61
 837 1483 837 1483 883 1444 c 128,-1,62
 929 1405 929 1405 967 1357.5 c 128,-1,63
 1005 1310 1005 1310 1027 1262 c 0,15,16
EndSplineSet
EndChar

StartChar: uni0188
Encoding: 392 392 329
Width: 957
Flags: W
LayerCount: 2
Fore
SplineSet
750 864 m 1,0,1
 747 903 747 903 753 965 c 0,2,3
 757 1010 757 1010 775.5 1047 c 128,-1,4
 794 1084 794 1084 832.5 1106 c 128,-1,5
 871 1128 871 1128 927 1117.5 c 128,-1,6
 983 1107 983 1107 1016 1089 c 1,7,-1
 1003 988 l 1,8,9
 982 1000 982 1000 934 1012 c 128,-1,10
 886 1024 886 1024 864 1011.5 c 128,-1,11
 842 999 842 999 830 975 c 0,12,13
 805 926 805 926 818 841 c 1,14,-1
 750 864 l 1,0,1
78 520 m 0,15,16
 78 1066 78 1066 503 1066 c 0,17,18
 608 1066 608 1066 680 1016 c 0,19,20
 751 966 751 966 774 926 c 0,21,22
 814 858 814 858 829 813 c 1,23,-1
 723 765 l 1,24,25
 721 785 721 785 701.5 824 c 128,-1,26
 682 863 682 863 660 888 c 128,-1,27
 638 913 638 913 596.5 933.5 c 128,-1,28
 555 954 555 954 503 954 c 0,29,30
 210 954 210 954 210 529 c 0,31,32
 210 323 210 323 287.5 212 c 128,-1,33
 365 101 365 101 503 101 c 1,34,35
 597 100 597 100 661 174 c 0,36,37
 715 236 715 236 735 286 c 2,38,-1
 744 308 l 1,39,-1
 848 258 l 1,40,41
 848 237 848 237 809.5 179.5 c 128,-1,42
 771 122 771 122 733.5 83.5 c 128,-1,43
 696 45 696 45 634.5 17 c 128,-1,44
 573 -11 573 -11 503 -11 c 0,45,46
 285 -11 285 -11 181.5 128.5 c 128,-1,47
 78 268 78 268 78 520 c 0,15,16
EndSplineSet
EndChar

StartChar: uni018A
Encoding: 394 394 330
Width: 1265
Flags: W
LayerCount: 2
Fore
SplineSet
274 1419 m 1,0,1
 195 1454 195 1454 142 1443 c 0,2,3
 115 1438 115 1438 97.5 1419.5 c 128,-1,4
 80 1401 80 1401 79 1352 c 128,-1,5
 78 1303 78 1303 85 1278 c 1,6,-1
 -17 1292 l 1,7,8
 -35 1366 -35 1366 -10 1431 c 0,9,10
 1 1460 1 1460 21 1480 c 128,-1,11
 41 1500 41 1500 74 1509 c 128,-1,12
 107 1518 107 1518 136.5 1517.5 c 128,-1,13
 166 1517 166 1517 198 1509 c 1,14,15
 242 1501 242 1501 269 1490 c 1,16,-1
 274 1419 l 1,0,1
320 124 m 1,17,-1
 533 124 l 2,18,19
 861 124 861 124 977 403 c 0,20,21
 1035 543 1035 543 1035 745 c 0,22,23
 1035 1104 1035 1104 897 1257 c 0,24,25
 843 1316 843 1316 750.5 1353.5 c 128,-1,26
 658 1391 658 1391 533 1391 c 2,27,-1
 320 1391 l 1,28,-1
 320 124 l 1,17,-1
172 0 m 1,29,-1
 172 1515 l 1,30,-1
 533 1515 l 2,31,32
 1035 1515 1035 1515 1147 1069 c 0,33,34
 1183 925 1183 925 1183 775 c 128,-1,35
 1183 625 1183 625 1162 519 c 0,36,37
 1141 412 1141 412 1093 316 c 128,-1,38
 1045 220 1045 220 971 151 c 0,39,40
 810 0 810 0 533 0 c 2,41,-1
 172 0 l 1,29,-1
EndSplineSet
EndChar

StartChar: uni018B
Encoding: 395 395 331
Width: 1220
Flags: W
LayerCount: 2
Fore
SplineSet
422 163 m 0,0,1
 536 124 536 124 715 124 c 2,2,-1
 928 124 l 1,3,-1
 928 931 l 1,4,-1
 715 931 l 2,5,6
 500 931 500 931 392 874 c 0,7,8
 281 816 281 816 247 728 c 0,9,10
 213 642 213 642 213 558 c 128,-1,11
 213 474 213 474 217.5 432 c 128,-1,12
 222 390 222 390 235.5 346.5 c 128,-1,13
 249 303 249 303 271.5 271 c 128,-1,14
 294 239 294 239 332 210 c 128,-1,15
 370 181 370 181 422 163 c 0,0,1
65 517 m 0,16,17
 65 632 65 632 81 709 c 128,-1,18
 97 786 97 786 140 854 c 0,19,20
 184 922 184 922 256 964 c 0,21,22
 410 1054 410 1054 715 1055 c 1,23,-1
 928 1055 l 1,24,-1
 928 1389 l 1,25,-1
 170 1389 l 1,26,-1
 170 1515 l 1,27,-1
 1076 1515 l 1,28,-1
 1076 0 l 1,29,-1
 715 0 l 2,30,31
 361 0 361 0 209 142 c 0,32,33
 65 276 65 276 65 517 c 0,16,17
EndSplineSet
EndChar

StartChar: uni018E
Encoding: 398 398 334
Width: 1047
Flags: W
LayerCount: 2
Fore
SplineSet
44 0 m 1,0,-1
 44 133 l 1,1,-1
 755 133 l 1,2,-1
 755 734 l 1,3,-1
 272 734 l 1,4,-1
 272 858 l 1,5,-1
 755 858 l 1,6,-1
 755 1391 l 1,7,-1
 82 1391 l 1,8,-1
 82 1515 l 1,9,-1
 903 1515 l 1,10,-1
 903 0 l 1,11,-1
 44 0 l 1,0,-1
EndSplineSet
EndChar

StartChar: uni0190
Encoding: 400 400 336
Width: 1077
Flags: W
LayerCount: 2
Fore
SplineSet
80 417 m 0,0,1
 80 648 80 648 317 792 c 1,2,3
 186 878 186 878 144 1036 c 0,4,5
 130 1090 130 1090 129 1149 c 1,6,7
 129 1250 129 1250 188.5 1337.5 c 128,-1,8
 248 1425 248 1425 346 1476 c 128,-1,9
 444 1527 444 1527 575.5 1527 c 128,-1,10
 707 1527 707 1527 822 1468.5 c 128,-1,11
 937 1410 937 1410 1010 1326 c 1,12,-1
 914 1233 l 1,13,14
 867 1294 867 1294 771 1339 c 128,-1,15
 675 1384 675 1384 563 1384 c 128,-1,16
 451 1384 451 1384 360.5 1319.5 c 128,-1,17
 270 1255 270 1255 270 1137 c 128,-1,18
 270 1019 270 1019 339.5 940.5 c 128,-1,19
 409 862 409 862 542 862 c 2,20,-1
 755 862 l 1,21,-1
 755 721 l 1,22,-1
 542 721 l 2,23,24
 398 721 398 721 310 636.5 c 128,-1,25
 222 552 222 552 222 407 c 0,26,27
 222 317 222 317 272 253 c 0,28,29
 367 132 367 132 570 132 c 0,30,31
 661 132 661 132 734 160 c 1,32,33
 806 190 806 190 840 218 c 0,34,35
 877 249 877 249 950 324 c 1,36,-1
 1051 237 l 1,37,38
 856 -11 856 -11 570 -11 c 0,39,40
 348 -11 348 -11 214 99 c 128,-1,41
 80 209 80 209 80 417 c 0,0,1
EndSplineSet
EndChar

StartChar: uni0191
Encoding: 401 401 337
Width: 1059
Flags: W
LayerCount: 2
Fore
SplineSet
41 -53 m 1,0,1
 84 -74 84 -74 140 -73 c 1,2,3
 212 -73 212 -73 212 0 c 2,4,-1
 212 1515 l 1,5,-1
 1033 1515 l 1,6,-1
 1033 1391 l 1,7,-1
 360 1391 l 1,8,-1
 360 858 l 1,9,-1
 843 858 l 1,10,-1
 843 734 l 1,11,-1
 360 734 l 1,12,-1
 360 0 l 2,13,14
 360 -92 360 -92 309.5 -134 c 128,-1,15
 259 -176 259 -176 139 -176 c 0,16,17
 83 -176 83 -176 36 -155 c 1,18,-1
 41 -53 l 1,0,1
EndSplineSet
EndChar

StartChar: florin
Encoding: 402 402 338
Width: 605
Flags: W
LayerCount: 2
Fore
SplineSet
-32 -225 m 1,0,1
 -23 -234 -23 -234 50 -234 c 0,2,3
 339 -234 339 -234 339 0 c 2,4,-1
 339 943 l 1,5,-1
 578 943 l 1,6,-1
 578 1055 l 1,7,-1
 339 1055 l 1,8,-1
 339 1278 l 2,9,10
 339 1358 339 1358 390 1383 c 0,11,12
 432 1404 432 1404 489 1404 c 2,13,-1
 578 1404 l 1,14,-1
 578 1515 l 1,15,16
 569 1524 569 1524 514 1524 c 128,-1,17
 459 1524 459 1524 424 1519 c 128,-1,18
 389 1514 389 1514 348 1498 c 128,-1,19
 307 1482 307 1482 277 1456 c 0,20,21
 207 1396 207 1396 207 1278 c 2,22,-1
 207 1055 l 1,23,-1
 34 1055 l 1,24,-1
 34 943 l 1,25,-1
 207 943 l 1,26,-1
 207 0 l 2,27,28
 207 -87 207 -87 137 -105 c 0,29,30
 102 -114 102 -114 57 -114 c 2,31,-1
 -32 -114 l 1,32,-1
 -32 -225 l 1,0,1
EndSplineSet
EndChar

StartChar: uni0194
Encoding: 404 404 340
Width: 934
Flags: W
LayerCount: 2
Fore
SplineSet
41 1514 m 1,0,-1
 179 1514 l 1,1,2
 173 1508 173 1508 173 1475.5 c 128,-1,3
 173 1443 173 1443 207 1305.5 c 128,-1,4
 241 1168 241 1168 311 1000 c 1,5,-1
 466 666 l 1,6,-1
 622 1000 l 1,7,8
 735 1269 735 1269 760 1451 c 0,9,10
 768 1511 768 1511 754 1514 c 1,11,-1
 892 1514 l 1,12,13
 897 1509 897 1509 897 1478.5 c 128,-1,14
 897 1448 897 1448 864.5 1309 c 128,-1,15
 832 1170 832 1170 766 1000 c 1,16,-1
 569 550 l 1,17,18
 642 502 642 502 697.5 420 c 128,-1,19
 753 338 753 338 753 261 c 0,20,21
 753 144 753 144 670 66.5 c 128,-1,22
 587 -11 587 -11 467 -11 c 128,-1,23
 347 -11 347 -11 264 66.5 c 128,-1,24
 181 144 181 144 181 261 c 0,25,26
 181 338 181 338 236.5 420 c 128,-1,27
 292 502 292 502 365 550 c 1,28,-1
 169 1000 l 1,29,30
 103 1170 103 1170 69 1310 c 0,31,32
 24 1499 24 1499 41 1514 c 1,0,-1
466 460 m 256,33,34
 395 460 395 460 346.5 400.5 c 128,-1,35
 298 341 298 341 298 267.5 c 128,-1,36
 298 194 298 194 345 150.5 c 128,-1,37
 392 107 392 107 466 107 c 128,-1,38
 540 107 540 107 587 150.5 c 128,-1,39
 634 194 634 194 634 267.5 c 128,-1,40
 634 341 634 341 585.5 400.5 c 128,-1,41
 537 460 537 460 466 460 c 256,33,34
EndSplineSet
EndChar

StartChar: uni0195.001
Encoding: 405 405 341
Width: 1555
Flags: W
LayerCount: 2
Fore
SplineSet
736 511 m 2,0,-1
 736 617 l 2,1,2
 736 809 736 809 686 887 c 0,3,4
 643 954 643 954 559 954 c 0,5,6
 411 954 411 954 252 781 c 1,7,-1
 252 0 l 1,8,-1
 120 0 l 1,9,-1
 120 1515 l 1,10,-1
 252 1515 l 1,11,-1
 252 882 l 1,12,13
 399 1024 399 1024 495 1052 c 0,14,15
 543 1066 543 1066 594.5 1066 c 128,-1,16
 646 1066 646 1066 686 1053 c 128,-1,17
 726 1040 726 1040 753.5 1018.5 c 128,-1,18
 781 997 781 997 801 963 c 128,-1,19
 821 929 821 929 833 892 c 128,-1,20
 845 855 845 855 852 806 c 0,21,22
 864 724 864 724 864 607 c 2,23,-1
 864 495 l 2,24,25
 864 336 864 336 875.5 290.5 c 128,-1,26
 887 245 887 245 898.5 215.5 c 128,-1,27
 910 186 910 186 927.5 167 c 128,-1,28
 945 148 945 148 969 132 c 0,29,30
 1015 101 1015 101 1072.5 101 c 128,-1,31
 1130 101 1130 101 1162 109 c 128,-1,32
 1194 117 1194 117 1226 135 c 128,-1,33
 1258 153 1258 153 1282 179 c 0,34,35
 1337 238 1337 238 1337.5 346 c 128,-1,36
 1338 454 1338 454 1326 586 c 0,37,38
 1310 758 1310 758 1261 1055 c 1,39,-1
 1392 1055 l 1,40,41
 1470 602 1470 602 1469 336 c 0,42,43
 1469 167 1469 167 1355 75 c 0,44,45
 1247 -11 1247 -11 1098 -11 c 0,46,47
 883 -11 883 -11 810 97 c 0,48,49
 759 173 759 173 750 252 c 1,50,51
 736 362 736 362 736 511 c 2,0,-1
EndSplineSet
EndChar

StartChar: uni0198
Encoding: 408 408 344
Width: 1167
Flags: W
LayerCount: 2
Fore
SplineSet
927 1473 m 1,0,1
 944 1509 944 1509 980 1560 c 0,2,3
 1005 1596 1005 1596 1040 1619 c 128,-1,4
 1075 1642 1075 1642 1119 1642 c 128,-1,5
 1163 1642 1163 1642 1206.5 1605 c 128,-1,6
 1250 1568 1250 1568 1270 1535 c 1,7,-1
 1207 1454 l 1,8,9
 1196 1475 1196 1475 1160 1509.5 c 128,-1,10
 1124 1544 1124 1544 1099 1544.5 c 128,-1,11
 1074 1545 1074 1545 1051 1530 c 0,12,13
 1005 1500 1005 1500 974 1420 c 1,14,-1
 927 1473 l 1,0,1
144 0 m 1,15,-1
 144 1515 l 1,16,-1
 293 1515 l 1,17,-1
 293 691 l 1,18,-1
 910 1515 l 1,19,-1
 1069 1515 l 1,20,-1
 635 946 l 1,21,-1
 1124 0 l 1,22,-1
 958 0 l 1,23,-1
 541 822 l 1,24,-1
 293 495 l 1,25,-1
 293 0 l 1,26,-1
 144 0 l 1,15,-1
EndSplineSet
EndChar

StartChar: uni0199
Encoding: 409 409 345
Width: 884
Flags: W
LayerCount: 2
Fore
SplineSet
166 1413 m 1,0,1
 160 1453 160 1453 159 1516 c 1,2,3
 160 1559 160 1559 175 1598 c 128,-1,4
 190 1637 190 1637 226 1662.5 c 128,-1,5
 262 1688 262 1688 319 1682 c 128,-1,6
 376 1676 376 1676 412 1661 c 1,7,-1
 406 1559 l 1,8,9
 385 1569 385 1569 336 1577 c 128,-1,10
 287 1585 287 1585 266 1570.5 c 128,-1,11
 245 1556 245 1556 235 1531 c 0,12,13
 215 1481 215 1481 235 1397 c 1,14,-1
 166 1413 l 1,0,1
120 0 m 1,15,-1
 120 1515 l 1,16,-1
 261 1515 l 1,17,-1
 261 544 l 1,18,-1
 656 1055 l 1,19,-1
 814 1055 l 1,20,-1
 538 696 l 1,21,-1
 876 0 l 1,22,-1
 730 0 l 1,23,-1
 448 582 l 1,24,-1
 261 350 l 1,25,-1
 261 0 l 1,26,-1
 120 0 l 1,15,-1
EndSplineSet
EndChar

StartChar: uni019B
Encoding: 411 411 347
Width: 903
Flags: W
LayerCount: 2
Fore
SplineSet
23 0 m 1,0,-1
 399 1050 l 1,1,2
 398 1051 398 1051 384 1095 c 2,3,-1
 331 1258 l 1,4,-1
 182 1172 l 1,5,-1
 136 1251 l 1,6,-1
 302 1347 l 1,7,-1
 246 1515 l 1,8,-1
 381 1515 l 1,9,-1
 415 1412 l 1,10,-1
 590 1513 l 1,11,-1
 636 1434 l 1,12,-1
 444 1323 l 1,13,-1
 878 0 l 1,14,-1
 744 0 l 1,15,-1
 464 859 l 1,16,-1
 165 0 l 1,17,-1
 23 0 l 1,0,-1
EndSplineSet
EndChar

StartChar: uni019C
Encoding: 412 412 348
Width: 1630
Flags: W
LayerCount: 2
Fore
SplineSet
139 269 m 2,0,-1
 139 1515 l 1,1,-1
 271 1515 l 1,2,-1
 271 269 l 2,3,4
 271 194 271 194 324.5 147.5 c 128,-1,5
 378 101 378 101 440 101 c 0,6,7
 587 101 587 101 746 274 c 1,8,-1
 746 1515 l 1,9,-1
 878 1515 l 1,10,-1
 878 269 l 2,11,12
 878 194 878 194 931.5 147.5 c 128,-1,13
 985 101 985 101 1047 101 c 0,14,15
 1195 101 1195 101 1354 274 c 1,16,-1
 1354 1515 l 1,17,-1
 1486 1515 l 1,18,-1
 1486 0 l 1,19,-1
 1354 0 l 1,20,-1
 1354 174 l 1,21,22
 1216 36 1216 36 1111 4 c 0,23,24
 1062 -11 1062 -11 988 -11 c 128,-1,25
 914 -11 914 -11 845.5 37 c 128,-1,26
 777 85 777 85 755 182 c 1,27,28
 611 36 611 36 507 4 c 0,29,30
 457 -12 457 -12 402 -11 c 1,31,32
 287 -11 287 -11 213 59 c 128,-1,33
 139 129 139 129 139 269 c 2,0,-1
EndSplineSet
EndChar

StartChar: uni019D
Encoding: 413 413 349
Width: 1283
Flags: W
LayerCount: 2
Fore
SplineSet
149 97 m 1,0,1
 177 16 177 16 161 -37 c 0,2,3
 153 -62 153 -62 133.5 -78 c 128,-1,4
 114 -94 114 -94 64 -91 c 128,-1,5
 14 -88 14 -88 -8 -79 c 1,6,-1
 -4 -181 l 1,7,8
 33 -193 33 -193 90 -193.5 c 128,-1,9
 147 -194 147 -194 180.5 -166 c 128,-1,10
 214 -138 214 -138 226.5 -97.5 c 128,-1,11
 239 -57 239 -57 234 -14 c 1,12,13
 230 48 230 48 219 87 c 1,14,-1
 149 97 l 1,0,1
144 0 m 1,15,-1
 144 1515 l 1,16,-1
 380 1515 l 1,17,-1
 991 361 l 1,18,-1
 991 1515 l 1,19,-1
 1139 1515 l 1,20,-1
 1139 0 l 1,21,-1
 1012 0 l 1,22,-1
 292 1368 l 1,23,-1
 292 0 l 1,24,-1
 144 0 l 1,15,-1
EndSplineSet
EndChar

StartChar: uni019E
Encoding: 414 414 350
Width: 976
Flags: W
LayerCount: 2
Fore
SplineSet
120 0 m 1,0,-1
 120 1055 l 1,1,-1
 252 1055 l 1,2,-1
 252 882 l 1,3,4
 340 969 340 969 419 1017.5 c 128,-1,5
 498 1066 498 1066 605 1066 c 128,-1,6
 712 1066 712 1066 786 996 c 128,-1,7
 860 926 860 926 860 786 c 2,8,-1
 860 -410 l 1,9,-1
 728 -410 l 1,10,-1
 728 786 l 2,11,12
 728 861 728 861 674.5 907.5 c 128,-1,13
 621 954 621 954 559 954 c 0,14,15
 411 954 411 954 252 781 c 1,16,-1
 252 0 l 1,17,-1
 120 0 l 1,0,-1
EndSplineSet
EndChar

StartChar: uni01A2
Encoding: 418 418 354
Width: 1641
Flags: W
LayerCount: 2
Fore
SplineSet
642 1532 m 0,0,1
 814 1532 814 1532 939 1426 c 1,2,3
 1026 1533 1026 1533 1178 1533 c 128,-1,4
 1330 1533 1330 1533 1416.5 1441 c 128,-1,5
 1503 1349 1503 1349 1503 1212 c 2,6,-1
 1503 3 l 1,7,-1
 1355 3 l 1,8,-1
 1355 1212 l 2,9,10
 1355 1289 1355 1289 1303 1351 c 128,-1,11
 1251 1413 1251 1413 1174.5 1413 c 128,-1,12
 1098 1413 1098 1413 1023 1334 c 1,13,14
 1104 1223 1104 1223 1144 1069 c 128,-1,15
 1184 915 1184 915 1184 785.5 c 128,-1,16
 1184 656 1184 656 1171 565 c 128,-1,17
 1158 474 1158 474 1131 387 c 128,-1,18
 1104 300 1104 300 1060 228 c 0,19,20
 1015 156 1015 156 957 100 c 0,21,22
 834 -16 834 -16 642 -16 c 0,23,24
 531 -16 531 -16 437 28.5 c 128,-1,25
 343 73 343 73 278.5 147.5 c 128,-1,26
 214 222 214 222 168.5 321.5 c 128,-1,27
 123 421 123 421 102 529.5 c 128,-1,28
 81 638 81 638 81 753 c 128,-1,29
 81 868 81 868 100 977 c 128,-1,30
 119 1086 119 1086 162 1188 c 128,-1,31
 205 1290 205 1290 268.5 1365.5 c 128,-1,32
 332 1441 332 1441 428 1486.5 c 128,-1,33
 524 1532 524 1532 642 1532 c 0,0,1
915 250 m 0,34,35
 958 314 958 314 986 400 c 0,36,37
 1036 554 1036 554 1036 752 c 0,38,39
 1036 1080 1036 1080 915 1262 c 0,40,41
 872 1326 872 1326 802 1367 c 128,-1,42
 732 1408 732 1408 642 1408 c 128,-1,43
 552 1408 552 1408 480.5 1372 c 128,-1,44
 409 1336 409 1336 362.5 1275.5 c 128,-1,45
 316 1215 316 1215 285.5 1130 c 128,-1,46
 255 1045 255 1045 242 951.5 c 128,-1,47
 229 858 229 858 229 739 c 128,-1,48
 229 620 229 620 252.5 507.5 c 128,-1,49
 276 395 276 395 323.5 304 c 128,-1,50
 371 213 371 213 452.5 160.5 c 128,-1,51
 534 108 534 108 632.5 108 c 128,-1,52
 731 108 731 108 801.5 147.5 c 128,-1,53
 872 187 872 187 915 250 c 0,34,35
EndSplineSet
EndChar

StartChar: uni01A3
Encoding: 419 419 355
Width: 1341
Flags: W
LayerCount: 2
Fore
SplineSet
208 528 m 1,0,1
 209 211 209 211 373 126 c 0,2,3
 423 100 423 100 488 100 c 128,-1,4
 553 100 553 100 603.5 126 c 128,-1,5
 654 152 654 152 684 193 c 128,-1,6
 714 234 714 234 733 292 c 0,7,8
 766 393 766 393 766 527 c 0,9,10
 766 954 766 954 487 954 c 128,-1,11
 208 954 208 954 208 528 c 1,0,1
1092 865 m 1,12,13
 1069 958 1069 958 971 958 c 0,14,15
 927 958 927 958 893 938 c 0,16,17
 842 909 842 909 825 866 c 1,18,19
 898 724 898 724 898 505 c 128,-1,20
 898 286 898 286 789.5 137 c 128,-1,21
 681 -12 681 -12 488 -12 c 0,22,23
 291 -12 291 -12 182 142 c 0,24,25
 76 293 76 293 76 534.5 c 128,-1,26
 76 776 76 776 184.5 921 c 128,-1,27
 293 1066 293 1066 488 1066 c 0,28,29
 556 1066 556 1066 634.5 1039.5 c 128,-1,30
 713 1013 713 1013 755 963 c 1,31,32
 768 989 768 989 800 1016 c 0,33,34
 862 1068 862 1068 949 1068 c 128,-1,35
 1036 1068 1036 1068 1085.5 1047 c 128,-1,36
 1135 1026 1135 1026 1160 996 c 0,37,38
 1213 934 1213 934 1221 886 c 1,39,-1
 1224 865 l 1,40,-1
 1224 -192 l 1,41,-1
 1092 -192 l 1,42,-1
 1092 865 l 1,12,13
EndSplineSet
EndChar

StartChar: uni01A4
Encoding: 420 420 356
Width: 1148
Flags: W
LayerCount: 2
Fore
SplineSet
274 1419 m 1,0,1
 195 1454 195 1454 142 1443 c 0,2,3
 115 1438 115 1438 97.5 1419.5 c 128,-1,4
 80 1401 80 1401 79 1352 c 128,-1,5
 78 1303 78 1303 85 1278 c 1,6,-1
 -17 1292 l 1,7,8
 -35 1366 -35 1366 -10 1431 c 0,9,10
 1 1460 1 1460 21 1480 c 128,-1,11
 41 1500 41 1500 74 1509 c 128,-1,12
 107 1518 107 1518 136.5 1517.5 c 128,-1,13
 166 1517 166 1517 198 1509 c 1,14,15
 242 1501 242 1501 269 1490 c 1,16,-1
 274 1419 l 1,0,1
320 816 m 1,17,-1
 600 816 l 2,18,19
 762 816 762 816 859.5 887 c 128,-1,20
 957 958 957 958 957 1104 c 128,-1,21
 957 1250 957 1250 859 1320.5 c 128,-1,22
 761 1391 761 1391 600 1391 c 2,23,-1
 320 1391 l 1,24,-1
 320 816 l 1,17,-1
172 0 m 1,25,-1
 172 1515 l 1,26,-1
 701 1515 l 2,27,28
 937 1515 937 1515 1047 1329 c 0,29,30
 1105 1231 1105 1231 1105 1133.5 c 128,-1,31
 1105 1036 1105 1036 1083 963.5 c 128,-1,32
 1061 891 1061 891 1015.5 828.5 c 128,-1,33
 970 766 970 766 889 729 c 128,-1,34
 808 692 808 692 701 692 c 2,35,-1
 320 692 l 1,36,-1
 320 0 l 1,37,-1
 172 0 l 1,25,-1
EndSplineSet
EndChar

StartChar: uni01A5
Encoding: 421 421 357
Width: 1007
Flags: W
LayerCount: 2
Fore
SplineSet
761 921 m 1,0,1
 755 961 755 961 754 1024 c 1,2,3
 755 1067 755 1067 770 1106 c 128,-1,4
 785 1145 785 1145 821 1170.5 c 128,-1,5
 857 1196 857 1196 914 1190 c 128,-1,6
 971 1184 971 1184 1007 1169 c 1,7,-1
 1001 1067 l 1,8,9
 980 1077 980 1077 931 1085 c 128,-1,10
 882 1093 882 1093 861 1078.5 c 128,-1,11
 840 1064 840 1064 830 1039 c 0,12,13
 810 989 810 989 830 905 c 1,14,-1
 761 921 l 1,0,1
252 254 m 1,15,16
 298 188 298 188 364 144.5 c 128,-1,17
 430 101 430 101 489.5 101 c 128,-1,18
 549 101 549 101 589.5 112.5 c 128,-1,19
 630 124 630 124 669.5 154.5 c 128,-1,20
 709 185 709 185 737 234 c 0,21,22
 799 342 799 342 799 547 c 0,23,24
 799 797 799 797 683 899 c 0,25,26
 621 954 621 954 527 954 c 0,27,28
 401 954 401 954 307 848 c 0,29,30
 283 820 283 820 252 779 c 1,31,-1
 252 254 l 1,15,16
120 -411 m 1,32,-1
 120 1055 l 1,33,-1
 252 1055 l 1,34,-1
 252 891 l 1,35,36
 276 936 276 936 331 981 c 0,37,38
 434 1066 434 1066 548 1066 c 0,39,40
 758 1066 758 1066 868 836 c 0,41,42
 931 704 931 704 931 547 c 0,43,44
 931 272 931 272 796 108 c 0,45,46
 698 -11 698 -11 535 -11 c 0,47,48
 443 -11 443 -11 357 44.5 c 128,-1,49
 271 100 271 100 252 140 c 1,50,-1
 252 -411 l 1,51,-1
 120 -411 l 1,32,-1
EndSplineSet
EndChar

StartChar: uni01A6
Encoding: 422 422 358
Width: 1140
Flags: W
LayerCount: 2
Fore
SplineSet
289 816 m 1,0,-1
 665 816 l 2,1,2
 770 816 770 816 844 882 c 0,3,4
 926 955 926 955 926 1110 c 0,5,6
 926 1316 926 1316 704 1374 c 0,7,8
 638 1391 638 1391 560 1391 c 2,9,-1
 289 1391 l 1,10,-1
 289 816 l 1,0,-1
141 0 m 1,11,-1
 141 1648 l 1,12,-1
 289 1648 l 1,13,-1
 289 1514 l 1,14,-1
 651 1514 l 2,15,16
 889 1514 889 1514 1009 1328 c 0,17,18
 1074 1228 1074 1228 1074 1117 c 0,19,20
 1074 982 1074 982 1010 872 c 0,21,22
 940 750 940 750 782 716 c 1,23,-1
 1233 -414 l 1,24,-1
 1071 -414 l 1,25,-1
 630 692 l 1,26,-1
 289 692 l 1,27,-1
 289 0 l 1,28,-1
 141 0 l 1,11,-1
EndSplineSet
EndChar

StartChar: uni01A7
Encoding: 423 423 359
Width: 1069
Flags: W
LayerCount: 2
Fore
SplineSet
62 407 m 0,0,1
 62 455 62 455 78.5 514 c 128,-1,2
 95 573 95 573 121 615 c 128,-1,3
 147 657 147 657 186.5 692.5 c 128,-1,4
 226 728 226 728 264 750 c 0,5,6
 347 798 347 798 440 826 c 2,7,-1
 524 852 l 2,8,9
 663 895 663 895 723 930 c 0,10,11
 828 993 828 993 828 1128 c 128,-1,12
 828 1263 828 1263 751 1335.5 c 128,-1,13
 674 1408 674 1408 551 1408 c 0,14,15
 400 1408 400 1408 314 1288 c 0,16,17
 281 1241 281 1241 263.5 1180.5 c 128,-1,18
 246 1120 246 1120 244 1115 c 1,19,-1
 114 1165 l 1,20,21
 116 1170 116 1170 130 1206 c 2,22,-1
 159 1280 l 2,23,24
 196 1373 196 1373 284 1447 c 0,25,26
 384 1532 384 1532 551 1532 c 0,27,28
 647 1532 647 1532 729 1497 c 0,29,30
 812 1462 812 1462 864 1406 c 0,31,32
 976 1285 976 1285 976 1143 c 0,33,34
 976 919 976 919 771 806 c 0,35,36
 683 758 683 758 585 725 c 2,37,-1
 490 692 l 2,38,39
 438 674 438 674 406 661 c 0,40,41
 297 616 297 616 253.5 551.5 c 128,-1,42
 210 487 210 487 210 374.5 c 128,-1,43
 210 262 210 262 279 185 c 128,-1,44
 348 108 348 108 486 108 c 0,45,46
 676 108 676 108 784 229 c 0,47,48
 848 300 848 300 868 399 c 0,49,50
 872 416 872 416 873 416 c 2,51,-1
 1010 368 l 1,52,-1
 1002 347 l 1,53,54
 938 166 938 166 778 60 c 0,55,56
 663 -16 663 -16 486 -16 c 0,57,58
 294 -16 294 -16 179 106 c 0,59,60
 62 230 62 230 62 407 c 0,0,1
EndSplineSet
EndChar

StartChar: uni01A8
Encoding: 424 424 360
Width: 838
Flags: W
LayerCount: 2
Fore
SplineSet
328 587 m 0,0,1
 337 590 337 590 394 608 c 0,2,3
 452 626 452 626 488 640 c 0,4,5
 526 654 526 654 562 677 c 0,6,7
 634 723 634 723 634 795 c 128,-1,8
 634 867 634 867 579 910.5 c 128,-1,9
 524 954 524 954 438 954 c 0,10,11
 372 954 372 954 340 942 c 2,12,-1
 306 930 l 2,13,14
 294 926 294 926 276 909 c 1,15,-1
 250 888 l 2,16,17
 244 882 244 882 223 859.5 c 128,-1,18
 202 837 202 837 195 830 c 1,19,-1
 104 898 l 1,20,21
 136 945 136 945 189 986 c 0,22,23
 292 1066 292 1066 433.5 1066 c 128,-1,24
 575 1066 575 1066 668.5 989.5 c 128,-1,25
 762 913 762 913 762 784 c 0,26,27
 762 638 762 638 613 553 c 0,28,29
 541 512 541 512 465.5 494 c 128,-1,30
 390 476 390 476 352 462 c 1,31,32
 314 450 314 450 274 426 c 0,33,34
 190 377 190 377 190 277 c 0,35,36
 190 166 190 166 292 122 c 0,37,38
 342 100 342 100 418 101 c 1,39,40
 572 101 572 101 677 264 c 1,41,-1
 776 200 l 1,42,43
 707 90 707 90 616.5 39.5 c 128,-1,44
 526 -11 526 -11 393 -11 c 128,-1,45
 260 -11 260 -11 159 74 c 128,-1,46
 58 159 58 159 58 290.5 c 128,-1,47
 58 422 58 422 136.5 486 c 128,-1,48
 215 550 215 550 328 587 c 0,0,1
EndSplineSet
EndChar

StartChar: uni01A9
Encoding: 425 425 361
Width: 1095
Flags: W
LayerCount: 2
Fore
SplineSet
461 744 m 1,0,-1
 49 107 l 1,1,-1
 49 0 l 1,2,-1
 1049 0 l 1,3,-1
 1049 142 l 1,4,-1
 261 142 l 1,5,-1
 645 744 l 1,6,-1
 230 1387 l 1,7,-1
 1001 1387 l 1,8,-1
 1001 1519 l 1,9,-1
 49 1515 l 1,10,-1
 49 1392 l 1,11,-1
 461 744 l 1,0,-1
EndSplineSet
EndChar

StartChar: uni01AA
Encoding: 426 426 362
Width: 386
Flags: W
LayerCount: 2
Fore
SplineSet
121 1477 m 1,0,1
 97 1468 97 1468 49 1468 c 128,-1,2
 1 1468 1 1468 -20.5 1492 c 128,-1,3
 -42 1516 -42 1516 -42 1541 c 128,-1,4
 -42 1566 -42 1566 -19.5 1584.5 c 128,-1,5
 3 1603 3 1603 40 1603 c 128,-1,6
 77 1603 77 1603 95.5 1571.5 c 128,-1,7
 114 1540 114 1540 121 1477 c 1,0,1
416 -234 m 0,8,9
 489 -234 489 -234 498 -225 c 1,10,-1
 498 -114 l 1,11,-1
 409 -114 l 2,12,13
 323 -114 323 -114 292 -88 c 0,14,15
 259 -60 259 -60 259 0 c 2,16,-1
 259 1258 l 2,17,18
 259 1264 259 1264 260.5 1306.5 c 128,-1,19
 262 1349 262 1349 261.5 1369 c 128,-1,20
 261 1389 261 1389 260 1427 c 0,21,22
 258 1496 258 1496 240 1552 c 1,23,-1
 241 1554 l 1,24,-1
 239 1555 l 1,25,26
 191 1705 191 1705 35 1705 c 0,27,28
 -47 1705 -47 1705 -93.5 1655.5 c 128,-1,29
 -140 1606 -140 1606 -140 1539.5 c 128,-1,30
 -140 1473 -140 1473 -93 1422.5 c 128,-1,31
 -46 1372 -46 1372 24 1372 c 128,-1,32
 94 1372 94 1372 126 1378 c 1,33,34
 127 1345 127 1345 127 1278 c 2,35,-1
 127 0 l 2,36,37
 127 -234 127 -234 416 -234 c 0,8,9
EndSplineSet
EndChar

StartChar: uni01AB
Encoding: 427 427 363
Width: 611
Flags: W
LayerCount: 2
Fore
SplineSet
504 41 m 1,0,1
 545 -35 545 -35 538 -89 c 0,2,3
 535 -117 535 -117 519 -135.5 c 128,-1,4
 503 -154 503 -154 453 -160 c 128,-1,5
 403 -166 403 -166 380 -160 c 1,6,-1
 402 -260 l 1,7,8
 440 -267 440 -267 496.5 -257 c 128,-1,9
 553 -247 553 -247 581 -213.5 c 128,-1,10
 609 -180 609 -180 613.5 -138.5 c 128,-1,11
 618 -97 618 -97 607 -54 c 0,12,13
 591 6 591 6 574 43 c 1,14,-1
 504 41 l 1,0,1
38 943 m 1,15,-1
 38 1055 l 1,16,-1
 216 1055 l 1,17,-1
 216 1440 l 1,18,-1
 348 1440 l 1,19,-1
 348 1055 l 1,20,-1
 590 1055 l 1,21,-1
 590 943 l 1,22,-1
 348 943 l 1,23,-1
 348 274 l 2,24,25
 348 173 348 173 379 136 c 128,-1,26
 410 99 410 99 481 99 c 0,27,28
 510 99 510 99 550 104 c 128,-1,29
 590 109 590 109 590 110 c 2,30,-1
 590 11 l 1,31,32
 524 -13 524 -13 461.5 -13 c 128,-1,33
 399 -13 399 -13 376 -10 c 128,-1,34
 353 -7 353 -7 320 9 c 0,35,36
 286 26 286 26 266 54 c 0,37,38
 216 124 216 124 216 274 c 2,39,-1
 216 943 l 1,40,-1
 38 943 l 1,15,-1
EndSplineSet
EndChar

StartChar: uni01AC
Encoding: 428 428 364
Width: 1254
Flags: W
LayerCount: 2
Fore
SplineSet
320 1433 m 1,0,1
 237 1457 237 1457 185 1438 c 0,2,3
 160 1428 160 1428 145.5 1407.5 c 128,-1,4
 131 1387 131 1387 136.5 1338.5 c 128,-1,5
 142 1290 142 1290 153 1267 c 1,6,-1
 50 1266 l 1,7,8
 22 1337 22 1337 37 1405 c 0,9,10
 44 1434 44 1434 61 1457 c 128,-1,11
 78 1480 78 1480 109 1493.5 c 128,-1,12
 140 1507 140 1507 169.5 1510.5 c 128,-1,13
 199 1514 199 1514 233 1511 c 1,14,15
 277 1509 277 1509 306 1503 c 1,16,-1
 320 1433 l 1,0,1
212 1391 m 1,17,-1
 212 1515 l 1,18,-1
 1224 1515 l 1,19,-1
 1224 1391 l 1,20,-1
 792 1391 l 1,21,-1
 792 0 l 1,22,-1
 644 0 l 1,23,-1
 644 1391 l 1,24,-1
 212 1391 l 1,17,-1
EndSplineSet
EndChar

StartChar: uni01AD
Encoding: 429 429 365
Width: 618
Flags: W
LayerCount: 2
Fore
SplineSet
503 1484 m 1,0,1
 460 1505 460 1505 415 1504.5 c 128,-1,2
 370 1504 370 1504 360 1490 c 128,-1,3
 350 1476 350 1476 350 1440 c 2,4,-1
 350 1055 l 1,5,-1
 592 1055 l 1,6,-1
 592 943 l 1,7,-1
 350 943 l 1,8,-1
 350 274 l 2,9,10
 350 173 350 173 381 136 c 128,-1,11
 412 99 412 99 483 99 c 0,12,13
 512 99 512 99 552 104 c 128,-1,14
 592 109 592 109 592 110 c 2,15,-1
 592 11 l 1,16,17
 526 -13 526 -13 463.5 -13 c 128,-1,18
 401 -13 401 -13 378 -10 c 128,-1,19
 355 -7 355 -7 322 9 c 0,20,21
 288 26 288 26 268 54 c 0,22,23
 218 124 218 124 218 274 c 2,24,-1
 218 943 l 1,25,-1
 40 943 l 1,26,-1
 40 1055 l 1,27,-1
 218 1055 l 1,28,-1
 218 1440 l 1,29,30
 219 1541 219 1541 273 1576 c 0,31,32
 321 1607 321 1607 390.5 1606.5 c 128,-1,33
 460 1606 460 1606 508 1586 c 1,34,-1
 503 1484 l 1,0,1
EndSplineSet
EndChar

StartChar: uni01AE
Encoding: 430 430 366
Width: 1066
Flags: W
LayerCount: 2
Fore
SplineSet
565 107 m 1,0,1
 536 23 536 23 565 -27 c 0,2,3
 579 -52 579 -52 607.5 -66.5 c 128,-1,4
 636 -81 636 -81 702 -73.5 c 128,-1,5
 768 -66 768 -66 798 -55 c 1,6,-1
 806 -157 l 1,7,8
 710 -188 710 -188 617 -175 c 0,9,10
 575 -170 575 -170 543.5 -153.5 c 128,-1,11
 512 -137 512 -137 492 -106 c 128,-1,12
 472 -75 472 -75 466 -46 c 128,-1,13
 460 -17 460 -17 461 17 c 0,14,15
 463 61 463 61 470 90 c 1,16,-1
 565 107 l 1,0,1
25 1391 m 1,17,-1
 25 1515 l 1,18,-1
 1037 1515 l 1,19,-1
 1037 1391 l 1,20,-1
 605 1391 l 1,21,-1
 605 0 l 1,22,-1
 457 0 l 1,23,-1
 457 1391 l 1,24,-1
 25 1391 l 1,17,-1
EndSplineSet
EndChar

StartChar: Uhorn
Encoding: 431 431 367
Width: 1277
Flags: W
LayerCount: 2
Fore
SplineSet
1045 1437 m 1,0,1
 1130 1446 1130 1446 1171 1484 c 0,2,3
 1191 1502 1191 1502 1197 1526 c 128,-1,4
 1203 1550 1203 1550 1179.5 1593.5 c 128,-1,5
 1156 1637 1156 1637 1139 1654 c 1,6,-1
 1233 1693 l 1,7,8
 1285 1638 1285 1638 1297 1570 c 0,9,10
 1302 1540 1302 1540 1294.5 1512.5 c 128,-1,11
 1287 1485 1287 1485 1263 1460.5 c 128,-1,12
 1239 1436 1239 1436 1213 1422 c 128,-1,13
 1187 1408 1187 1408 1156 1398 c 0,14,15
 1113 1383 1113 1383 1084 1378 c 1,16,-1
 1045 1437 l 1,0,1
137 455 m 1,17,-1
 137 1515 l 1,18,-1
 285 1515 l 1,19,-1
 285 455 l 2,20,21
 285 320 285 320 351 226 c 0,22,23
 434 108 434 108 611 108 c 0,24,25
 698 108 698 108 762 136 c 128,-1,26
 826 164 826 164 858 202 c 128,-1,27
 890 240 890 240 910 294 c 0,28,29
 938 371 938 371 939 455 c 1,30,-1
 933 1515 l 1,31,-1
 1087 1515 l 1,32,-1
 1087 455 l 1,33,34
 1086 292 1086 292 998 162 c 0,35,36
 877 -16 877 -16 611 -16 c 0,37,38
 292 -16 292 -16 182 238 c 0,39,40
 136 344 136 344 137 455 c 1,17,-1
EndSplineSet
EndChar

StartChar: uhorn
Encoding: 432 432 368
Width: 1019
Flags: W
LayerCount: 2
Fore
SplineSet
813 990 m 1,0,1
 898 999 898 999 939 1037 c 0,2,3
 959 1055 959 1055 965 1079 c 128,-1,4
 971 1103 971 1103 947.5 1146.5 c 128,-1,5
 924 1190 924 1190 907 1207 c 1,6,-1
 1001 1246 l 1,7,8
 1053 1191 1053 1191 1065 1123 c 0,9,10
 1070 1093 1070 1093 1062.5 1065.5 c 128,-1,11
 1055 1038 1055 1038 1031 1013.5 c 128,-1,12
 1007 989 1007 989 981 975 c 128,-1,13
 955 961 955 961 924 951 c 0,14,15
 881 936 881 936 852 931 c 1,16,-1
 813 990 l 1,0,1
115 269 m 2,17,-1
 115 1055 l 1,18,-1
 247 1055 l 1,19,-1
 247 269 l 2,20,21
 247 194 247 194 300.5 147.5 c 128,-1,22
 354 101 354 101 416 101 c 0,23,24
 564 101 564 101 723 274 c 1,25,-1
 723 1055 l 1,26,-1
 855 1055 l 1,27,-1
 855 0 l 1,28,-1
 723 0 l 1,29,-1
 723 174 l 1,30,31
 582 35 582 35 480 4 c 0,32,33
 432 -11 432 -11 378 -11 c 0,34,35
 263 -11 263 -11 189 59 c 128,-1,36
 115 129 115 129 115 269 c 2,17,-1
EndSplineSet
EndChar

StartChar: uni01B2
Encoding: 434 434 370
Width: 1088
Flags: W
LayerCount: 2
Fore
SplineSet
959 1425 m 1,0,1
 1007 1497 1007 1497 1005 1551 c 0,2,3
 1004 1579 1004 1579 989.5 1599 c 128,-1,4
 975 1619 975 1619 926.5 1628.5 c 128,-1,5
 878 1638 878 1638 853 1636 c 1,6,-1
 883 1734 l 1,7,8
 960 1739 960 1739 1019 1703 c 1,9,10
 1046 1688 1046 1688 1062.5 1665 c 128,-1,11
 1079 1642 1079 1642 1082 1607.5 c 128,-1,12
 1085 1573 1085 1573 1079 1544 c 128,-1,13
 1073 1515 1073 1515 1061 1484 c 0,14,15
 1045 1442 1045 1442 1030 1418 c 1,16,-1
 959 1425 l 1,0,1
17 1515 m 1,17,-1
 171 1515 l 1,18,-1
 544 259 l 1,19,-1
 917 1515 l 1,20,-1
 1071 1515 l 1,21,-1
 621 0 l 1,22,-1
 467 0 l 1,23,-1
 17 1515 l 1,17,-1
EndSplineSet
EndChar

StartChar: uni01B3
Encoding: 435 435 371
Width: 1206
Flags: W
LayerCount: 2
Fore
SplineSet
137 1515 m 1,0,-1
 291 1515 l 1,1,-1
 673 802 l 1,2,-1
 1055 1515 l 1,3,-1
 1209 1515 l 1,4,-1
 747 660 l 1,5,-1
 747 0 l 1,6,-1
 599 0 l 1,7,-1
 599 660 l 1,8,-1
 137 1515 l 1,0,-1
300 1351 m 1,9,10
 269 1431 269 1431 223 1461 c 0,11,12
 200 1476 200 1476 175 1475.5 c 128,-1,13
 150 1475 150 1475 114.5 1441 c 128,-1,14
 79 1407 79 1407 67 1385 c 1,15,-1
 4 1466 l 1,16,17
 44 1531 44 1531 107 1560 c 0,18,19
 135 1573 135 1573 163.5 1573 c 128,-1,20
 192 1573 192 1573 221.5 1556 c 128,-1,21
 251 1539 251 1539 271.5 1517.5 c 128,-1,22
 292 1496 292 1496 310 1468 c 0,23,24
 335 1431 335 1431 347 1404 c 1,25,-1
 300 1351 l 1,9,10
EndSplineSet
EndChar

StartChar: uni01B4
Encoding: 436 436 372
Width: 1087
Flags: W
LayerCount: 2
Fore
SplineSet
757 1014 m 1,0,1
 774 1050 774 1050 810 1101 c 0,2,3
 835 1137 835 1137 870 1160 c 128,-1,4
 905 1183 905 1183 949 1183 c 128,-1,5
 993 1183 993 1183 1036.5 1146 c 128,-1,6
 1080 1109 1080 1109 1100 1076 c 1,7,-1
 1037 995 l 1,8,9
 1026 1016 1026 1016 990 1050.5 c 128,-1,10
 954 1085 954 1085 929 1085.5 c 128,-1,11
 904 1086 904 1086 881 1071 c 0,12,13
 835 1041 835 1041 804 961 c 1,14,-1
 757 1014 l 1,0,1
19 -385 m 1,15,-1
 29 -264 l 1,16,17
 65 -281 65 -281 125 -281 c 128,-1,18
 185 -281 185 -281 224 -265.5 c 128,-1,19
 263 -250 263 -250 288 -225.5 c 128,-1,20
 313 -201 313 -201 333.5 -171.5 c 128,-1,21
 354 -142 354 -142 366 -112 c 0,22,23
 388 -56 388 -56 396 -3 c 1,24,-1
 17 1055 l 1,25,-1
 159 1055 l 1,26,-1
 458 196 l 1,27,-1
 738 1055 l 1,28,-1
 872 1055 l 1,29,-1
 504 -64 l 2,30,31
 448 -235 448 -235 390 -296 c 0,32,33
 328 -362 328 -362 266.5 -377.5 c 128,-1,34
 205 -393 205 -393 142 -393 c 128,-1,35
 79 -393 79 -393 19 -385 c 1,15,-1
EndSplineSet
EndChar

StartChar: uni01B7
Encoding: 439 439 375
Width: 1084
Flags: W
LayerCount: 2
Fore
SplineSet
27 237 m 1,0,-1
 128 324 l 1,1,2
 210 240 210 240 245 213 c 0,3,4
 351 132 351 132 499 132 c 128,-1,5
 647 132 647 132 751.5 230 c 128,-1,6
 856 328 856 328 856 476 c 0,7,8
 856 623 856 623 784 692 c 0,9,10
 733 741 733 741 681 756 c 128,-1,11
 629 771 629 771 595 777 c 0,12,13
 561 782 561 782 511 786 c 0,14,15
 432 792 432 792 323 792 c 1,16,-1
 323 933 l 1,17,-1
 800 1388 l 1,18,-1
 79 1388 l 1,19,-1
 79 1519 l 1,20,-1
 998 1515 l 1,21,-1
 998 1392 l 1,22,-1
 536 933 l 2,23,24
 535 932 535 932 534 930 c 1,25,26
 686 927 686 927 799 864 c 0,27,28
 998 752 998 752 998 486 c 0,29,30
 998 258 998 258 862 123.5 c 128,-1,31
 726 -11 726 -11 508 -11 c 0,32,33
 222 -11 222 -11 27 237 c 1,0,-1
EndSplineSet
EndChar

StartChar: uni01B8
Encoding: 440 440 376
Width: 1084
Flags: W
LayerCount: 2
Fore
SplineSet
86 486 m 0,0,1
 86 770 86 770 311 878 c 0,2,3
 413 927 413 927 550 930 c 1,4,5
 549 932 549 932 548 933 c 2,6,-1
 86 1392 l 1,7,-1
 86 1515 l 1,8,-1
 1005 1519 l 1,9,-1
 1005 1388 l 1,10,-1
 284 1388 l 1,11,-1
 761 933 l 1,12,-1
 761 792 l 1,13,14
 574 792 574 792 514.5 781.5 c 128,-1,15
 455 771 455 771 415.5 759.5 c 128,-1,16
 376 748 376 748 350.5 732 c 128,-1,17
 325 716 325 716 300 692 c 0,18,19
 274 668 274 668 260 638 c 0,20,21
 228 570 228 570 228 476 c 0,22,23
 228 328 228 328 332.5 230 c 128,-1,24
 437 132 437 132 576 132 c 0,25,26
 667 132 667 132 740 160 c 1,27,28
 812 190 812 190 846 218 c 0,29,30
 883 249 883 249 956 324 c 1,31,-1
 1057 237 l 1,32,33
 862 -11 862 -11 576 -11 c 0,34,35
 358 -11 358 -11 222 123.5 c 128,-1,36
 86 258 86 258 86 486 c 0,0,1
EndSplineSet
EndChar

StartChar: uni01BA
Encoding: 442 442 378
Width: 792
Flags: W
LayerCount: 2
Fore
SplineSet
503 -438 m 1,0,1
 336 -522 336 -522 171 -451.5 c 128,-1,2
 6 -381 6 -381 21 -232 c 1,3,-1
 129 -231 l 1,4,5
 122 -277 122 -277 149 -320 c 128,-1,6
 176 -363 176 -363 224 -383.5 c 128,-1,7
 272 -404 272 -404 336 -400 c 128,-1,8
 400 -396 400 -396 449 -368 c 1,9,-1
 503 -438 l 1,0,1
168 378 m 1,10,-1
 168 463 l 1,11,-1
 537 943 l 1,12,-1
 30 943 l 1,13,-1
 30 1055 l 1,14,-1
 706 1055 l 1,15,-1
 706 981 l 1,16,-1
 331 497 l 1,17,-1
 344 497 l 1,18,19
 455 498 455 498 565 436 c 0,20,21
 634 398 634 398 682 318 c 0,22,23
 732 235 732 235 732 101 c 0,24,25
 732 -75 732 -75 618.5 -200 c 128,-1,26
 505 -325 505 -325 343 -325 c 0,27,28
 219 -325 219 -325 121.5 -265 c 128,-1,29
 24 -205 24 -205 -21 -137 c 1,30,-1
 57 -68 l 1,31,32
 186 -216 186 -216 343 -216 c 0,33,34
 446 -216 446 -216 535 -119 c 128,-1,35
 624 -22 624 -22 624 93 c 0,36,37
 624 233 624 233 547 299 c 1,38,39
 474 363 474 363 370 373 c 0,40,41
 242 386 242 386 168 378 c 1,10,-1
EndSplineSet
EndChar

StartChar: uni01BC
Encoding: 444 444 380
Width: 1154
Flags: W
LayerCount: 2
Fore
SplineSet
393 931 m 1,0,1
 489 1023 489 1023 637 1022 c 1,2,3
 834 1022 834 1022 962 886.5 c 128,-1,4
 1090 751 1090 751 1090 521.5 c 128,-1,5
 1090 292 1090 292 958 140.5 c 128,-1,6
 826 -11 826 -11 616 -11 c 1,7,8
 428 -10 428 -10 287 136 c 0,9,10
 215 211 215 211 197 276 c 1,11,-1
 295 351 l 1,12,13
 315 292 315 292 373 234 c 0,14,15
 488 119 488 119 611 119 c 1,16,17
 724 120 724 120 820 206 c 0,18,19
 942 316 942 316 942 532 c 0,20,21
 942 774 942 774 791 858 c 0,22,23
 718 898 718 898 630 898.5 c 128,-1,24
 542 899 542 899 465 835 c 128,-1,25
 388 771 388 771 381 722 c 1,26,-1
 245 722 l 1,27,-1
 245 1381 l 1,28,-1
 26 1381 l 1,29,-1
 26 1515 l 1,30,-1
 1007 1512 l 1,31,-1
 1007 1381 l 1,32,-1
 393 1381 l 1,33,-1
 393 931 l 1,0,1
EndSplineSet
EndChar

StartChar: uni01BD
Encoding: 445 445 381
Width: 836
Flags: W
LayerCount: 2
Fore
SplineSet
28 963 m 1,0,-1
 28 1056 l 1,1,-1
 714 1056 l 1,2,-1
 714 963 l 1,3,-1
 285 963 l 1,4,-1
 285 648 l 1,5,6
 311 674 311 674 359 693.5 c 128,-1,7
 407 713 407 713 455 713 c 0,8,9
 592 713 592 713 682 617.5 c 128,-1,10
 772 522 772 522 772 361.5 c 128,-1,11
 772 201 772 201 680 95 c 128,-1,12
 588 -11 588 -11 441 -11 c 0,13,14
 282 -10 282 -10 178 132 c 0,15,16
 154 164 154 164 147 190 c 1,17,-1
 216 242 l 1,18,19
 230 203 230 203 271 161 c 0,20,21
 350 80 350 80 437 80 c 0,22,23
 518 80 518 80 584 140 c 0,24,25
 670 219 670 219 669 369 c 1,26,27
 670 538 670 538 564 598 c 0,28,29
 514 626 514 626 451.5 626 c 128,-1,30
 389 626 389 626 335 581 c 128,-1,31
 281 536 281 536 276 502 c 1,32,-1
 181 502 l 1,33,-1
 181 963 l 1,34,-1
 28 963 l 1,0,-1
EndSplineSet
EndChar

StartChar: uni01BF
Encoding: 447 447 383
Width: 916
Flags: W
LayerCount: 2
Fore
SplineSet
737 816 m 0,0,1
 737 1064 737 1064 512 1064 c 0,2,3
 371 1064 371 1064 282 962 c 0,4,5
 263 940 263 940 249 916 c 1,6,-1
 249 324 l 1,7,8
 396 376 396 376 466.5 421 c 128,-1,9
 537 466 537 466 584.5 506.5 c 128,-1,10
 632 547 632 547 663 591 c 0,11,12
 737 693 737 693 737 816 c 0,0,1
117 0 m 1,13,-1
 117 1171 l 1,14,-1
 249 1171 l 1,15,-1
 249 1101 l 1,16,17
 344 1188 344 1188 512 1188 c 0,18,19
 691 1188 691 1188 785 1075 c 0,20,21
 869 973 869 973 869 823 c 0,22,23
 869 469 869 469 360 246 c 0,24,25
 309 224 309 224 249 200 c 1,26,-1
 249 0 l 1,27,-1
 117 0 l 1,13,-1
EndSplineSet
EndChar

StartChar: uni01F6
Encoding: 502 502 437
Width: 1805
Flags: W
LayerCount: 2
Fore
SplineSet
1128 1506 m 1,0,-1
 1128 495 l 2,1,2
 1128 338 1128 338 1139.5 294 c 128,-1,3
 1151 250 1151 250 1162.5 222 c 128,-1,4
 1174 194 1174 194 1191.5 176 c 128,-1,5
 1209 158 1209 158 1233 143 c 0,6,7
 1278 114 1278 114 1336 114 c 128,-1,8
 1394 114 1394 114 1424 120.5 c 128,-1,9
 1454 127 1454 127 1484 143 c 128,-1,10
 1514 159 1514 159 1535 184 c 0,11,12
 1584 239 1584 239 1584.5 346 c 128,-1,13
 1585 453 1585 453 1573 586 c 0,14,15
 1557 758 1557 758 1508 1055 c 1,16,-1
 1656 1055 l 1,17,18
 1734 603 1734 603 1735 336 c 0,19,20
 1735 167 1735 167 1619 75 c 0,21,22
 1511 -11 1511 -11 1362 -11 c 0,23,24
 1192 -11 1192 -11 1110 55 c 0,25,26
 1052 102 1052 102 1032 151.5 c 128,-1,27
 1012 201 1012 201 1003 236 c 128,-1,28
 994 271 994 271 989 319 c 0,29,30
 981 399 981 399 981 521 c 128,-1,31
 981 643 981 643 980 734 c 1,32,-1
 292 734 l 1,33,-1
 292 0 l 1,34,-1
 144 0 l 1,35,-1
 144 1515 l 1,36,-1
 292 1515 l 1,37,-1
 292 858 l 1,38,-1
 980 858 l 1,39,-1
 980 1515 l 1,40,-1
 1128 1515 l 1,41,-1
 1128 1506 l 1,0,-1
EndSplineSet
EndChar

StartChar: uni01F7
Encoding: 503 503 438
Width: 1070
Flags: W
LayerCount: 2
Fore
SplineSet
292 324 m 1,0,1
 501 471 501 471 588 550 c 0,2,3
 784 725 784 725 843 923 c 0,4,5
 872 1022 872 1022 872 1111.5 c 128,-1,6
 872 1201 872 1201 854 1251 c 128,-1,7
 836 1301 836 1301 807.5 1330 c 128,-1,8
 779 1359 779 1359 739 1377 c 0,9,10
 671 1408 671 1408 596.5 1408 c 128,-1,11
 522 1408 522 1408 471.5 1392.5 c 128,-1,12
 421 1377 421 1377 387 1351 c 0,13,14
 325 1305 325 1305 292 1249 c 1,15,-1
 292 324 l 1,0,1
144 0 m 1,16,-1
 144 1515 l 1,17,-1
 292 1515 l 1,18,-1
 292 1435 l 1,19,20
 378 1532 378 1532 583.5 1532 c 128,-1,21
 789 1532 789 1532 904.5 1429.5 c 128,-1,22
 1020 1327 1020 1327 1020 1143 c 0,23,24
 1020 668 1020 668 529 339 c 0,25,26
 423 268 423 268 292 200 c 1,27,-1
 292 0 l 1,28,-1
 144 0 l 1,16,-1
EndSplineSet
EndChar

StartChar: uni021C
Encoding: 540 540 475
Width: 1001
Flags: W
LayerCount: 2
Fore
SplineSet
207 -104 m 1,0,-1
 415 22 l 2,1,2
 572 117 572 117 642 180 c 0,3,4
 712 242 712 242 732 272 c 1,5,6
 782 342 782 342 782 410 c 1,7,8
 780 478 780 478 748 542 c 0,9,10
 684 667 684 667 548 686 c 0,11,12
 536 688 536 688 504.5 688 c 128,-1,13
 473 688 473 688 422 658 c 2,14,-1
 251 561 l 1,15,-1
 251 702 l 1,16,-1
 516 854 l 1,17,18
 623 920 623 920 660 967 c 0,19,20
 733 1060 733 1060 733 1157.5 c 128,-1,21
 733 1255 733 1255 642.5 1319.5 c 128,-1,22
 552 1384 552 1384 443.5 1384 c 128,-1,23
 335 1384 335 1384 251 1327 c 128,-1,24
 167 1270 167 1270 110 1197 c 1,25,-1
 14 1290 l 1,26,-1
 70 1352 l 1,27,28
 142 1430 142 1430 203 1461 c 0,29,30
 331 1527 331 1527 445 1527 c 128,-1,31
 559 1527 559 1527 657 1476 c 128,-1,32
 755 1425 755 1425 814.5 1337.5 c 128,-1,33
 874 1250 874 1250 874 1149 c 0,34,35
 874 990 874 990 775 873 c 0,36,37
 731 821 731 821 686 792 c 1,38,39
 808 718 808 718 866 626 c 0,40,41
 922 536 922 536 924 417 c 1,42,43
 924 320 924 320 837 198 c 1,44,45
 787 126 787 126 631 2 c 0,46,47
 552 -62 552 -62 396 -154 c 1,48,-1
 292 -214 l 2,49,50
 264 -231 264 -231 251 -238 c 1,51,-1
 207 -104 l 1,0,-1
EndSplineSet
EndChar

StartChar: uni021D
Encoding: 541 541 476
Width: 951
Flags: W
LayerCount: 2
Fore
SplineSet
108 741 m 1,0,-1
 12 834 l 1,1,-1
 51 877 l 1,2,3
 230 1071 230 1071 448 1072 c 0,4,5
 618 1072 618 1072 726.5 984.5 c 128,-1,6
 835 897 835 897 835 746 c 0,7,8
 834 558 834 558 700 428 c 0,9,10
 672 402 672 402 647 384 c 1,11,-1
 688 370 l 2,12,13
 745 351 745 351 770 332.5 c 128,-1,14
 795 314 795 314 818 292 c 0,15,16
 842 270 842 270 854 243 c 0,17,18
 884 180 884 180 884 98.5 c 128,-1,19
 884 17 884 17 831.5 -60 c 128,-1,20
 779 -137 779 -137 703 -192 c 0,21,22
 628 -246 628 -246 532 -294 c 0,23,24
 382 -369 382 -369 223 -410 c 1,25,-1
 179 -288 l 1,26,27
 431 -221 431 -221 606 -107 c 0,28,29
 669 -66 669 -66 711 -12 c 256,30,31
 753 42 753 42 753 104 c 0,32,33
 752 166 752 166 718 214 c 0,34,35
 662 292 662 292 553 293 c 0,36,37
 464 293 464 293 383 244 c 2,38,-1
 212 141 l 1,39,-1
 212 282 l 1,40,-1
 462 434 l 1,41,-1
 534 483 l 1,42,43
 601 530 601 530 641 581 c 0,44,45
 705 663 705 663 705 735.5 c 128,-1,46
 705 808 705 808 663 854 c 0,47,48
 584 940 584 940 423 939.5 c 128,-1,49
 262 939 262 939 108 741 c 1,0,-1
EndSplineSet
EndChar

StartChar: uni0220
Encoding: 544 544 479
Width: 1175
Flags: W
LayerCount: 2
Fore
SplineSet
144 0 m 1,0,-1
 144 1491 l 1,1,-1
 291 1491 l 1,2,-1
 291 1271 l 1,3,4
 384 1363 384 1363 507 1433.5 c 128,-1,5
 630 1504 630 1504 743 1504 c 0,6,7
 866 1504 866 1504 949 1430 c 0,8,9
 1037 1352 1037 1352 1037 1190 c 2,10,-1
 1037 -411 l 1,11,-1
 890 -411 l 1,12,-1
 890 1190 l 2,13,14
 890 1275 890 1275 829.5 1326.5 c 128,-1,15
 769 1378 769 1378 688 1378 c 128,-1,16
 607 1378 607 1378 485.5 1308 c 128,-1,17
 364 1238 364 1238 291 1158 c 1,18,-1
 291 0 l 1,19,-1
 144 0 l 1,0,-1
EndSplineSet
EndChar

StartChar: uni0221
Encoding: 545 545 480
Width: 994
Flags: W
LayerCount: 2
Fore
SplineSet
206 510 m 1,0,1
 207 332 207 332 269 220 c 0,2,3
 336 100 336 100 478 101 c 0,4,5
 573 101 573 101 634 155 c 0,6,7
 683 198 683 198 741 278 c 1,8,-1
 741 803 l 1,9,10
 635 954 635 954 504 954 c 0,11,12
 206 954 206 954 206 510 c 1,0,1
960 -179 m 0,13,14
 997 -179 997 -179 1019.5 -160.5 c 128,-1,15
 1042 -142 1042 -142 1042 -117 c 128,-1,16
 1042 -92 1042 -92 1020.5 -68 c 128,-1,17
 999 -44 999 -44 959 -44 c 128,-1,18
 919 -44 919 -44 881 -59 c 1,19,20
 884 -86 884 -86 887 -106 c 0,21,22
 901 -180 901 -180 960 -179 c 0,13,14
741 166 m 1,23,24
 639 -11 639 -11 457 -11 c 0,25,26
 366 -11 366 -11 291 34.5 c 128,-1,27
 216 80 216 80 170 155 c 0,28,29
 74 312 74 312 74 510 c 0,30,31
 74 657 74 657 121.5 783 c 128,-1,32
 169 909 169 909 261 987.5 c 128,-1,33
 353 1066 353 1066 457.5 1066 c 128,-1,34
 562 1066 562 1066 642 1012 c 128,-1,35
 722 958 722 958 741 917 c 1,36,-1
 741 1515 l 1,37,-1
 873 1515 l 1,38,-1
 873 146 l 2,39,40
 873 87 873 87 875 40 c 1,41,42
 917 52 917 52 959 52 c 0,43,44
 1046 52 1046 52 1093 1.5 c 128,-1,45
 1140 -49 1140 -49 1140 -115.5 c 128,-1,46
 1140 -182 1140 -182 1093.5 -231.5 c 128,-1,47
 1047 -281 1047 -281 977 -281 c 0,48,49
 851 -280 851 -280 800 -208 c 0,50,51
 779 -178 779 -178 764 -140 c 1,52,53
 691 -220 691 -220 658 -297 c 1,54,-1
 579 -255 l 1,55,56
 619 -149 619 -149 716 -54 c 0,57,58
 728 -42 728 -42 742 -31 c 1,59,60
 735 82 735 82 738 118.5 c 128,-1,61
 741 155 741 155 741 166 c 1,23,24
EndSplineSet
EndChar

StartChar: uni0222
Encoding: 546 546 481
Width: 1024
Flags: W
LayerCount: 2
Fore
SplineSet
242 474 m 0,0,1
 242 395 242 395 248.5 345.5 c 128,-1,2
 255 296 255 296 273 249 c 128,-1,3
 291 202 291 202 321 172 c 0,4,5
 386 104 386 104 514 104 c 0,6,7
 677 104 677 104 734 208 c 0,8,9
 784 299 784 299 784 427 c 128,-1,10
 784 555 784 555 771.5 618 c 128,-1,11
 759 681 759 681 726 724 c 0,12,13
 667 802 667 802 502 802 c 0,14,15
 353 802 353 802 297 721 c 0,16,17
 242 643 242 643 242 474 c 0,0,1
276 867 m 1,18,19
 216 901 216 901 173 955.5 c 128,-1,20
 130 1010 130 1010 130 1071 c 0,21,22
 130 1243 130 1243 207 1430 c 1,23,-1
 338 1389 l 1,24,25
 271 1218 271 1218 271 1064 c 0,26,27
 271 1023 271 1023 313 989 c 0,28,29
 395 925 395 925 511 925 c 2,30,-1
 515 925 l 1,31,32
 652 927 652 927 718 1041 c 0,33,34
 752 1100 752 1100 752 1153 c 128,-1,35
 752 1206 752 1206 741.5 1254 c 128,-1,36
 731 1302 731 1302 721 1328 c 128,-1,37
 711 1354 711 1354 685.5 1413 c 128,-1,38
 660 1472 660 1472 651 1493 c 1,39,-1
 792 1515 l 1,40,-1
 822 1444 l 1,41,42
 885 1299 885 1299 893.5 1241 c 128,-1,43
 902 1183 902 1183 902 1129 c 128,-1,44
 902 1075 902 1075 852.5 987 c 128,-1,45
 803 899 803 899 748 868 c 1,46,47
 932 757 932 757 932 457 c 0,48,49
 932 225 932 225 823 104 c 128,-1,50
 714 -17 714 -17 513.5 -17 c 128,-1,51
 313 -17 313 -17 203.5 105.5 c 128,-1,52
 94 228 94 228 94 458 c 0,53,54
 94 757 94 757 276 867 c 1,18,19
EndSplineSet
EndChar

StartChar: uni0223
Encoding: 547 547 482
Width: 900
Flags: W
LayerCount: 2
Fore
SplineSet
213 397 m 0,0,1
 214 170 214 170 330 116 c 0,2,3
 378 94 378 94 449 94 c 128,-1,4
 520 94 520 94 568 116 c 128,-1,5
 616 138 616 138 640 182 c 0,6,7
 683 260 683 260 683 412.5 c 128,-1,8
 683 565 683 565 632 631 c 128,-1,9
 581 697 581 697 446 697 c 128,-1,10
 311 697 311 697 262 629 c 128,-1,11
 213 561 213 561 213 397 c 0,0,1
240 753 m 1,12,13
 113 824 113 824 113 941 c 0,14,15
 113 1023 113 1023 148 1090.5 c 128,-1,16
 183 1158 183 1158 234 1198 c 1,17,-1
 328 1134 l 1,18,19
 256 1051 256 1051 247.5 1007.5 c 128,-1,20
 239 964 239 964 239 918 c 128,-1,21
 239 872 239 872 308 839 c 128,-1,22
 377 806 377 806 445 806 c 2,23,-1
 449 806 l 1,24,25
 601 810 601 810 656 938 c 0,26,27
 670 970 670 970 670 1000 c 0,28,29
 670 1130 670 1130 553 1251 c 1,30,-1
 642 1326 l 1,31,32
 803 1204 803 1204 803 997 c 0,33,34
 803 920 803 920 756.5 852.5 c 128,-1,35
 710 785 710 785 655 754 c 1,36,37
 814 658 814 658 814 396 c 0,38,39
 814 194 814 194 719 89 c 128,-1,40
 624 -16 624 -16 449 -16 c 128,-1,41
 274 -16 274 -16 178 90.5 c 128,-1,42
 82 197 82 197 82 397 c 0,43,44
 82 656 82 656 240 753 c 1,12,13
EndSplineSet
EndChar

StartChar: uni0224
Encoding: 548 548 483
Width: 1104
Flags: W
LayerCount: 2
Fore
SplineSet
789 -155 m 1,0,1
 874 -146 874 -146 915 -108 c 0,2,3
 935 -90 935 -90 941 -66 c 128,-1,4
 947 -42 947 -42 923.5 1.5 c 128,-1,5
 900 45 900 45 883 62 c 1,6,-1
 977 101 l 1,7,8
 1029 46 1029 46 1041 -22 c 0,9,10
 1046 -52 1046 -52 1038.5 -79.5 c 128,-1,11
 1031 -107 1031 -107 1007 -131.5 c 128,-1,12
 983 -156 983 -156 957 -170 c 128,-1,13
 931 -184 931 -184 900 -194 c 0,14,15
 857 -209 857 -209 828 -214 c 1,16,-1
 789 -155 l 1,0,1
36 0 m 1,17,-1
 36 107 l 1,18,-1
 861 1387 l 1,19,-1
 90 1387 l 1,20,-1
 90 1519 l 1,21,-1
 1042 1515 l 1,22,-1
 1042 1392 l 1,23,-1
 248 142 l 1,24,-1
 1036 142 l 1,25,-1
 1036 0 l 1,26,-1
 36 0 l 1,17,-1
EndSplineSet
EndChar

StartChar: uni0225
Encoding: 549 549 484
Width: 829
Flags: W
LayerCount: 2
Fore
SplineSet
39 0 m 1,0,-1
 39 85 l 1,1,-1
 599 943 l 1,2,-1
 92 943 l 1,3,-1
 92 1055 l 1,4,-1
 768 1055 l 1,5,-1
 768 981 l 1,6,-1
 200 120 l 1,7,-1
 768 120 l 1,8,-1
 768 0 l 1,9,-1
 39 0 l 1,0,-1
511 -146 m 1,10,11
 596 -137 596 -137 637 -99 c 0,12,13
 657 -81 657 -81 663 -57 c 128,-1,14
 669 -33 669 -33 645.5 10.5 c 128,-1,15
 622 54 622 54 605 71 c 1,16,-1
 699 110 l 1,17,18
 751 55 751 55 763 -13 c 0,19,20
 768 -43 768 -43 760.5 -70.5 c 128,-1,21
 753 -98 753 -98 729 -122.5 c 128,-1,22
 705 -147 705 -147 679 -161 c 128,-1,23
 653 -175 653 -175 622 -185 c 0,24,25
 579 -200 579 -200 550 -205 c 1,26,-1
 511 -146 l 1,10,11
EndSplineSet
EndChar

StartChar: uni0234
Encoding: 564 564 499
Width: 407
Flags: W
LayerCount: 2
Fore
SplineSet
123 34 m 1,0,-1
 127 124 l 1,1,-1
 127 1515 l 1,2,-1
 259 1515 l 1,3,-1
 259 104 l 2,4,5
 259 29 259 29 260 -1 c 1,6,7
 304 10 304 10 345 10 c 0,8,9
 431 10 431 10 478.5 -42 c 128,-1,10
 526 -94 526 -94 526 -161.5 c 128,-1,11
 526 -229 526 -229 479 -281 c 128,-1,12
 432 -333 432 -333 363 -333 c 0,13,14
 294 -332 294 -332 251 -312 c 0,15,16
 171 -274 171 -274 140 -157 c 1,17,18
 81 -198 81 -198 33 -241 c 1,19,-1
 -8 -151 l 1,20,21
 62 -94 62 -94 127 -57 c 1,22,23
 123 8 123 8 123 34 c 1,0,-1
265 -98 m 1,24,25
 274 -197 274 -197 310 -221 c 0,26,27
 325 -231 325 -231 354 -231 c 128,-1,28
 383 -231 383 -231 405.5 -209.5 c 128,-1,29
 428 -188 428 -188 428 -162.5 c 128,-1,30
 428 -137 428 -137 406 -111.5 c 128,-1,31
 384 -86 384 -86 345 -86 c 128,-1,32
 306 -86 306 -86 265 -98 c 1,24,25
EndSplineSet
EndChar

StartChar: uni0235
Encoding: 565 565 500
Width: 976
Flags: W
LayerCount: 2
Fore
SplineSet
724 76 m 1,0,-1
 728 166 l 1,1,-1
 728 786 l 2,2,3
 728 861 728 861 674.5 907.5 c 128,-1,4
 621 954 621 954 559 954 c 0,5,6
 411 954 411 954 252 781 c 1,7,-1
 252 0 l 1,8,-1
 120 0 l 1,9,-1
 120 1055 l 1,10,-1
 252 1055 l 1,11,-1
 252 882 l 1,12,13
 340 969 340 969 419 1017.5 c 128,-1,14
 498 1066 498 1066 605 1066 c 128,-1,15
 712 1066 712 1066 786 996 c 128,-1,16
 860 926 860 926 860 786 c 2,17,-1
 860 146 l 2,18,19
 860 68 860 68 861 37 c 1,20,21
 904 52 904 52 946 52 c 0,22,23
 1032 52 1032 52 1079.5 0 c 128,-1,24
 1127 -52 1127 -52 1127 -119.5 c 128,-1,25
 1127 -187 1127 -187 1080 -239 c 128,-1,26
 1033 -291 1033 -291 964 -291 c 0,27,28
 837 -291 837 -291 786 -216 c 0,29,30
 768 -189 768 -189 755 -156 c 1,31,32
 716 -196 716 -196 697 -227 c 1,33,-1
 618 -173 l 1,34,35
 652 -115 652 -115 730 -43 c 1,36,37
 724 42 724 42 724 76 c 1,0,-1
867 -66 m 1,38,39
 877 -156 877 -156 911 -179 c 0,40,41
 926 -189 926 -189 955 -189 c 128,-1,42
 984 -189 984 -189 1006.5 -167.5 c 128,-1,43
 1029 -146 1029 -146 1029 -120.5 c 128,-1,44
 1029 -95 1029 -95 1007 -69.5 c 128,-1,45
 985 -44 985 -44 946.5 -44 c 128,-1,46
 908 -44 908 -44 867 -66 c 1,38,39
EndSplineSet
EndChar

StartChar: uni0236
Encoding: 566 566 501
Width: 652
Flags: W
LayerCount: 2
Fore
SplineSet
364 187 m 1,0,1
 415 207 415 207 462 207 c 0,2,3
 550 207 550 207 600 158 c 128,-1,4
 650 109 650 109 650 44.5 c 128,-1,5
 650 -20 650 -20 600.5 -64.5 c 128,-1,6
 551 -109 551 -109 478 -109 c 0,7,8
 342 -108 342 -108 288 -14 c 0,9,10
 277 5 277 5 268 26 c 1,11,-1
 240 2 l 2,12,13
 215 -20 215 -20 188 -48 c 2,14,-1
 159 -79 l 1,15,-1
 118 11 l 1,16,17
 124 16 124 16 157 46 c 128,-1,18
 190 76 190 76 219 98 c 2,19,-1
 239 113 l 1,20,21
 230 150 230 150 228 196.5 c 128,-1,22
 226 243 226 243 224 279 c 128,-1,23
 222 315 222 315 222 337 c 128,-1,24
 222 359 222 359 224 380 c 1,25,-1
 224 943 l 1,26,-1
 46 943 l 1,27,-1
 46 1055 l 1,28,-1
 224 1055 l 1,29,-1
 224 1440 l 1,30,-1
 356 1440 l 1,31,-1
 356 1055 l 1,32,-1
 598 1055 l 1,33,-1
 598 943 l 1,34,-1
 356 943 l 1,35,-1
 356 360 l 2,36,37
 356 260 356 260 364 187 c 1,0,1
462 -7 m 0,38,39
 552 -7 552 -7 552 45 c 0,40,41
 552 67 552 67 527 89 c 128,-1,42
 502 111 502 111 462 111 c 128,-1,43
 422 111 422 111 380 95 c 1,44,45
 406 -7 406 -7 462 -7 c 0,38,39
EndSplineSet
EndChar

StartChar: uni0237
Encoding: 567 567 502
Width: 386
Flags: W
LayerCount: 2
Fore
SplineSet
-56 -225 m 1,0,1
 41 -225 41 -225 84 -191 c 128,-1,2
 127 -157 127 -157 127 -29 c 2,3,-1
 127 1055 l 1,4,-1
 259 1055 l 1,5,-1
 259 0 l 2,6,7
 259 -168 259 -168 217 -236 c 0,8,9
 184 -290 184 -290 156.5 -304 c 128,-1,10
 129 -318 129 -318 111 -324 c 0,11,12
 95 -330 95 -330 65 -333 c 0,13,14
 25 -337 25 -337 -9.5 -337 c 128,-1,15
 -44 -337 -44 -337 -48 -337 c 1,16,-1
 -56 -225 l 1,0,1
EndSplineSet
EndChar

StartChar: uni0238
Encoding: 568 568 503
Width: 1615
Flags: W
LayerCount: 2
Fore
SplineSet
873 278 m 1,0,1
 974 140 974 140 1051 114 c 0,2,3
 1089 102 1089 102 1148 102 c 1,4,5
 1207 100 1207 100 1261 132 c 1,6,7
 1313 164 1313 164 1345 220 c 0,8,9
 1407 332 1407 332 1408 510 c 1,10,11
 1408 954 1408 954 1110 954 c 0,12,13
 979 954 979 954 873 803 c 1,14,-1
 873 278 l 1,0,1
206 510 m 1,15,16
 207 332 207 332 269 220 c 0,17,18
 336 100 336 100 478 101 c 0,19,20
 573 101 573 101 634 155 c 0,21,22
 683 198 683 198 741 278 c 1,23,-1
 741 803 l 1,24,25
 635 954 635 954 504 954 c 0,26,27
 206 954 206 954 206 510 c 1,15,16
741 166 m 1,28,29
 639 -11 639 -11 457 -11 c 0,30,31
 366 -11 366 -11 291 34.5 c 128,-1,32
 216 80 216 80 170 155 c 0,33,34
 74 312 74 312 74 510 c 0,35,36
 74 657 74 657 121.5 783 c 128,-1,37
 169 909 169 909 261 987.5 c 128,-1,38
 353 1066 353 1066 457.5 1066 c 128,-1,39
 562 1066 562 1066 642 1012 c 128,-1,40
 722 958 722 958 741 917 c 1,41,-1
 741 1515 l 1,42,-1
 873 1515 l 1,43,-1
 873 917 l 1,44,45
 892 958 892 958 972 1012 c 128,-1,46
 1052 1066 1052 1066 1144 1066 c 0,47,48
 1324 1066 1324 1066 1432 911.5 c 128,-1,49
 1540 757 1540 757 1540 510 c 1,50,51
 1539 364 1539 364 1483 234 c 0,52,53
 1381 -6 1381 -6 1157 -11 c 1,54,55
 1010 -8 1010 -8 907 118 c 0,56,57
 887 142 887 142 873 166 c 1,58,59
 873 12 873 12 848 0 c 1,60,-1
 766 0 l 1,61,62
 741 12 741 12 741 166 c 1,28,29
EndSplineSet
EndChar

StartChar: uni023A
Encoding: 570 570 505
Width: 1116
Flags: W
LayerCount: 2
Fore
SplineSet
210 -93 m 1,0,-1
 812 1557 l 1,1,-1
 920 1567 l 1,2,-1
 319 -84 l 1,3,-1
 210 -93 l 1,0,-1
344 602 m 1,4,-1
 784 602 l 1,5,-1
 563 1389 l 1,6,-1
 344 602 l 1,4,-1
23 0 m 1,7,-1
 455 1515 l 1,8,-1
 671 1515 l 1,9,-1
 1103 0 l 1,10,-1
 949 0 l 1,11,-1
 819 478 l 1,12,-1
 310 478 l 1,13,-1
 177 0 l 1,14,-1
 23 0 l 1,7,-1
EndSplineSet
EndChar

StartChar: uni023F
Encoding: 575 575 510
Width: 844
Flags: W
LayerCount: 2
Fore
SplineSet
160 105 m 1,0,1
 291 165 291 165 378 92 c 0,2,3
 441 39 441 39 449 -41 c 128,-1,4
 457 -121 457 -121 505 -161.5 c 128,-1,5
 553 -202 553 -202 637 -160 c 1,6,-1
 664 -236 l 1,7,8
 533 -295 533 -295 446 -222 c 0,9,10
 385 -171 385 -171 376 -89.5 c 128,-1,11
 367 -8 367 -8 319 32 c 128,-1,12
 271 72 271 72 188 30 c 1,13,-1
 160 105 l 1,0,1
66 200 m 1,14,-1
 165 264 l 1,15,16
 218 182 218 182 283 141.5 c 128,-1,17
 348 101 348 101 442 101 c 0,18,19
 540 101 540 101 601 154 c 0,20,21
 652 198 652 198 652 262 c 128,-1,22
 652 326 652 326 630 364 c 128,-1,23
 608 402 608 402 568 426 c 0,24,25
 501 465 501 465 428.5 482 c 128,-1,26
 356 499 356 499 314.5 513.5 c 128,-1,27
 273 528 273 528 229 553 c 128,-1,28
 185 578 185 578 153 609 c 0,29,30
 80 680 80 680 80 796.5 c 128,-1,31
 80 913 80 913 173.5 989.5 c 128,-1,32
 267 1066 267 1066 412 1066 c 0,33,34
 583 1066 583 1066 701 943 c 0,35,36
 723 920 723 920 738 898 c 1,37,-1
 647 830 l 1,38,39
 640 837 640 837 619 859.5 c 128,-1,40
 598 882 598 882 592 888 c 2,41,-1
 566 909 l 1,42,43
 548 926 548 926 536 930 c 2,44,-1
 502 942 l 2,45,46
 470 954 470 954 394 954 c 128,-1,47
 318 954 318 954 263 910.5 c 128,-1,48
 208 867 208 867 208 815 c 128,-1,49
 208 763 208 763 226 731.5 c 128,-1,50
 244 700 244 700 280 677 c 0,51,52
 337 641 337 641 421.5 615.5 c 128,-1,53
 506 590 506 590 522.5 584.5 c 128,-1,54
 539 579 539 579 580.5 562.5 c 128,-1,55
 622 546 622 546 645.5 531 c 128,-1,56
 669 516 669 516 699 492 c 128,-1,57
 729 468 729 468 745 440 c 0,58,59
 784 373 784 373 784 292 c 0,60,61
 784 159 784 159 683 74 c 128,-1,62
 582 -11 582 -11 449 -11 c 128,-1,63
 316 -11 316 -11 225.5 39.5 c 128,-1,64
 135 90 135 90 66 200 c 1,14,-1
EndSplineSet
EndChar

StartChar: uni0240
Encoding: 576 576 511
Width: 817
Flags: W
LayerCount: 2
Fore
SplineSet
177 0 m 2,0,1
 242 0 242 0 305 -58 c 1,2,-1
 359 -106 l 1,3,4
 428 -164 428 -164 511 -163 c 1,5,6
 682 -163 682 -163 770 24 c 1,7,-1
 671 81 l 1,8,9
 619 -42 619 -42 520 -42 c 0,10,11
 453 -42 453 -42 401 15 c 0,12,13
 378 39 378 39 354 63 c 0,14,15
 296 120 296 120 202 120 c 1,16,-1
 770 981 l 1,17,-1
 770 1055 l 1,18,-1
 94 1055 l 1,19,-1
 94 943 l 1,20,-1
 601 943 l 1,21,-1
 41 85 l 1,22,-1
 41 0 l 1,23,-1
 177 0 l 2,0,1
EndSplineSet
EndChar

StartChar: uni0241
Encoding: 577 577 512
Width: 737
Flags: W
LayerCount: 2
Fore
SplineSet
342 0 m 1,0,-1
 210 0 l 1,1,-1
 210 469 l 2,2,3
 210 592 210 592 333 738 c 2,4,-1
 435 859 l 2,5,6
 558 1004 558 1004 558 1120 c 128,-1,7
 558 1236 558 1236 489 1311 c 128,-1,8
 420 1386 420 1386 349.5 1386 c 128,-1,9
 279 1386 279 1386 237 1370.5 c 128,-1,10
 195 1355 195 1355 172 1329 c 128,-1,11
 149 1303 149 1303 115 1246 c 1,12,-1
 15 1314 l 1,13,14
 96 1467 96 1467 228 1501 c 0,15,16
 280 1515 280 1515 364 1515 c 128,-1,17
 448 1515 448 1515 528.5 1460 c 128,-1,18
 609 1405 609 1405 651.5 1317 c 128,-1,19
 694 1229 694 1229 694 1138 c 0,20,21
 694 978 694 978 570 826 c 1,22,-1
 466 704 l 1,23,24
 342 563 342 563 342 469 c 2,25,-1
 342 0 l 1,0,-1
EndSplineSet
EndChar

StartChar: uni0242
Encoding: 578 578 513
Width: 733
Flags: W
LayerCount: 2
Fore
SplineSet
9 903 m 1,0,1
 90 1056 90 1056 222 1090 c 0,2,3
 274 1104 274 1104 358 1104 c 128,-1,4
 442 1104 442 1104 522.5 1049 c 128,-1,5
 603 994 603 994 645.5 906 c 128,-1,6
 688 818 688 818 688 727 c 0,7,8
 688 566 688 566 564 414 c 1,9,-1
 460 294 l 1,10,11
 336 153 336 153 336 58 c 2,12,-1
 336 -1 l 1,13,-1
 204 -1 l 1,14,-1
 204 58 l 2,15,16
 204 182 204 182 327 328 c 2,17,-1
 429 448 l 2,18,19
 552 593 552 593 552 709 c 128,-1,20
 552 825 552 825 483 900 c 128,-1,21
 414 975 414 975 343.5 975 c 128,-1,22
 273 975 273 975 231 959.5 c 128,-1,23
 189 944 189 944 166 918 c 128,-1,24
 143 892 143 892 109 835 c 1,25,-1
 9 903 l 1,0,1
EndSplineSet
EndChar

StartChar: uni0246
Encoding: 582 582 517
Width: 1046
Flags: W
LayerCount: 2
Fore
SplineSet
179 -72 m 1,0,-1
 781 1578 l 1,1,-1
 889 1588 l 1,2,-1
 288 -63 l 1,3,-1
 179 -72 l 1,0,-1
141 0 m 1,4,-1
 141 1515 l 1,5,-1
 962 1515 l 1,6,-1
 962 1391 l 1,7,-1
 289 1391 l 1,8,-1
 289 858 l 1,9,-1
 772 858 l 1,10,-1
 772 734 l 1,11,-1
 289 734 l 1,12,-1
 289 133 l 1,13,-1
 1000 133 l 1,14,-1
 1000 0 l 1,15,-1
 141 0 l 1,4,-1
EndSplineSet
EndChar

StartChar: uni024A
Encoding: 586 586 521
Width: 1344
Flags: W
LayerCount: 2
Fore
SplineSet
1052 366 m 1,0,-1
 1052 1116 l 1,1,2
 960 1241 960 1241 914 1287 c 0,3,4
 798 1403 798 1403 661.5 1403 c 128,-1,5
 525 1403 525 1403 425 1315.5 c 128,-1,6
 325 1228 325 1228 277 1090 c 128,-1,7
 229 952 229 952 229 794 c 128,-1,8
 229 636 229 636 257.5 517.5 c 128,-1,9
 286 399 286 399 332 324.5 c 128,-1,10
 378 250 378 250 440.5 200.5 c 128,-1,11
 503 151 503 151 566 131 c 128,-1,12
 629 111 629 111 696 111.5 c 128,-1,13
 763 112 763 112 834.5 153.5 c 128,-1,14
 906 195 906 195 956 248 c 128,-1,15
 1006 301 1006 301 1052 366 c 1,0,-1
952 1394 m 0,16,17
 1021 1331 1021 1331 1052 1277 c 1,18,-1
 1077 1511 l 1,19,-1
 1200 1511 l 1,20,-1
 1200 0 l 2,21,22
 1200 -209 1200 -209 1280 -281 c 0,23,24
 1311 -309 1311 -309 1371.5 -334 c 128,-1,25
 1432 -359 1432 -359 1516 -360 c 1,26,-1
 1516 -501 l 1,27,28
 1357 -500 1357 -500 1235 -446 c 0,29,30
 1109 -391 1109 -391 1073 -242 c 0,31,32
 1051 -154 1051 -154 1052 1 c 1,33,-1
 1052 203 l 1,34,35
 1026 152 1026 152 916 76 c 0,36,37
 787 -12 787 -12 659.5 -12.5 c 128,-1,38
 532 -13 532 -13 436 33 c 128,-1,39
 340 79 340 79 275 156.5 c 128,-1,40
 210 234 210 234 165.5 337.5 c 128,-1,41
 121 441 121 441 101 553.5 c 128,-1,42
 81 666 81 666 81 779 c 128,-1,43
 81 892 81 892 103 997.5 c 128,-1,44
 125 1103 125 1103 171 1198.5 c 128,-1,45
 217 1294 217 1294 280.5 1367 c 128,-1,46
 344 1440 344 1440 434.5 1483.5 c 128,-1,47
 525 1527 525 1527 609.5 1527 c 128,-1,48
 694 1527 694 1527 757 1507 c 128,-1,49
 820 1487 820 1487 866 1458.5 c 128,-1,50
 912 1430 912 1430 952 1394 c 0,16,17
EndSplineSet
EndChar

StartChar: uni024B
Encoding: 587 587 522
Width: 1005
Flags: W
LayerCount: 2
Fore
SplineSet
268 234 m 1,0,1
 295 184 295 184 335 154 c 0,2,3
 404 101 404 101 490 101 c 0,4,5
 646 101 646 101 753 254 c 1,6,-1
 753 779 l 1,7,8
 693 861 693 861 649 894 c 1,9,10
 572 954 572 954 478 954 c 128,-1,11
 384 954 384 954 321.5 899 c 128,-1,12
 259 844 259 844 232.5 755 c 128,-1,13
 206 666 206 666 206 554.5 c 128,-1,14
 206 443 206 443 223 363 c 128,-1,15
 240 283 240 283 268 234 c 1,0,1
213 954 m 0,16,17
 311 1066 311 1066 457 1066 c 0,18,19
 600 1066 600 1066 717 939 c 0,20,21
 741 913 741 913 753 891 c 1,22,-1
 770 1055 l 1,23,-1
 885 1055 l 1,24,25
 885 761 885 761 885 443 c 2,26,-1
 885 78 l 2,27,28
 885 32 885 32 885 15 c 2,29,-1
 885 -2 l 2,30,31
 885 -147 885 -147 941 -198 c 1,32,33
 974 -226 974 -226 1077 -229 c 1,34,-1
 1077 -352 l 1,35,36
 1008 -352 1008 -352 933 -331.5 c 128,-1,37
 858 -311 858 -311 820.5 -272 c 128,-1,38
 783 -233 783 -233 768 -171.5 c 128,-1,39
 753 -110 753 -110 753 -3 c 2,40,-1
 753 140 l 1,41,42
 734 100 734 100 648 44.5 c 128,-1,43
 562 -11 562 -11 475.5 -11 c 128,-1,44
 389 -11 389 -11 321.5 21 c 128,-1,45
 254 53 254 53 209 107.5 c 128,-1,46
 164 162 164 162 133 234.5 c 128,-1,47
 102 307 102 307 88 385.5 c 128,-1,48
 74 464 74 464 74 543 c 128,-1,49
 74 622 74 622 89.5 695.5 c 128,-1,50
 105 769 105 769 137 836 c 128,-1,51
 169 903 169 903 213 954 c 0,16,17
EndSplineSet
EndChar

StartChar: uni024F
Encoding: 591 591 526
Width: 1020
Flags: W
LayerCount: 2
Fore
SplineSet
396 564 m 1,0,-1
 524 196 l 1,1,-1
 644 564 l 1,2,-1
 396 564 l 1,0,-1
85 -385 m 1,3,-1
 95 -264 l 1,4,5
 131 -281 131 -281 191 -281 c 128,-1,6
 251 -281 251 -281 290 -265.5 c 128,-1,7
 329 -250 329 -250 354 -225.5 c 128,-1,8
 379 -201 379 -201 399.5 -171.5 c 128,-1,9
 420 -142 420 -142 432 -112 c 0,10,11
 454 -56 454 -56 462 -3 c 1,12,-1
 259 564 l 1,13,-1
 46 564 l 1,14,-1
 46 676 l 1,15,-1
 219 676 l 1,16,-1
 83 1055 l 1,17,-1
 225 1055 l 1,18,-1
 357 676 l 1,19,-1
 681 676 l 1,20,-1
 804 1055 l 1,21,-1
 938 1055 l 1,22,-1
 813 676 l 1,23,-1
 974 676 l 1,24,-1
 974 564 l 1,25,-1
 777 564 l 1,26,-1
 570 -64 l 2,27,28
 514 -235 514 -235 456 -296 c 0,29,30
 394 -362 394 -362 332.5 -377.5 c 128,-1,31
 271 -393 271 -393 208 -393 c 128,-1,32
 145 -393 145 -393 85 -385 c 1,3,-1
EndSplineSet
EndChar

StartChar: uni0253
Encoding: 595 595 528
Width: 995
Flags: W
LayerCount: 2
Fore
SplineSet
164 1513 m 1,0,1
 203 1524 203 1524 265 1528 c 1,2,3
 308 1533 308 1533 348.5 1520.5 c 128,-1,4
 389 1508 389 1508 417 1474.5 c 128,-1,5
 445 1441 445 1441 444.5 1384 c 128,-1,6
 444 1327 444 1327 432 1290 c 1,7,-1
 330 1286 l 1,8,9
 339 1308 339 1308 342 1358 c 128,-1,10
 345 1408 345 1408 329 1427.5 c 128,-1,11
 313 1447 313 1447 288 1455 c 0,12,13
 235 1471 235 1471 154 1443 c 1,14,-1
 164 1513 l 1,0,1
253 278 m 1,15,16
 354 140 354 140 431 114 c 0,17,18
 469 102 469 102 528 101 c 128,-1,19
 587 100 587 100 641 132 c 1,20,21
 693 164 693 164 725 220 c 0,22,23
 787 332 787 332 788 510 c 1,24,25
 788 954 788 954 490 954 c 0,26,27
 359 954 359 954 253 803 c 1,28,-1
 253 278 l 1,15,16
253 166 m 1,29,30
 253 12 253 12 228 0 c 1,31,-1
 95 0 l 1,32,33
 121 55 121 55 121 146 c 2,34,-1
 121 1515 l 1,35,-1
 253 1515 l 1,36,-1
 253 917 l 1,37,38
 272 958 272 958 352 1012 c 128,-1,39
 432 1066 432 1066 524 1066 c 0,40,41
 704 1066 704 1066 812 911.5 c 128,-1,42
 920 757 920 757 920 510 c 1,43,44
 919 364 919 364 863 234 c 0,45,46
 761 -6 761 -6 537 -11 c 1,47,48
 390 -8 390 -8 287 118 c 0,49,50
 267 142 267 142 253 166 c 1,29,30
EndSplineSet
EndChar

StartChar: uni0255
Encoding: 597 597 530
Width: 884
Flags: W
LayerCount: 2
Fore
SplineSet
678 272 m 1,0,1
 644 292 644 292 603.5 273 c 128,-1,2
 563 254 563 254 550 230 c 0,3,4
 515 169 515 169 491 101 c 1,5,6
 494 101 494 101 520.5 101 c 128,-1,7
 547 101 547 101 605.5 126.5 c 128,-1,8
 664 152 664 152 690 190 c 0,9,10
 701 205 701 205 701 225.5 c 128,-1,11
 701 246 701 246 678 272 c 1,0,1
395 117 m 1,12,13
 461 312 461 312 546 354 c 0,14,15
 594 378 594 378 618 378 c 128,-1,16
 642 378 642 378 666.5 377.5 c 128,-1,17
 691 377 691 377 733.5 353 c 128,-1,18
 776 329 776 329 796 289 c 128,-1,19
 816 249 816 249 816 224.5 c 128,-1,20
 816 200 816 200 810.5 168 c 128,-1,21
 805 136 805 136 771 91.5 c 128,-1,22
 737 47 737 47 664.5 18 c 128,-1,23
 592 -11 592 -11 496 -11 c 0,24,25
 477 -11 477 -11 459 -10 c 1,26,27
 451 -44 451 -44 446 -80 c 1,28,-1
 352 -48 l 1,29,30
 357 -21 357 -21 363 5 c 1,31,32
 242 36 242 36 174 128 c 0,33,34
 70 268 70 268 71 520 c 1,35,36
 71 1066 71 1066 496 1066 c 0,37,38
 601 1066 601 1066 673 1016 c 0,39,40
 744 966 744 966 767 926 c 0,41,42
 807 858 807 858 822 813 c 1,43,-1
 716 765 l 1,44,45
 714 785 714 785 694.5 824 c 128,-1,46
 675 863 675 863 653 888 c 128,-1,47
 631 913 631 913 589.5 933.5 c 128,-1,48
 548 954 548 954 496 954 c 0,49,50
 203 954 203 954 203 529 c 0,51,52
 203 183 203 183 395 117 c 1,12,13
EndSplineSet
EndChar

StartChar: uni0256
Encoding: 598 598 531
Width: 995
Flags: W
LayerCount: 2
Fore
SplineSet
869 119 m 1,0,1
 856 35 856 35 881 -14 c 0,2,3
 893 -39 893 -39 915 -51 c 128,-1,4
 937 -63 937 -63 984.5 -51 c 128,-1,5
 1032 -39 1032 -39 1054 -26 c 1,6,-1
 1067 -128 l 1,7,8
 1001 -164 1001 -164 931 -158 c 0,9,10
 901 -155 901 -155 876 -141 c 128,-1,11
 851 -127 851 -127 834 -97 c 128,-1,12
 817 -67 817 -67 810 -38.5 c 128,-1,13
 803 -10 803 -10 801 23 c 0,14,15
 799 68 799 68 801 98 c 1,16,-1
 869 119 l 1,0,1
206 510 m 1,17,18
 207 332 207 332 269 220 c 0,19,20
 336 100 336 100 478 101 c 0,21,22
 573 101 573 101 634 155 c 0,23,24
 683 198 683 198 741 278 c 1,25,-1
 741 803 l 1,26,27
 635 954 635 954 504 954 c 0,28,29
 206 954 206 954 206 510 c 1,17,18
741 166 m 1,30,31
 639 -11 639 -11 457 -11 c 0,32,33
 366 -11 366 -11 291 34.5 c 128,-1,34
 216 80 216 80 170 155 c 0,35,36
 74 312 74 312 74 510 c 0,37,38
 74 657 74 657 121.5 783 c 128,-1,39
 169 909 169 909 261 987.5 c 128,-1,40
 353 1066 353 1066 457.5 1066 c 128,-1,41
 562 1066 562 1066 642 1012 c 128,-1,42
 722 958 722 958 741 917 c 1,43,-1
 741 1515 l 1,44,-1
 873 1515 l 1,45,-1
 873 146 l 2,46,47
 873 116 873 116 881.5 67.5 c 128,-1,48
 890 19 890 19 899 0 c 1,49,-1
 766 0 l 1,50,51
 741 12 741 12 741 166 c 1,30,31
EndSplineSet
EndChar

StartChar: uni0257
Encoding: 599 599 532
Width: 994
Flags: W
LayerCount: 2
Fore
SplineSet
778 1369 m 1,0,1
 775 1408 775 1408 781 1470 c 0,2,3
 785 1515 785 1515 803.5 1552 c 128,-1,4
 822 1589 822 1589 860.5 1611 c 128,-1,5
 899 1633 899 1633 955 1622.5 c 128,-1,6
 1011 1612 1011 1612 1044 1594 c 1,7,-1
 1031 1493 l 1,8,9
 1010 1505 1010 1505 962 1517 c 128,-1,10
 914 1529 914 1529 892 1516.5 c 128,-1,11
 870 1504 870 1504 858 1480 c 0,12,13
 833 1431 833 1431 846 1346 c 1,14,-1
 778 1369 l 1,0,1
206 510 m 1,15,16
 207 332 207 332 269 220 c 0,17,18
 336 100 336 100 478 101 c 0,19,20
 573 101 573 101 634 155 c 0,21,22
 683 198 683 198 741 278 c 1,23,-1
 741 803 l 1,24,25
 635 954 635 954 504 954 c 0,26,27
 206 954 206 954 206 510 c 1,15,16
741 166 m 1,28,29
 639 -11 639 -11 457 -11 c 0,30,31
 366 -11 366 -11 291 34.5 c 128,-1,32
 216 80 216 80 170 155 c 0,33,34
 74 312 74 312 74 510 c 0,35,36
 74 657 74 657 121.5 783 c 128,-1,37
 169 909 169 909 261 987.5 c 128,-1,38
 353 1066 353 1066 457.5 1066 c 128,-1,39
 562 1066 562 1066 642 1012 c 128,-1,40
 722 958 722 958 741 917 c 1,41,-1
 741 1515 l 1,42,-1
 873 1515 l 1,43,-1
 873 146 l 2,44,45
 873 116 873 116 881.5 67.5 c 128,-1,46
 890 19 890 19 899 0 c 1,47,-1
 766 0 l 1,48,49
 741 12 741 12 741 166 c 1,28,29
EndSplineSet
EndChar

StartChar: uni0258
Encoding: 600 600 533
Width: 919
Flags: W
LayerCount: 2
Fore
SplineSet
208 625 m 1,0,-1
 704 625 l 1,1,2
 698 860 698 860 554 930 c 0,3,4
 506 954 506 954 440.5 954 c 128,-1,5
 375 954 375 954 326.5 920 c 128,-1,6
 278 886 278 886 254 832 c 0,7,8
 210 732 210 732 208 625 c 1,0,-1
73 229 m 1,9,-1
 164 292 l 1,10,11
 272 101 272 101 426 101 c 0,12,13
 507 101 507 101 560.5 139.5 c 128,-1,14
 614 178 614 178 643 222 c 0,15,16
 710 324 710 324 710 513 c 1,17,-1
 76 513 l 1,18,19
 76 888 76 888 250 1008 c 0,20,21
 335 1066 335 1066 442 1066 c 0,22,23
 627 1066 627 1066 735 920 c 0,24,25
 842 776 842 776 842 502 c 0,26,27
 842 297 842 297 742 148 c 0,28,29
 693 75 693 75 611 32 c 128,-1,30
 529 -11 529 -11 445 -11 c 128,-1,31
 361 -11 361 -11 299 15.5 c 128,-1,32
 237 42 237 42 193 82 c 0,33,34
 112 156 112 156 73 229 c 1,9,-1
EndSplineSet
EndChar

StartChar: uni0292
Encoding: 658 658 535
Width: 792
Flags: W
LayerCount: 2
Fore
SplineSet
168 378 m 1,0,-1
 168 463 l 1,1,-1
 537 943 l 1,2,-1
 30 943 l 1,3,-1
 30 1055 l 1,4,-1
 706 1055 l 1,5,-1
 706 981 l 1,6,-1
 331 497 l 1,7,-1
 344 497 l 1,8,9
 455 498 455 498 565 436 c 0,10,11
 634 398 634 398 682 318 c 0,12,13
 732 235 732 235 732 101 c 0,14,15
 732 -75 732 -75 618.5 -200 c 128,-1,16
 505 -325 505 -325 343 -325 c 0,17,18
 219 -325 219 -325 121.5 -265 c 128,-1,19
 24 -205 24 -205 -21 -137 c 1,20,-1
 57 -68 l 1,21,22
 186 -216 186 -216 343 -216 c 0,23,24
 446 -216 446 -216 535 -119 c 128,-1,25
 624 -22 624 -22 624 93 c 0,26,27
 624 233 624 233 547 299 c 1,28,29
 474 363 474 363 370 373 c 0,30,31
 242 386 242 386 168 378 c 1,0,-1
EndSplineSet
EndChar

StartChar: caron
Encoding: 711 711 536
Width: 624
Flags: W
LayerCount: 2
Fore
SplineSet
90 1354 m 1,0,-1
 155 1419 l 1,1,-1
 312 1262 l 1,2,-1
 468 1418 l 1,3,-1
 534 1354 l 1,4,-1
 312 1132 l 1,5,-1
 90 1354 l 1,0,-1
EndSplineSet
EndChar

StartChar: breve
Encoding: 728 728 537
Width: 530
Flags: W
LayerCount: 2
Fore
SplineSet
471 1250 m 1,0,1
 406 1115 406 1115 265 1115 c 128,-1,2
 124 1115 124 1115 59 1250 c 1,3,-1
 128 1290 l 1,4,5
 146 1248 146 1248 185 1221 c 128,-1,6
 224 1194 224 1194 265 1194 c 128,-1,7
 306 1194 306 1194 345 1221 c 128,-1,8
 384 1248 384 1248 402 1290 c 1,9,-1
 471 1250 l 1,0,1
EndSplineSet
EndChar

StartChar: ogonek
Encoding: 731 731 540
Width: 350
Flags: W
LayerCount: 2
Fore
SplineSet
236 -303 m 2,0,1
 22 -303 22 -303 22 -183 c 0,2,3
 22 -120 22 -120 47 -70 c 1,4,-1
 58 -49 l 2,5,6
 66 -33 66 -33 73.5 -23 c 128,-1,7
 81 -13 81 -13 90 0 c 1,8,-1
 180 0 l 1,9,10
 101 -96 101 -96 101 -183 c 0,11,12
 101 -227 101 -227 254 -227 c 1,13,-1
 254 -303 l 1,14,-1
 236 -303 l 2,0,1
EndSplineSet
EndChar

StartChar: uni0311
Encoding: 785 785 544
Width: 530
Flags: W
LayerCount: 2
Fore
SplineSet
59 1155 m 1,0,1
 124 1290 124 1290 265 1290 c 128,-1,2
 406 1290 406 1290 471 1155 c 1,3,-1
 402 1115 l 1,4,5
 384 1157 384 1157 345 1184 c 128,-1,6
 306 1211 306 1211 265 1211 c 128,-1,7
 224 1211 224 1211 185 1184 c 128,-1,8
 146 1157 146 1157 128 1115 c 1,9,-1
 59 1155 l 1,0,1
EndSplineSet
EndChar

StartChar: uni031B
Encoding: 795 795 545
Width: 350
Flags: W
LayerCount: 2
Fore
SplineSet
52 -175 m 1,0,1
 132 -144 132 -144 162 -98 c 0,2,3
 177 -75 177 -75 176.5 -50 c 128,-1,4
 176 -25 176 -25 142 10.5 c 128,-1,5
 108 46 108 46 86 58 c 1,6,-1
 167 121 l 1,7,8
 232 81 232 81 261 18 c 0,9,10
 274 -10 274 -10 274 -38.5 c 128,-1,11
 274 -67 274 -67 257 -96.5 c 128,-1,12
 240 -126 240 -126 218.5 -146.5 c 128,-1,13
 197 -167 197 -167 169 -185 c 0,14,15
 132 -210 132 -210 105 -222 c 1,16,-1
 52 -175 l 1,0,1
EndSplineSet
EndChar

StartChar: uni0322
Encoding: 802 802 546
Width: 350
Flags: W
LayerCount: 2
Fore
SplineSet
274 -175 m 1,0,1
 194 -144 194 -144 164 -98 c 0,2,3
 149 -75 149 -75 149.5 -50 c 128,-1,4
 150 -25 150 -25 184.5 11 c 128,-1,5
 219 47 219 47 240 58 c 1,6,-1
 159 121 l 1,7,8
 126 101 126 101 89 57.5 c 128,-1,9
 52 14 52 14 52 -30 c 128,-1,10
 52 -74 52 -74 75 -109 c 128,-1,11
 98 -144 98 -144 134 -169 c 0,12,13
 185 -205 185 -205 221 -222 c 1,14,-1
 274 -175 l 1,0,1
EndSplineSet
EndChar

StartChar: uni0337
Encoding: 823 823 547
Width: 980
Flags: W
LayerCount: 2
Fore
SplineSet
-156 348 m 1,0,-1
 -156 456 l 1,1,-1
 588 1200 l 1,2,-1
 588 1091 l 1,3,-1
 -156 348 l 1,0,-1
EndSplineSet
EndChar

StartChar: Omega
Encoding: 937 937 549
Width: 1398
Flags: W
LayerCount: 2
Fore
SplineSet
547 142 m 1,0,1
 408 206 408 206 328.5 395.5 c 128,-1,2
 249 585 249 585 249 801 c 0,3,4
 249 1065 249 1065 362 1232 c 0,5,6
 481 1408 481 1408 708 1408 c 0,7,8
 820 1408 820 1408 907 1356 c 1,9,10
 994 1302 994 1302 1045 1214 c 0,11,12
 1148 1035 1148 1035 1148 801 c 0,13,14
 1148 608 1148 608 1081 418 c 0,15,16
 1048 324 1048 324 991 250 c 128,-1,17
 934 176 934 176 863 142 c 1,18,-1
 863 0 l 1,19,-1
 1296 0 l 1,20,-1
 1296 142 l 1,21,-1
 1080 142 l 1,22,23
 1183 248 1183 248 1239.5 433.5 c 128,-1,24
 1296 619 1296 619 1296 765.5 c 128,-1,25
 1296 912 1296 912 1272.5 1017 c 128,-1,26
 1249 1122 1249 1122 1201 1216 c 1,27,28
 1151 1310 1151 1310 1083 1380 c 0,29,30
 934 1532 934 1532 708 1532 c 0,31,32
 361 1532 361 1532 197 1224 c 0,33,34
 101 1044 101 1044 101 801 c 0,35,36
 101 620 101 620 162.5 434.5 c 128,-1,37
 224 249 224 249 331 142 c 1,38,-1
 101 142 l 1,39,-1
 101 0 l 1,40,-1
 547 0 l 1,41,-1
 547 142 l 1,0,1
EndSplineSet
EndChar

StartChar: delta
Encoding: 948 948 552
Width: 1055
Flags: W
LayerCount: 2
Fore
SplineSet
314 191 m 0,0,1
 400 101 400 101 531 101 c 0,2,3
 612 101 612 101 677 137.5 c 128,-1,4
 742 174 742 174 781 235 c 0,5,6
 861 360 861 360 861 532.5 c 128,-1,7
 861 705 861 705 774 819 c 128,-1,8
 687 933 687 933 531.5 933 c 128,-1,9
 376 933 376 933 285 820 c 128,-1,10
 194 707 194 707 194 512 c 128,-1,11
 194 317 194 317 314 191 c 0,0,1
536 1045 m 1,12,-1
 135 1391 l 1,13,-1
 135 1515 l 1,14,-1
 912 1515 l 1,15,-1
 912 1391 l 1,16,-1
 309 1391 l 1,17,-1
 823 946 l 2,18,19
 867 907 867 907 910 827 c 0,20,21
 993 670 993 670 993 516 c 0,22,23
 993 309 993 309 861 150 c 0,24,25
 801 77 801 77 714 33 c 128,-1,26
 627 -11 627 -11 531 -11 c 0,27,28
 330 -11 330 -11 196 138 c 128,-1,29
 62 287 62 287 62 523 c 128,-1,30
 62 759 62 759 192 902 c 128,-1,31
 322 1045 322 1045 531 1045 c 0,32,33
 534 1045 534 1045 536 1045 c 1,12,-1
EndSplineSet
EndChar

StartChar: afii10026
Encoding: 1048 1048 561
Width: 1283
Flags: W
LayerCount: 2
Fore
SplineSet
144 0 m 1,0,-1
 144 1515 l 1,1,-1
 292 1515 l 1,2,-1
 292 361 l 1,3,-1
 903 1515 l 1,4,-1
 1139 1515 l 1,5,-1
 1139 0 l 1,6,-1
 991 0 l 1,7,-1
 991 1368 l 1,8,-1
 271 0 l 1,9,-1
 144 0 l 1,0,-1
EndSplineSet
EndChar

StartChar: uni2011
Encoding: 8208 8208 691
AltUni2: 002015.ffffffff.0 002014.ffffffff.0 002013.ffffffff.0 002012.ffffffff.0 002011.ffffffff.0
Width: 708
Flags: W
LayerCount: 2
Fore
SplineSet
92 694 m 1,0,-1
 92 786 l 1,1,-1
 616 786 l 1,2,-1
 616 694 l 1,3,-1
 92 694 l 1,0,-1
EndSplineSet
EndChar

StartChar: dagger
Encoding: 8224 8224 694
Width: 870
Flags: W
LayerCount: 2
Fore
SplineSet
51 1015 m 1,0,-1
 51 1107 l 1,1,-1
 380 1107 l 1,2,-1
 380 1515 l 1,3,-1
 490 1515 l 1,4,-1
 490 1107 l 1,5,-1
 819 1107 l 1,6,-1
 819 1015 l 1,7,-1
 490 1015 l 1,8,-1
 490 -132 l 1,9,-1
 380 -132 l 1,10,-1
 380 1015 l 1,11,-1
 51 1015 l 1,0,-1
EndSplineSet
EndChar

StartChar: daggerdbl
Encoding: 8225 8225 695
Width: 900
Flags: W
LayerCount: 2
Fore
SplineSet
66 1015 m 1,0,-1
 66 1107 l 1,1,-1
 395 1107 l 1,2,-1
 395 1515 l 1,3,-1
 505 1515 l 1,4,-1
 505 1107 l 1,5,-1
 834 1107 l 1,6,-1
 834 1015 l 1,7,-1
 505 1015 l 1,8,-1
 505 479 l 1,9,-1
 834 479 l 1,10,-1
 834 387 l 1,11,-1
 505 387 l 1,12,-1
 505 -132 l 1,13,-1
 395 -132 l 1,14,-1
 395 387 l 1,15,-1
 66 387 l 1,16,-1
 66 479 l 1,17,-1
 395 479 l 1,18,-1
 395 1015 l 1,19,-1
 66 1015 l 1,0,-1
EndSplineSet
EndChar

StartChar: bullet
Encoding: 8226 8226 696
Width: 496
Flags: W
LayerCount: 2
Fore
SplineSet
136 790 m 0,0,1
 182 840 182 840 248 839.5 c 128,-1,2
 314 839 314 839 360 789 c 128,-1,3
 406 739 406 739 406 675 c 128,-1,4
 406 611 406 611 360 560.5 c 128,-1,5
 314 510 314 510 248 510 c 128,-1,6
 182 510 182 510 135.5 560 c 128,-1,7
 89 610 89 610 89 675 c 128,-1,8
 89 740 89 740 136 790 c 0,0,1
EndSplineSet
EndChar

StartChar: fraction
Encoding: 8260 8260 707
Width: 781
Flags: W
LayerCount: 2
Fore
SplineSet
-36 -38 m 1,0,-1
 708 1554 l 1,1,-1
 816 1554 l 1,2,-1
 73 -38 l 1,3,-1
 -36 -38 l 1,0,-1
EndSplineSet
EndChar

StartChar: Euro
Encoding: 8364 8364 712
Width: 1267
Flags: W
LayerCount: 2
Fore
SplineSet
60 572 m 1,0,-1
 60 674 l 1,1,-1
 176 674 l 1,2,3
 173 720 173 720 173 748 c 128,-1,4
 173 776 173 776 175 828 c 1,5,-1
 60 828 l 1,6,-1
 60 930 l 1,7,-1
 184 930 l 1,8,9
 217 1178 217 1178 337 1346 c 0,10,11
 399 1432 399 1432 495 1482 c 128,-1,12
 591 1532 591 1532 690 1532 c 128,-1,13
 789 1532 789 1532 856.5 1507.5 c 128,-1,14
 924 1483 924 1483 970.5 1444 c 128,-1,15
 1017 1405 1017 1405 1055 1358 c 128,-1,16
 1093 1311 1093 1311 1115 1264 c 0,17,18
 1161 1168 1161 1168 1173 1114 c 2,19,-1
 1178 1090 l 1,20,-1
 1178 1089 l 1,21,-1
 1028 1046 l 1,22,-1
 1021 1084 l 1,23,24
 989 1246 989 1246 901 1334 c 1,25,26
 829 1408 829 1408 711 1408 c 0,27,28
 378 1408 378 1408 329 930 c 1,29,-1
 711 930 l 1,30,-1
 711 828 l 1,31,-1
 322 828 l 1,32,33
 321 802 321 802 321 761 c 128,-1,34
 321 720 321 720 324 674 c 1,35,-1
 711 674 l 1,36,-1
 711 572 l 1,37,-1
 331 572 l 1,38,39
 386 108 386 108 711 108 c 0,40,41
 939 108 939 108 1029 372 c 0,42,43
 1045 421 1045 421 1054 463 c 1,44,-1
 1199 440 l 1,45,46
 1162 272 1162 272 1056 144 c 0,47,48
 923 -16 923 -16 711 -16 c 0,49,50
 433 -16 433 -16 291 232 c 1,51,52
 212 372 212 372 185 572 c 1,53,-1
 60 572 l 1,0,-1
EndSplineSet
EndChar

StartChar: trademark
Encoding: 8482 8482 713
Width: 964
Flags: W
LayerCount: 2
Fore
SplineSet
451 933 m 1,0,-1
 451 1388 l 1,1,-1
 552 1388 l 1,2,-1
 642 1061 l 1,3,-1
 734 1388 l 1,4,-1
 835 1388 l 1,5,-1
 835 933 l 1,6,-1
 765 933 l 1,7,-1
 765 1280 l 1,8,-1
 668 933 l 1,9,-1
 618 933 l 1,10,-1
 521 1281 l 1,11,-1
 521 933 l 1,12,-1
 451 933 l 1,0,-1
103 1326 m 1,13,-1
 103 1389 l 1,14,-1
 407 1389 l 1,15,-1
 407 1326 l 1,16,-1
 290 1326 l 1,17,-1
 290 935 l 1,18,-1
 220 935 l 1,19,-1
 220 1326 l 1,20,-1
 103 1326 l 1,13,-1
EndSplineSet
EndChar

StartChar: minus
Encoding: 8722 8722 714
Width: 762
Flags: W
LayerCount: 2
Fore
SplineSet
119 694 m 1,0,-1
 119 786 l 1,1,-1
 643 786 l 1,2,-1
 643 694 l 1,3,-1
 119 694 l 1,0,-1
EndSplineSet
EndChar

StartChar: uniEFFD
Encoding: 61437 61437 718
Width: 1372
Flags: W
LayerCount: 2
Fore
SplineSet
1117 489 m 0,0,1
 994 489 994 489 994 264 c 128,-1,2
 994 39 994 39 1117 39 c 1,3,4
 1191 40 1191 40 1213 104 c 0,5,6
 1232 160 1232 160 1232 233.5 c 128,-1,7
 1232 307 1232 307 1228 344 c 128,-1,8
 1224 381 1224 381 1212 416 c 0,9,10
 1188 489 1188 489 1117 489 c 0,0,1
978 442 m 0,11,12
 1019 532 1019 532 1117 532 c 0,13,14
 1244 532 1244 532 1276 356 c 0,15,16
 1284 310 1284 310 1284 249.5 c 128,-1,17
 1284 189 1284 189 1270.5 133.5 c 128,-1,18
 1257 78 1257 78 1218 37 c 128,-1,19
 1179 -4 1179 -4 1124 -4 c 128,-1,20
 1069 -4 1069 -4 1033.5 19 c 128,-1,21
 998 42 998 42 979 81.5 c 128,-1,22
 960 121 960 121 951.5 164.5 c 128,-1,23
 943 208 943 208 943 259 c 128,-1,24
 943 310 943 310 951.5 355.5 c 128,-1,25
 960 401 960 401 978 442 c 0,11,12
552 0 m 1,26,27
 552 94 552 94 622 164 c 0,28,29
 658 199 658 199 718 243 c 1,30,-1
 748 264 l 1,31,32
 806 306 806 306 816 323 c 0,33,34
 836 358 836 358 836 396.5 c 128,-1,35
 836 435 836 435 810.5 461.5 c 128,-1,36
 785 488 785 488 731 488 c 128,-1,37
 677 488 677 488 648.5 454 c 128,-1,38
 620 420 620 420 618 381 c 1,39,-1
 567 381 l 1,40,41
 567 447 567 447 618.5 490.5 c 128,-1,42
 670 534 670 534 735 534 c 128,-1,43
 800 534 800 534 844 492 c 128,-1,44
 888 450 888 450 888 390 c 0,45,46
 888 318 888 318 812 254 c 0,47,48
 802 246 802 246 778 228 c 0,49,50
 614 105 614 105 608 49 c 1,51,-1
 880 49 l 1,52,-1
 880 0 l 1,53,-1
 552 0 l 1,26,27
451 0 m 1,54,-1
 451 52 l 1,55,-1
 503 52 l 1,56,-1
 503 0 l 1,57,-1
 451 0 l 1,54,-1
261 489 m 0,58,59
 138 489 138 489 138 264 c 128,-1,60
 138 39 138 39 261 39 c 1,61,62
 335 40 335 40 357 104 c 0,63,64
 376 160 376 160 376 233.5 c 128,-1,65
 376 307 376 307 372 344 c 128,-1,66
 368 381 368 381 356 416 c 0,67,68
 332 489 332 489 261 489 c 0,58,59
122 442 m 0,69,70
 164 532 164 532 261 532 c 0,71,72
 322 532 322 532 361 488 c 0,73,74
 427 414 427 414 427 258 c 0,75,76
 427 74 427 74 342 18 c 0,77,78
 308 -4 308 -4 260.5 -4 c 128,-1,79
 213 -4 213 -4 177.5 19 c 128,-1,80
 142 42 142 42 123 81.5 c 128,-1,81
 104 121 104 121 95 165 c 128,-1,82
 86 209 86 209 86 259 c 128,-1,83
 86 309 86 309 94.5 355 c 128,-1,84
 103 401 103 401 122 442 c 0,69,70
EndSplineSet
EndChar

StartChar: uniF000
Encoding: 61440 61440 719
Width: 1055
Flags: W
LayerCount: 2
Fore
SplineSet
914 363 m 1,0,-1
 914 661 l 1,1,-1
 943 661 l 1,2,-1
 943 363 l 1,3,-1
 914 363 l 1,0,-1
914 31 m 1,4,-1
 914 329 l 1,5,-1
 943 329 l 1,6,-1
 943 31 l 1,7,-1
 914 31 l 1,4,-1
606 664 m 1,8,-1
 606 693 l 1,9,-1
 914 693 l 1,10,-1
 914 664 l 1,11,-1
 606 664 l 1,8,-1
606 332 m 1,12,-1
 606 361 l 1,13,-1
 914 361 l 1,14,-1
 914 332 l 1,15,-1
 606 332 l 1,12,-1
606 0 m 1,16,-1
 606 29 l 1,17,-1
 914 29 l 1,18,-1
 914 0 l 1,19,-1
 606 0 l 1,16,-1
577 363 m 1,20,-1
 577 661 l 1,21,-1
 606 661 l 1,22,-1
 606 363 l 1,23,-1
 577 363 l 1,20,-1
577 31 m 1,24,-1
 577 329 l 1,25,-1
 606 329 l 1,26,-1
 606 31 l 1,27,-1
 577 31 l 1,24,-1
451 363 m 1,28,-1
 451 661 l 1,29,-1
 480 661 l 1,30,-1
 480 363 l 1,31,-1
 451 363 l 1,28,-1
451 31 m 1,32,-1
 451 329 l 1,33,-1
 480 329 l 1,34,-1
 480 31 l 1,35,-1
 451 31 l 1,32,-1
142 664 m 1,36,-1
 142 693 l 1,37,-1
 451 693 l 1,38,-1
 451 664 l 1,39,-1
 142 664 l 1,36,-1
142 332 m 1,40,-1
 142 361 l 1,41,-1
 451 361 l 1,42,-1
 451 332 l 1,43,-1
 142 332 l 1,40,-1
142 0 m 1,44,-1
 142 29 l 1,45,-1
 451 29 l 1,46,-1
 451 0 l 1,47,-1
 142 0 l 1,44,-1
113 363 m 1,48,-1
 113 661 l 1,49,-1
 142 661 l 1,50,-1
 142 363 l 1,51,-1
 113 363 l 1,48,-1
113 31 m 1,52,-1
 113 329 l 1,53,-1
 142 329 l 1,54,-1
 142 31 l 1,55,-1
 113 31 l 1,52,-1
EndSplineSet
EndChar

StartChar: uniFB00
Encoding: 64256 64256 721
Width: 978
Flags: W
LayerCount: 2
Fore
SplineSet
340 1055 m 1,0,-1
 579 1055 l 1,1,-1
 579 1278 l 2,2,3
 579 1333 579 1333 600 1389 c 1,4,5
 536 1405 536 1405 486 1405 c 0,6,7
 340 1405 340 1405 340 1278 c 2,8,-1
 340 1055 l 1,0,-1
683 1479 m 1,9,10
 765 1524 765 1524 853 1524 c 128,-1,11
 941 1524 941 1524 950 1515 c 1,12,-1
 950 1403 l 1,13,-1
 861 1405 l 1,14,15
 711 1403 711 1403 711 1278 c 2,16,-1
 711 1055 l 1,17,-1
 950 1055 l 1,18,-1
 950 943 l 1,19,-1
 711 943 l 1,20,-1
 711 0 l 1,21,-1
 579 0 l 1,22,-1
 579 943 l 1,23,-1
 340 943 l 1,24,-1
 340 0 l 1,25,-1
 208 0 l 1,26,-1
 208 943 l 1,27,-1
 35 943 l 1,28,-1
 35 1055 l 1,29,-1
 208 1055 l 1,30,-1
 208 1278 l 2,31,32
 208 1445 208 1445 351 1498 c 0,33,34
 421 1524 421 1524 493 1524 c 0,35,36
 617 1524 617 1524 683 1479 c 1,9,10
EndSplineSet
EndChar

StartChar: fi
Encoding: 64257 64257 722
Width: 851
Flags: W
LayerCount: 2
Fore
SplineSet
497 1524 m 1,0,-1
 729 1515 l 1,1,-1
 729 1365 l 1,2,-1
 579 1365 l 1,3,-1
 579 1403 l 1,4,5
 551 1405 551 1405 529 1405 c 128,-1,6
 507 1405 507 1405 477 1403.5 c 128,-1,7
 447 1402 447 1402 414 1394 c 0,8,9
 340 1376 340 1376 340 1278 c 2,10,-1
 340 1055 l 1,11,-1
 724 1055 l 1,12,-1
 724 -2 l 1,13,-1
 592 -2 l 1,14,-1
 592 943 l 1,15,-1
 340 943 l 1,16,-1
 340 0 l 1,17,-1
 208 0 l 1,18,-1
 208 943 l 1,19,-1
 35 943 l 1,20,-1
 35 1055 l 1,21,-1
 208 1055 l 1,22,-1
 208 1278 l 2,23,24
 208 1442 208 1442 349 1498 c 0,25,26
 415 1524 415 1524 497 1524 c 1,0,-1
EndSplineSet
EndChar

StartChar: uniFB02
Encoding: 64258 64258 723
Width: 871
Flags: W
LayerCount: 2
Fore
SplineSet
340 1055 m 1,0,-1
 612 1055 l 1,1,-1
 612 1404 l 1,2,-1
 523 1404 l 1,3,4
 340 1401 340 1401 340 1278 c 2,5,-1
 340 1055 l 1,0,-1
35 943 m 1,6,-1
 35 1055 l 1,7,-1
 208 1055 l 1,8,-1
 208 1278 l 2,9,10
 208 1440 208 1440 370 1498 c 0,11,12
 444 1524 444 1524 509 1524 c 0,13,14
 600 1524 600 1524 712 1517 c 2,15,-1
 744 1515 l 1,16,-1
 744 -2 l 1,17,-1
 612 -2 l 1,18,-1
 612 943 l 1,19,-1
 340 943 l 1,20,-1
 340 0 l 1,21,-1
 208 0 l 1,22,-1
 208 943 l 1,23,-1
 35 943 l 1,6,-1
EndSplineSet
EndChar

StartChar: uniFB03
Encoding: 64259 64259 724
Width: 1222
Flags: W
LayerCount: 2
Fore
SplineSet
340 1055 m 1,0,-1
 579 1055 l 1,1,-1
 579 1278 l 2,2,3
 579 1333 579 1333 600 1389 c 1,4,5
 536 1405 536 1405 486 1405 c 0,6,7
 340 1405 340 1405 340 1278 c 2,8,-1
 340 1055 l 1,0,-1
35 943 m 1,9,-1
 35 1055 l 1,10,-1
 208 1055 l 1,11,-1
 208 1278 l 2,12,13
 208 1524 208 1524 516 1524 c 0,14,15
 589 1524 589 1524 634 1503.5 c 128,-1,16
 679 1483 679 1483 683 1479 c 1,17,18
 770 1524 770 1524 868 1524 c 0,19,20
 904 1524 904 1524 1001.5 1520 c 128,-1,21
 1099 1516 1099 1516 1100 1515 c 1,22,-1
 1100 1365 l 1,23,-1
 950 1365 l 1,24,-1
 950 1404 l 1,25,-1
 861 1404 l 2,26,27
 711 1404 711 1404 711 1278 c 2,28,-1
 711 1055 l 1,29,-1
 1095 1055 l 1,30,-1
 1095 -2 l 1,31,-1
 963 -2 l 1,32,-1
 963 943 l 1,33,-1
 711 943 l 1,34,-1
 711 0 l 1,35,-1
 579 0 l 1,36,-1
 579 943 l 1,37,-1
 340 943 l 1,38,-1
 340 0 l 1,39,-1
 208 0 l 1,40,-1
 208 943 l 1,41,-1
 35 943 l 1,9,-1
EndSplineSet
EndChar

StartChar: uniFB04
Encoding: 64260 64260 725
Width: 1209
Flags: W
LayerCount: 2
Fore
SplineSet
950 1404 m 1,0,-1
 853 1404 l 2,1,2
 778 1404 778 1404 744.5 1369.5 c 128,-1,3
 711 1335 711 1335 711 1278 c 2,4,-1
 711 1055 l 1,5,-1
 950 1055 l 1,6,-1
 950 1404 l 1,0,-1
340 1055 m 1,7,-1
 579 1055 l 1,8,-1
 579 1278 l 2,9,10
 579 1333 579 1333 600 1389 c 1,11,12
 536 1405 536 1405 486 1405 c 0,13,14
 340 1405 340 1405 340 1278 c 2,15,-1
 340 1055 l 1,7,-1
35 943 m 1,16,-1
 35 1055 l 1,17,-1
 208 1055 l 1,18,-1
 208 1278 l 2,19,20
 208 1440 208 1440 368 1498 c 0,21,22
 441 1524 441 1524 491 1524 c 0,23,24
 562 1524 562 1524 584 1520 c 2,25,-1
 607 1515 l 2,26,27
 657 1505 657 1505 683 1479 c 1,28,29
 760 1525 760 1525 880 1525 c 0,30,31
 906 1525 906 1525 1082 1515 c 1,32,-1
 1082 -2 l 1,33,-1
 950 -2 l 1,34,-1
 950 943 l 1,35,-1
 711 943 l 1,36,-1
 711 0 l 1,37,-1
 579 0 l 1,38,-1
 579 943 l 1,39,-1
 340 943 l 1,40,-1
 340 0 l 1,41,-1
 208 0 l 1,42,-1
 208 943 l 1,43,-1
 35 943 l 1,16,-1
EndSplineSet
EndChar

StartChar: uniFB05
Encoding: 64261 64261 726
Width: 1021
Flags: W
LayerCount: 2
Fore
SplineSet
35 943 m 1,0,-1
 35 1055 l 1,1,-1
 208 1055 l 1,2,3
 221 1336 221 1336 337 1438 c 0,4,5
 436 1524 436 1524 626 1525 c 1,6,-1
 756 1525 l 1,7,-1
 756 1054 l 1,8,-1
 998 1054 l 1,9,-1
 998 942 l 1,10,-1
 756 942 l 1,11,-1
 756 273 l 2,12,13
 756 172 756 172 787 135 c 128,-1,14
 818 98 818 98 889 98 c 0,15,16
 918 98 918 98 958 103 c 128,-1,17
 998 108 998 108 998 109 c 2,18,-1
 998 10 l 1,19,20
 932 -14 932 -14 869.5 -14 c 128,-1,21
 807 -14 807 -14 784 -11 c 128,-1,22
 761 -8 761 -8 728 8 c 0,23,24
 694 24 694 24 674 52 c 0,25,26
 624 122 624 122 624 273 c 2,27,-1
 624 942 l 1,28,-1
 511 942 l 1,29,-1
 511 1054 l 1,30,-1
 624 1054 l 1,31,-1
 624 1405 l 1,32,33
 491 1404 491 1404 426 1328 c 0,34,35
 366 1258 366 1258 352 1078 c 0,36,37
 346 998 346 998 346 879 c 2,38,-1
 346 0 l 1,39,-1
 206 0 l 1,40,-1
 208 943 l 1,41,-1
 35 943 l 1,0,-1
EndSplineSet
EndChar

StartChar: quotedblleft
Encoding: 65550 -1 739
Width: 603
Flags: W
LayerCount: 2
Fore
SplineSet
74 1296 m 1,0,-1
 74 1446 l 1,1,-1
 224 1446 l 1,2,-1
 224 1296 l 1,3,-1
 159 1296 l 1,4,-1
 246 1046 l 1,5,-1
 202 1046 l 1,6,7
 199 1049 199 1049 150 1144 c 128,-1,8
 101 1239 101 1239 74 1296 c 1,0,-1
339 1296 m 1,9,-1
 339 1446 l 1,10,-1
 489 1446 l 1,11,-1
 489 1296 l 1,12,-1
 424 1296 l 1,13,-1
 511 1046 l 1,14,-1
 467 1046 l 1,15,16
 464 1049 464 1049 415 1144 c 128,-1,17
 366 1239 366 1239 339 1296 c 1,9,-1
EndSplineSet
EndChar

StartChar: uni0195
Encoding: 65557 -1 746
Width: 1581
Flags: W
LayerCount: 2
Fore
SplineSet
728 346 m 2,0,1
 728 346 728 346 728 786 c 0,2,3
 728 861 728 861 674.5 907.5 c 128,-1,4
 621 954 621 954 559 954 c 0,5,6
 411 954 411 954 252 781 c 1,7,-1
 252 0 l 1,8,-1
 120 0 l 1,9,-1
 120 1515 l 1,10,-1
 252 1515 l 1,11,-1
 252 882 l 1,12,13
 296 924 296 924 326.5 950 c 128,-1,14
 357 976 357 976 402 1006.5 c 128,-1,15
 447 1037 447 1037 495.5 1051.5 c 128,-1,16
 544 1066 544 1066 597 1066 c 0,17,18
 712 1066 712 1066 786 996 c 128,-1,19
 860 926 860 926 860 786 c 2,20,-1
 860 338 l 2,21,22
 860 282 860 282 879 238.5 c 128,-1,23
 898 195 898 195 927.5 169.5 c 128,-1,24
 957 144 957 144 997.5 128 c 128,-1,25
 1038 112 1038 112 1075 106.5 c 128,-1,26
 1112 101 1112 101 1151 101 c 0,27,28
 1208 101 1208 101 1272 180 c 128,-1,29
 1336 259 1336 259 1336 338 c 2,30,-1
 1336 1055 l 1,31,-1
 1468 1055 l 1,32,-1
 1468 338 l 2,33,34
 1468 267 1468 267 1438.5 200.5 c 128,-1,35
 1409 134 1409 134 1363 88.5 c 128,-1,36
 1317 43 1317 43 1260.5 16 c 128,-1,37
 1204 -11 1204 -11 1151 -11 c 0,38,39
 1060 -11 1060 -11 987 7.5 c 128,-1,40
 914 26 914 26 854 65.5 c 128,-1,41
 794 105 794 105 761 176.5 c 128,-1,42
 728 248 728 248 728 346 c 2,0,1
EndSplineSet
EndChar

StartChar: endash
Encoding: 65558 -1 747
Width: 748
Flags: W
LayerCount: 2
Fore
SplineSet
112 786 m 1,0,-1
 636 786 l 1,1,-1
 636 694 l 1,2,-1
 112 694 l 1,3,-1
 112 786 l 1,0,-1
EndSplineSet
EndChar

StartChar: emdash
Encoding: 65559 -1 748
Width: 1137
Flags: W
LayerCount: 2
Fore
SplineSet
112 786 m 1,0,-1
 1025 786 l 1,1,-1
 1025 694 l 1,2,-1
 112 694 l 1,3,-1
 112 786 l 1,0,-1
EndSplineSet
EndChar
